{"glyphs":{"0":{"ha":833,"x_min":111,"x_max":722,"o":"m 417 -14 q 255 23 324 -14 q 149 127 186 60 q 111 285 111 194 l 111 729 q 149 888 111 821 q 255 991 186 954 q 417 1028 324 1028 q 579 991 511 1028 q 685 888 647 954 q 722 729 722 821 l 722 285 q 685 127 722 194 q 578 23 647 60 q 417 -14 510 -14 m 417 93 q 551 147 500 93 q 601 285 601 200 l 601 729 q 551 867 601 814 q 417 921 500 921 q 283 867 333 921 q 232 729 232 814 l 232 285 q 283 147 232 200 q 417 93 333 93 m 417 425 q 356 449 379 425 q 333 511 333 472 q 356 572 333 549 q 417 594 379 594 q 477 572 454 594 q 500 511 500 549 q 477 449 500 472 q 417 425 454 425 z "},"1":{"ha":833,"x_min":125,"x_max":750,"o":"m 125 0 l 125 114 l 400 114 l 400 910 l 125 704 l 125 843 l 354 1014 l 525 1014 l 525 114 l 750 114 l 750 0 l 125 0 z "},"2":{"ha":833,"x_min":100,"x_max":731,"o":"m 128 0 l 128 128 l 438 457 q 553 608 517 542 q 589 735 589 674 q 542 868 589 819 q 415 917 496 917 q 276 867 326 917 q 225 729 225 817 l 100 729 q 142 888 103 821 q 252 992 182 956 q 415 1028 322 1028 q 574 992 507 1028 q 678 892 642 957 q 714 736 714 826 q 668 565 714 650 q 518 372 622 481 l 268 114 l 731 114 l 731 0 l 128 0 z "},"3":{"ha":833,"x_min":97,"x_max":708,"o":"m 401 -14 q 241 23 310 -14 q 135 125 172 60 q 97 278 97 190 l 222 278 q 270 145 222 193 q 403 97 318 97 q 536 147 489 97 q 583 278 583 197 l 583 350 q 536 483 583 436 q 403 531 489 531 l 299 531 l 299 656 l 550 900 l 139 900 l 139 1014 l 676 1014 l 676 889 l 406 626 l 406 642 q 626 563 544 642 q 708 350 708 483 l 708 278 q 670 125 708 190 q 563 23 632 60 q 401 -14 493 -14 z "},"4":{"ha":833,"x_min":111,"x_max":694,"o":"m 569 0 l 569 222 l 111 222 l 111 418 l 513 1014 l 649 1014 l 236 392 l 236 336 l 569 336 l 569 583 l 694 583 l 694 0 l 569 0 z "},"5":{"ha":833,"x_min":118,"x_max":715,"o":"m 414 -14 q 211 50 290 -14 q 118 222 132 114 l 243 222 q 294 130 250 163 q 415 97 339 97 q 547 144 503 97 q 590 278 590 192 l 590 376 q 547 510 590 463 q 417 557 503 557 q 322 528 363 557 q 264 453 282 500 l 139 453 l 146 1014 l 679 1014 l 679 900 l 267 900 l 263 563 l 301 563 l 263 526 q 315 629 263 592 q 454 667 367 667 q 647 591 578 668 q 715 376 715 514 l 715 278 q 636 65 715 143 q 414 -14 557 -14 z "},"6":{"ha":833,"x_min":94,"x_max":739,"o":"m 418 -14 q 248 27 321 -14 q 135 142 175 68 q 94 313 94 215 q 116 463 94 389 q 181 604 138 536 l 435 1014 l 574 1014 l 286 553 l 292 549 q 364 608 318 588 q 467 629 410 629 q 611 590 550 629 q 706 481 672 551 q 739 313 739 410 q 699 142 739 215 q 587 27 658 68 q 418 -14 515 -14 m 417 97 q 560 156 506 97 q 614 313 614 215 q 560 469 614 410 q 417 528 506 528 q 274 469 328 528 q 219 313 219 410 q 274 156 219 215 q 417 97 328 97 z "},"7":{"ha":833,"x_min":111,"x_max":743,"o":"m 257 0 l 619 900 l 236 900 l 236 750 l 111 750 l 111 1014 l 743 1014 l 743 892 l 392 0 l 257 0 z "},"8":{"ha":833,"x_min":111,"x_max":722,"o":"m 417 -14 q 255 19 324 -14 q 149 113 186 51 q 111 256 111 174 q 160 411 111 346 q 317 528 210 476 l 451 593 q 546 669 513 622 q 579 774 579 717 q 535 879 579 840 q 417 918 492 918 q 298 878 342 918 q 254 772 254 839 q 287 669 254 717 q 376 594 319 622 l 511 531 q 672 413 622 479 q 722 256 722 347 q 640 59 722 132 q 417 -14 557 -14 m 417 97 q 551 141 501 97 q 600 258 600 185 q 568 367 600 318 q 476 444 536 415 l 343 510 q 182 626 232 564 q 132 776 132 689 q 167 911 132 854 q 265 999 201 968 q 417 1029 329 1029 q 568 999 504 1029 q 667 911 632 968 q 701 776 701 854 q 651 627 701 689 q 486 508 601 565 l 353 443 q 265 367 296 415 q 233 261 233 319 q 283 142 233 186 q 417 97 332 97 z "},"9":{"ha":833,"x_min":94,"x_max":739,"o":"m 260 0 l 547 461 l 542 465 q 469 406 515 426 q 367 385 424 385 q 223 424 285 385 q 128 534 161 463 q 94 701 94 606 q 135 873 94 800 q 247 987 175 946 q 415 1028 319 1028 q 585 987 513 1028 q 699 873 658 946 q 739 701 739 800 q 717 551 739 625 q 653 410 696 478 l 399 0 l 260 0 m 417 486 q 560 545 506 486 q 614 701 614 604 q 560 858 614 799 q 417 917 506 917 q 274 858 328 917 q 219 701 219 799 q 274 545 219 604 q 417 486 328 486 z "},"A":{"ha":833,"x_min":69,"x_max":764,"o":"m 69 0 l 333 1014 l 501 1014 l 764 0 l 638 0 l 571 269 l 264 269 l 197 0 l 69 0 m 289 375 l 544 375 l 467 688 q 432 836 444 776 q 417 914 419 896 q 401 836 414 896 q 367 689 389 776 l 289 375 z "},"Á":{"ha":833,"x_min":69,"x_max":764,"o":"m 69 0 l 333 1014 l 501 1014 l 764 0 l 638 0 l 571 269 l 264 269 l 197 0 l 69 0 m 289 375 l 544 375 l 467 688 q 432 836 444 776 q 417 914 419 896 q 401 836 414 896 q 367 689 389 776 l 289 375 m 336 1125 l 483 1319 l 618 1319 l 464 1125 l 336 1125 z "},"Ă":{"ha":833,"x_min":69,"x_max":764,"o":"m 69 0 l 333 1014 l 501 1014 l 764 0 l 638 0 l 571 269 l 264 269 l 197 0 l 69 0 m 289 375 l 544 375 l 467 688 q 432 836 444 776 q 417 914 419 896 q 401 836 414 896 q 367 689 389 776 l 289 375 m 417 1118 q 256 1174 317 1118 q 194 1319 194 1229 l 293 1319 q 326 1232 293 1265 q 415 1199 360 1199 q 506 1232 472 1199 q 540 1319 540 1265 l 639 1319 q 578 1174 639 1229 q 417 1118 517 1118 z "},"Ắ":{"ha":833,"x_min":69,"x_max":764,"o":"m 329 1250 l 475 1417 l 608 1417 l 456 1250 l 329 1250 m 382 1083 q 240 1132 293 1083 q 188 1264 188 1181 l 285 1264 q 311 1193 285 1219 q 382 1167 338 1167 l 450 1167 q 522 1193 496 1167 q 549 1264 549 1219 l 646 1264 q 593 1132 646 1181 q 450 1083 540 1083 l 382 1083 m 69 0 l 333 1014 l 501 1014 l 764 0 l 638 0 l 571 269 l 264 269 l 197 0 l 69 0 m 289 375 l 544 375 l 467 688 q 432 836 444 776 q 417 914 419 896 q 401 836 414 896 q 367 689 389 776 l 289 375 z "},"Ặ":{"ha":833,"x_min":69,"x_max":764,"o":"m 417 1118 q 256 1174 317 1118 q 194 1319 194 1229 l 293 1319 q 326 1232 293 1265 q 415 1199 360 1199 q 506 1232 472 1199 q 540 1319 540 1265 l 639 1319 q 578 1174 639 1229 q 417 1118 517 1118 m 69 0 l 333 1014 l 501 1014 l 764 0 l 638 0 l 571 269 l 264 269 l 197 0 l 69 0 m 289 375 l 544 375 l 467 688 q 432 836 444 776 q 417 914 419 896 q 401 836 414 896 q 367 689 389 776 l 289 375 m 431 -296 q 358 -272 385 -296 q 332 -208 332 -249 q 358 -142 332 -167 q 431 -118 385 -118 q 503 -142 476 -118 q 529 -208 529 -167 q 503 -272 529 -249 q 431 -296 476 -296 z "},"Ằ":{"ha":833,"x_min":69,"x_max":764,"o":"m 382 1083 q 240 1132 293 1083 q 188 1264 188 1181 l 285 1264 q 311 1193 285 1219 q 382 1167 338 1167 l 450 1167 q 522 1193 496 1167 q 549 1264 549 1219 l 646 1264 q 593 1132 646 1181 q 450 1083 540 1083 l 382 1083 m 378 1250 l 239 1417 l 372 1417 l 504 1250 l 378 1250 m 69 0 l 333 1014 l 501 1014 l 764 0 l 638 0 l 571 269 l 264 269 l 197 0 l 69 0 m 289 375 l 544 375 l 467 688 q 432 836 444 776 q 417 914 419 896 q 401 836 414 896 q 367 689 389 776 l 289 375 z "},"Ẳ":{"ha":833,"x_min":69,"x_max":764,"o":"m 353 1222 l 418 1300 q 428 1322 428 1311 q 414 1333 428 1333 l 313 1333 l 313 1417 l 447 1417 q 503 1399 483 1417 q 524 1350 524 1382 q 518 1313 524 1332 q 501 1278 513 1293 l 457 1222 l 353 1222 m 382 1083 q 240 1132 293 1083 q 188 1264 188 1181 l 285 1264 q 311 1193 285 1219 q 382 1167 338 1167 l 450 1167 q 522 1193 496 1167 q 549 1264 549 1219 l 646 1264 q 593 1132 646 1181 q 450 1083 540 1083 l 382 1083 m 69 0 l 333 1014 l 501 1014 l 764 0 l 638 0 l 571 269 l 264 269 l 197 0 l 69 0 m 289 375 l 544 375 l 467 688 q 432 836 444 776 q 417 914 419 896 q 401 836 414 896 q 367 689 389 776 l 289 375 z "},"Ẵ":{"ha":833,"x_min":69,"x_max":764,"o":"m 382 1083 q 240 1125 293 1083 q 188 1250 188 1167 l 285 1250 q 311 1186 285 1206 q 382 1167 338 1167 l 450 1167 q 522 1186 496 1167 q 549 1250 549 1206 l 646 1250 q 593 1125 646 1167 q 450 1083 540 1083 l 382 1083 m 524 1278 q 451 1288 481 1278 q 401 1310 422 1297 q 362 1333 381 1324 q 319 1343 343 1343 q 290 1332 301 1343 q 278 1301 278 1321 l 278 1292 l 188 1292 l 188 1301 q 222 1385 188 1354 q 313 1417 256 1417 q 385 1407 357 1417 q 434 1384 414 1397 q 472 1361 454 1371 q 514 1351 490 1351 q 544 1363 533 1351 q 556 1393 556 1375 l 556 1403 l 646 1403 l 646 1393 q 613 1309 646 1340 q 524 1278 581 1278 m 69 0 l 333 1014 l 501 1014 l 764 0 l 638 0 l 571 269 l 264 269 l 197 0 l 69 0 m 289 375 l 544 375 l 467 688 q 432 836 444 776 q 417 914 419 896 q 401 836 414 896 q 367 689 389 776 l 289 375 z "},"Ǎ":{"ha":833,"x_min":69,"x_max":764,"o":"m 69 0 l 333 1014 l 501 1014 l 764 0 l 638 0 l 571 269 l 264 269 l 197 0 l 69 0 m 289 375 l 544 375 l 467 688 q 432 836 444 776 q 417 914 419 896 q 401 836 414 896 q 367 689 389 776 l 289 375 m 360 1125 l 165 1319 l 303 1319 l 417 1211 l 528 1319 l 668 1319 l 475 1125 l 360 1125 z "},"Â":{"ha":833,"x_min":69,"x_max":764,"o":"m 69 0 l 333 1014 l 501 1014 l 764 0 l 638 0 l 571 269 l 264 269 l 197 0 l 69 0 m 289 375 l 544 375 l 467 688 q 432 836 444 776 q 417 914 419 896 q 401 836 414 896 q 367 689 389 776 l 289 375 m 165 1125 l 358 1319 l 474 1319 l 668 1125 l 531 1125 l 417 1233 l 306 1125 l 165 1125 z "},"Ấ":{"ha":833,"x_min":69,"x_max":854,"o":"m 567 1250 l 713 1417 l 854 1417 l 701 1250 l 567 1250 m 167 1083 l 358 1278 l 475 1278 l 668 1083 l 528 1083 l 417 1192 l 304 1083 l 167 1083 m 69 0 l 333 1014 l 501 1014 l 764 0 l 638 0 l 571 269 l 264 269 l 197 0 l 69 0 m 289 375 l 544 375 l 467 688 q 432 836 444 776 q 417 914 419 896 q 401 836 414 896 q 367 689 389 776 l 289 375 z "},"Ậ":{"ha":833,"x_min":69,"x_max":764,"o":"m 165 1125 l 358 1319 l 474 1319 l 668 1125 l 531 1125 l 417 1233 l 306 1125 l 165 1125 m 69 0 l 333 1014 l 501 1014 l 764 0 l 638 0 l 571 269 l 264 269 l 197 0 l 69 0 m 289 375 l 544 375 l 467 688 q 432 836 444 776 q 417 914 419 896 q 401 836 414 896 q 367 689 389 776 l 289 375 m 431 -296 q 358 -272 385 -296 q 332 -208 332 -249 q 358 -142 332 -167 q 431 -118 385 -118 q 503 -142 476 -118 q 529 -208 529 -167 q 503 -272 529 -249 q 431 -296 476 -296 z "},"Ầ":{"ha":833,"x_min":69,"x_max":764,"o":"m 618 1250 l 451 1417 l 590 1417 l 750 1250 l 618 1250 m 167 1083 l 358 1278 l 475 1278 l 668 1083 l 528 1083 l 417 1192 l 304 1083 l 167 1083 m 69 0 l 333 1014 l 501 1014 l 764 0 l 638 0 l 571 269 l 264 269 l 197 0 l 69 0 m 289 375 l 544 375 l 467 688 q 432 836 444 776 q 417 914 419 896 q 401 836 414 896 q 367 689 389 776 l 289 375 z "},"Ẩ":{"ha":833,"x_min":69,"x_max":764,"o":"m 583 1222 l 650 1288 q 661 1314 661 1299 q 640 1336 661 1336 l 549 1336 l 549 1417 l 667 1417 q 738 1393 711 1417 q 764 1331 764 1369 q 758 1297 764 1313 q 742 1269 753 1281 l 692 1222 l 583 1222 m 167 1083 l 358 1278 l 475 1278 l 668 1083 l 528 1083 l 417 1192 l 304 1083 l 167 1083 m 69 0 l 333 1014 l 501 1014 l 764 0 l 638 0 l 571 269 l 264 269 l 197 0 l 69 0 m 289 375 l 544 375 l 467 688 q 432 836 444 776 q 417 914 419 896 q 401 836 414 896 q 367 689 389 776 l 289 375 z "},"Ẫ":{"ha":833,"x_min":69,"x_max":764,"o":"m 524 1278 q 451 1288 481 1278 q 401 1310 422 1297 q 362 1333 381 1324 q 319 1343 343 1343 q 290 1332 301 1343 q 278 1301 278 1321 l 278 1292 l 188 1292 l 188 1301 q 222 1385 188 1354 q 313 1417 256 1417 q 385 1407 357 1417 q 434 1384 414 1397 q 472 1361 454 1371 q 514 1351 490 1351 q 544 1363 533 1351 q 556 1393 556 1375 l 556 1403 l 646 1403 l 646 1393 q 613 1309 646 1340 q 524 1278 581 1278 m 167 1083 l 328 1236 l 506 1236 l 667 1083 l 526 1083 l 417 1185 l 304 1083 l 167 1083 m 69 0 l 333 1014 l 501 1014 l 764 0 l 638 0 l 571 269 l 264 269 l 197 0 l 69 0 m 289 375 l 544 375 l 467 688 q 432 836 444 776 q 417 914 419 896 q 401 836 414 896 q 367 689 389 776 l 289 375 z "},"Ä":{"ha":833,"x_min":69,"x_max":764,"o":"m 69 0 l 333 1014 l 501 1014 l 764 0 l 638 0 l 571 269 l 264 269 l 197 0 l 69 0 m 289 375 l 544 375 l 467 688 q 432 836 444 776 q 417 914 419 896 q 401 836 414 896 q 367 689 389 776 l 289 375 m 571 1135 q 506 1158 531 1135 q 482 1222 482 1182 q 506 1288 482 1264 q 571 1313 531 1313 q 635 1288 611 1313 q 660 1222 660 1264 q 635 1158 660 1182 q 571 1135 611 1135 m 263 1135 q 198 1158 222 1135 q 174 1222 174 1182 q 198 1288 174 1264 q 263 1313 222 1313 q 327 1288 303 1313 q 351 1222 351 1264 q 327 1158 351 1182 q 263 1135 303 1135 z "},"Ạ":{"ha":833,"x_min":69,"x_max":764,"o":"m 69 0 l 333 1014 l 501 1014 l 764 0 l 638 0 l 571 269 l 264 269 l 197 0 l 69 0 m 289 375 l 544 375 l 467 688 q 432 836 444 776 q 417 914 419 896 q 401 836 414 896 q 367 689 389 776 l 289 375 m 431 -296 q 358 -272 385 -296 q 332 -208 332 -249 q 358 -142 332 -167 q 431 -118 385 -118 q 503 -142 476 -118 q 529 -208 529 -167 q 503 -272 529 -249 q 431 -296 476 -296 z "},"À":{"ha":833,"x_min":69,"x_max":764,"o":"m 69 0 l 333 1014 l 501 1014 l 764 0 l 638 0 l 571 269 l 264 269 l 197 0 l 69 0 m 289 375 l 544 375 l 467 688 q 432 836 444 776 q 417 914 419 896 q 401 836 414 896 q 367 689 389 776 l 289 375 m 371 1125 l 211 1319 l 350 1319 l 503 1125 l 371 1125 z "},"Ả":{"ha":833,"x_min":69,"x_max":764,"o":"m 69 0 l 333 1014 l 501 1014 l 764 0 l 638 0 l 571 269 l 264 269 l 197 0 l 69 0 m 289 375 l 544 375 l 467 688 q 432 836 444 776 q 417 914 419 896 q 401 836 414 896 q 367 689 389 776 l 289 375 m 383 1132 l 453 1219 q 472 1264 472 1246 q 428 1292 472 1292 l 317 1292 l 317 1382 l 463 1382 q 548 1355 515 1382 q 581 1279 581 1328 q 557 1204 581 1235 l 501 1132 l 383 1132 z "},"Ā":{"ha":833,"x_min":69,"x_max":764,"o":"m 69 0 l 333 1014 l 501 1014 l 764 0 l 638 0 l 571 269 l 264 269 l 197 0 l 69 0 m 289 375 l 544 375 l 467 688 q 432 836 444 776 q 417 914 419 896 q 401 836 414 896 q 367 689 389 776 l 289 375 m 194 1167 l 194 1271 l 639 1271 l 639 1167 l 194 1167 z "},"Ą":{"ha":833,"x_min":69,"x_max":813,"o":"m 704 -282 q 581 -245 628 -282 q 535 -153 535 -208 q 561 -72 535 -112 q 653 14 588 -32 l 757 14 l 742 1 q 674 -69 694 -37 q 653 -129 653 -100 q 674 -179 653 -160 q 729 -199 694 -199 l 813 -199 l 813 -282 l 704 -282 m 69 0 l 333 1014 l 501 1014 l 764 0 l 638 0 l 571 269 l 264 269 l 197 0 l 69 0 m 289 375 l 544 375 l 467 688 q 432 836 444 776 q 417 914 419 896 q 401 836 414 896 q 367 689 389 776 l 289 375 z "},"Å":{"ha":833,"x_min":69,"x_max":764,"o":"m 69 0 l 333 1014 l 501 1014 l 764 0 l 638 0 l 571 269 l 264 269 l 197 0 l 69 0 m 289 375 l 544 375 l 467 688 q 432 836 444 776 q 417 914 419 896 q 401 836 414 896 q 367 689 389 776 l 289 375 m 417 1064 q 296 1108 342 1064 q 250 1222 250 1151 q 296 1337 250 1293 q 417 1381 342 1381 q 538 1337 492 1381 q 583 1222 583 1293 q 538 1108 583 1151 q 417 1064 492 1064 m 417 1138 q 477 1160 454 1138 q 500 1222 500 1183 q 477 1285 500 1261 q 417 1308 454 1308 q 356 1285 379 1308 q 333 1222 333 1261 q 356 1160 333 1183 q 417 1138 379 1138 z "},"Ã":{"ha":833,"x_min":69,"x_max":764,"o":"m 69 0 l 333 1014 l 501 1014 l 764 0 l 638 0 l 571 269 l 264 269 l 197 0 l 69 0 m 289 375 l 544 375 l 467 688 q 432 836 444 776 q 417 914 419 896 q 401 836 414 896 q 367 689 389 776 l 289 375 m 514 1132 q 446 1147 472 1132 q 401 1181 419 1161 q 367 1215 383 1200 q 326 1229 350 1229 q 297 1217 308 1229 q 285 1181 285 1206 l 285 1139 l 194 1139 l 194 1181 q 229 1278 194 1243 q 319 1313 264 1313 q 388 1298 361 1313 q 432 1264 414 1283 q 467 1230 450 1244 q 507 1215 483 1215 q 538 1227 526 1215 q 549 1264 549 1239 l 549 1306 l 639 1306 l 639 1264 q 605 1167 639 1201 q 514 1132 571 1132 z "},"Æ":{"ha":833,"x_min":42,"x_max":792,"o":"m 42 0 l 243 1014 l 792 1014 l 792 900 l 539 900 l 539 583 l 757 583 l 757 469 l 539 469 l 539 114 l 792 114 l 792 0 l 419 0 l 419 282 l 224 282 l 168 0 l 42 0 m 243 386 l 419 386 l 419 900 l 342 900 l 243 386 z "},"Ǽ":{"ha":833,"x_min":42,"x_max":792,"o":"m 42 0 l 243 1014 l 792 1014 l 792 900 l 539 900 l 539 583 l 757 583 l 757 469 l 539 469 l 539 114 l 792 114 l 792 0 l 419 0 l 419 282 l 224 282 l 168 0 l 42 0 m 243 386 l 419 386 l 419 900 l 342 900 l 243 386 m 343 1125 l 490 1319 l 625 1319 l 471 1125 l 343 1125 z "},"B":{"ha":833,"x_min":129,"x_max":736,"o":"m 129 0 l 129 1014 l 417 1014 q 634 944 556 1014 q 713 751 713 875 q 683 631 713 682 q 601 551 654 579 q 472 525 547 524 l 472 546 q 612 515 553 547 q 703 424 671 483 q 736 282 736 364 q 700 132 736 196 q 597 34 664 68 q 438 0 531 0 l 129 0 m 251 113 l 424 113 q 562 159 511 113 q 613 286 613 206 q 562 422 613 369 q 424 474 511 474 l 251 474 l 251 113 m 251 582 l 415 582 q 542 625 496 582 q 589 742 589 668 q 543 858 589 815 q 417 901 497 901 l 251 901 l 251 582 z "},"C":{"ha":833,"x_min":122,"x_max":719,"o":"m 422 -14 q 263 21 331 -14 q 159 122 196 56 q 122 278 122 188 l 122 736 q 159 893 122 828 q 263 993 196 958 q 422 1028 331 1028 q 581 992 514 1028 q 683 892 647 957 q 719 736 719 826 l 594 736 q 549 869 594 822 q 422 915 504 915 q 294 869 340 915 q 247 738 247 824 l 247 278 q 294 145 247 192 q 422 99 340 99 q 549 145 504 99 q 594 278 594 192 l 719 278 q 683 123 719 189 q 581 22 647 57 q 422 -14 514 -14 z "},"Ć":{"ha":833,"x_min":122,"x_max":719,"o":"m 422 -14 q 263 21 331 -14 q 159 122 196 56 q 122 278 122 188 l 122 736 q 159 893 122 828 q 263 993 196 958 q 422 1028 331 1028 q 581 992 514 1028 q 683 892 647 957 q 719 736 719 826 l 594 736 q 549 869 594 822 q 422 915 504 915 q 294 869 340 915 q 247 738 247 824 l 247 278 q 294 145 247 192 q 422 99 340 99 q 549 145 504 99 q 594 278 594 192 l 719 278 q 683 123 719 189 q 581 22 647 57 q 422 -14 514 -14 m 343 1125 l 490 1319 l 625 1319 l 471 1125 l 343 1125 z "},"Č":{"ha":833,"x_min":122,"x_max":719,"o":"m 422 -14 q 263 21 331 -14 q 159 122 196 56 q 122 278 122 188 l 122 736 q 159 893 122 828 q 263 993 196 958 q 422 1028 331 1028 q 581 992 514 1028 q 683 892 647 957 q 719 736 719 826 l 594 736 q 549 869 594 822 q 422 915 504 915 q 294 869 340 915 q 247 738 247 824 l 247 278 q 294 145 247 192 q 422 99 340 99 q 549 145 504 99 q 594 278 594 192 l 719 278 q 683 123 719 189 q 581 22 647 57 q 422 -14 514 -14 m 367 1125 l 172 1319 l 310 1319 l 424 1211 l 535 1319 l 675 1319 l 482 1125 l 367 1125 z "},"Ç":{"ha":833,"x_min":122,"x_max":719,"o":"m 292 -282 l 292 -206 l 389 -206 q 438 -190 419 -206 q 457 -156 457 -174 q 419 -114 457 -132 q 311 -96 381 -96 l 360 36 l 439 36 l 410 -49 q 485 -67 446 -53 q 550 -106 524 -81 q 576 -167 576 -131 q 531 -248 576 -214 q 410 -282 485 -282 l 292 -282 m 422 -14 q 263 21 331 -14 q 159 122 196 56 q 122 278 122 188 l 122 736 q 159 893 122 828 q 263 993 196 958 q 422 1028 331 1028 q 581 992 514 1028 q 683 892 647 957 q 719 736 719 826 l 594 736 q 549 869 594 822 q 422 915 504 915 q 294 869 340 915 q 247 738 247 824 l 247 278 q 294 145 247 192 q 422 99 340 99 q 549 145 504 99 q 594 278 594 192 l 719 278 q 683 123 719 189 q 581 22 647 57 q 422 -14 514 -14 z "},"Ĉ":{"ha":833,"x_min":122,"x_max":719,"o":"m 422 -14 q 263 21 331 -14 q 159 122 196 56 q 122 278 122 188 l 122 736 q 159 893 122 828 q 263 993 196 958 q 422 1028 331 1028 q 581 992 514 1028 q 683 892 647 957 q 719 736 719 826 l 594 736 q 549 869 594 822 q 422 915 504 915 q 294 869 340 915 q 247 738 247 824 l 247 278 q 294 145 247 192 q 422 99 340 99 q 549 145 504 99 q 594 278 594 192 l 719 278 q 683 123 719 189 q 581 22 647 57 q 422 -14 514 -14 m 172 1125 l 365 1319 l 481 1319 l 675 1125 l 538 1125 l 424 1233 l 313 1125 l 172 1125 z "},"Ċ":{"ha":833,"x_min":122,"x_max":719,"o":"m 422 -14 q 263 21 331 -14 q 159 122 196 56 q 122 278 122 188 l 122 736 q 159 893 122 828 q 263 993 196 958 q 422 1028 331 1028 q 581 992 514 1028 q 683 892 647 957 q 719 736 719 826 l 594 736 q 549 869 594 822 q 422 915 504 915 q 294 869 340 915 q 247 738 247 824 l 247 278 q 294 145 247 192 q 422 99 340 99 q 549 145 504 99 q 594 278 594 192 l 719 278 q 683 123 719 189 q 581 22 647 57 q 422 -14 514 -14 m 424 1133 q 351 1158 378 1133 q 325 1222 325 1182 q 351 1287 325 1263 q 424 1311 378 1311 q 496 1287 469 1311 q 522 1222 522 1263 q 496 1158 522 1182 q 424 1133 469 1133 z "},"D":{"ha":833,"x_min":128,"x_max":711,"o":"m 128 0 l 128 1014 l 390 1014 q 560 976 489 1014 q 672 871 632 939 q 711 710 711 803 l 711 306 q 672 144 711 213 q 560 38 632 75 q 390 0 489 0 l 128 0 m 253 111 l 390 111 q 534 163 482 111 q 586 306 586 214 l 586 710 q 534 851 586 800 q 390 903 482 903 l 253 903 l 253 111 z "},"Ð":{"ha":833,"x_min":14,"x_max":711,"o":"m 14 465 l 14 569 l 403 569 l 403 465 l 14 465 m 128 0 l 128 1014 l 390 1014 q 560 976 489 1014 q 672 871 632 939 q 711 710 711 803 l 711 306 q 672 144 711 213 q 560 38 632 75 q 390 0 489 0 l 128 0 m 253 111 l 390 111 q 534 163 482 111 q 586 306 586 214 l 586 710 q 534 851 586 800 q 390 903 482 903 l 253 903 l 253 111 z "},"Ď":{"ha":833,"x_min":128,"x_max":711,"o":"m 128 0 l 128 1014 l 390 1014 q 560 976 489 1014 q 672 871 632 939 q 711 710 711 803 l 711 306 q 672 144 711 213 q 560 38 632 75 q 390 0 489 0 l 128 0 m 253 111 l 390 111 q 534 163 482 111 q 586 306 586 214 l 586 710 q 534 851 586 800 q 390 903 482 903 l 253 903 l 253 111 m 360 1125 l 165 1319 l 303 1319 l 417 1211 l 528 1319 l 668 1319 l 475 1125 l 360 1125 z "},"Đ":{"ha":833,"x_min":14,"x_max":711,"o":"m 14 465 l 14 569 l 403 569 l 403 465 l 14 465 m 128 0 l 128 1014 l 390 1014 q 560 976 489 1014 q 672 871 632 939 q 711 710 711 803 l 711 306 q 672 144 711 213 q 560 38 632 75 q 390 0 489 0 l 128 0 m 253 111 l 390 111 q 534 163 482 111 q 586 306 586 214 l 586 710 q 534 851 586 800 q 390 903 482 903 l 253 903 l 253 111 z "},"E":{"ha":833,"x_min":139,"x_max":722,"o":"m 139 0 l 139 1014 l 722 1014 l 722 900 l 263 900 l 263 586 l 674 586 l 674 474 l 263 474 l 263 114 l 722 114 l 722 0 l 139 0 z "},"É":{"ha":833,"x_min":139,"x_max":722,"o":"m 139 0 l 139 1014 l 722 1014 l 722 900 l 263 900 l 263 586 l 674 586 l 674 474 l 263 474 l 263 114 l 722 114 l 722 0 l 139 0 m 364 1125 l 511 1319 l 646 1319 l 492 1125 l 364 1125 z "},"Ĕ":{"ha":833,"x_min":139,"x_max":722,"o":"m 139 0 l 139 1014 l 722 1014 l 722 900 l 263 900 l 263 586 l 674 586 l 674 474 l 263 474 l 263 114 l 722 114 l 722 0 l 139 0 m 444 1118 q 283 1174 344 1118 q 222 1319 222 1229 l 321 1319 q 354 1232 321 1265 q 443 1199 388 1199 q 534 1232 500 1199 q 568 1319 568 1265 l 667 1319 q 606 1174 667 1229 q 444 1118 544 1118 z "},"Ě":{"ha":833,"x_min":139,"x_max":722,"o":"m 139 0 l 139 1014 l 722 1014 l 722 900 l 263 900 l 263 586 l 674 586 l 674 474 l 263 474 l 263 114 l 722 114 l 722 0 l 139 0 m 388 1125 l 193 1319 l 331 1319 l 444 1211 l 556 1319 l 696 1319 l 503 1125 l 388 1125 z "},"Ê":{"ha":833,"x_min":139,"x_max":722,"o":"m 139 0 l 139 1014 l 722 1014 l 722 900 l 263 900 l 263 586 l 674 586 l 674 474 l 263 474 l 263 114 l 722 114 l 722 0 l 139 0 m 193 1125 l 386 1319 l 501 1319 l 696 1125 l 558 1125 l 444 1233 l 333 1125 l 193 1125 z "},"Ế":{"ha":833,"x_min":139,"x_max":854,"o":"m 139 0 l 139 1014 l 722 1014 l 722 900 l 263 900 l 263 586 l 674 586 l 674 474 l 263 474 l 263 114 l 722 114 l 722 0 l 139 0 m 567 1250 l 713 1417 l 854 1417 l 701 1250 l 567 1250 m 167 1083 l 358 1278 l 475 1278 l 668 1083 l 528 1083 l 417 1192 l 304 1083 l 167 1083 z "},"Ệ":{"ha":833,"x_min":139,"x_max":722,"o":"m 165 1125 l 358 1319 l 474 1319 l 668 1125 l 531 1125 l 417 1233 l 306 1125 l 165 1125 m 139 0 l 139 1014 l 722 1014 l 722 900 l 263 900 l 263 586 l 674 586 l 674 474 l 263 474 l 263 114 l 722 114 l 722 0 l 139 0 m 444 -296 q 372 -272 399 -296 q 346 -208 346 -249 q 372 -142 346 -167 q 444 -118 399 -118 q 517 -142 490 -118 q 543 -208 543 -167 q 517 -272 543 -249 q 444 -296 490 -296 z "},"Ề":{"ha":833,"x_min":139,"x_max":750,"o":"m 139 0 l 139 1014 l 722 1014 l 722 900 l 263 900 l 263 586 l 674 586 l 674 474 l 263 474 l 263 114 l 722 114 l 722 0 l 139 0 m 618 1250 l 451 1417 l 590 1417 l 750 1250 l 618 1250 m 167 1083 l 358 1278 l 475 1278 l 668 1083 l 528 1083 l 417 1192 l 304 1083 l 167 1083 z "},"Ể":{"ha":833,"x_min":139,"x_max":764,"o":"m 139 0 l 139 1014 l 722 1014 l 722 900 l 263 900 l 263 586 l 674 586 l 674 474 l 263 474 l 263 114 l 722 114 l 722 0 l 139 0 m 583 1222 l 650 1288 q 661 1314 661 1299 q 640 1336 661 1336 l 549 1336 l 549 1417 l 667 1417 q 738 1393 711 1417 q 764 1331 764 1369 q 758 1297 764 1313 q 742 1269 753 1281 l 692 1222 l 583 1222 m 167 1083 l 358 1278 l 475 1278 l 668 1083 l 528 1083 l 417 1192 l 304 1083 l 167 1083 z "},"Ễ":{"ha":833,"x_min":139,"x_max":722,"o":"m 139 0 l 139 1014 l 722 1014 l 722 900 l 263 900 l 263 586 l 674 586 l 674 474 l 263 474 l 263 114 l 722 114 l 722 0 l 139 0 m 524 1278 q 451 1288 481 1278 q 401 1310 422 1297 q 362 1333 381 1324 q 319 1343 343 1343 q 290 1332 301 1343 q 278 1301 278 1321 l 278 1292 l 188 1292 l 188 1301 q 222 1385 188 1354 q 313 1417 256 1417 q 385 1407 357 1417 q 434 1384 414 1397 q 472 1361 454 1371 q 514 1351 490 1351 q 544 1363 533 1351 q 556 1393 556 1375 l 556 1403 l 646 1403 l 646 1393 q 613 1309 646 1340 q 524 1278 581 1278 m 167 1083 l 328 1236 l 506 1236 l 667 1083 l 526 1083 l 417 1185 l 304 1083 l 167 1083 z "},"Ë":{"ha":833,"x_min":139,"x_max":722,"o":"m 139 0 l 139 1014 l 722 1014 l 722 900 l 263 900 l 263 586 l 674 586 l 674 474 l 263 474 l 263 114 l 722 114 l 722 0 l 139 0 m 599 1135 q 534 1158 558 1135 q 510 1222 510 1182 q 534 1288 510 1264 q 599 1313 558 1313 q 663 1288 639 1313 q 688 1222 688 1264 q 663 1158 688 1182 q 599 1135 639 1135 m 290 1135 q 226 1158 250 1135 q 201 1222 201 1182 q 226 1288 201 1264 q 290 1313 250 1313 q 355 1288 331 1313 q 379 1222 379 1264 q 355 1158 379 1182 q 290 1135 331 1135 z "},"Ė":{"ha":833,"x_min":139,"x_max":722,"o":"m 139 0 l 139 1014 l 722 1014 l 722 900 l 263 900 l 263 586 l 674 586 l 674 474 l 263 474 l 263 114 l 722 114 l 722 0 l 139 0 m 444 1133 q 372 1158 399 1133 q 346 1222 346 1182 q 372 1287 346 1263 q 444 1311 399 1311 q 517 1287 490 1311 q 543 1222 543 1263 q 517 1158 543 1182 q 444 1133 490 1133 z "},"Ẹ":{"ha":833,"x_min":139,"x_max":722,"o":"m 139 0 l 139 1014 l 722 1014 l 722 900 l 263 900 l 263 586 l 674 586 l 674 474 l 263 474 l 263 114 l 722 114 l 722 0 l 139 0 m 444 -296 q 372 -272 399 -296 q 346 -208 346 -249 q 372 -142 346 -167 q 444 -118 399 -118 q 517 -142 490 -118 q 543 -208 543 -167 q 517 -272 543 -249 q 444 -296 490 -296 z "},"È":{"ha":833,"x_min":139,"x_max":722,"o":"m 139 0 l 139 1014 l 722 1014 l 722 900 l 263 900 l 263 586 l 674 586 l 674 474 l 263 474 l 263 114 l 722 114 l 722 0 l 139 0 m 399 1125 l 239 1319 l 378 1319 l 531 1125 l 399 1125 z "},"Ẻ":{"ha":833,"x_min":139,"x_max":722,"o":"m 139 0 l 139 1014 l 722 1014 l 722 900 l 263 900 l 263 586 l 674 586 l 674 474 l 263 474 l 263 114 l 722 114 l 722 0 l 139 0 m 358 1111 l 421 1199 q 440 1243 440 1226 q 396 1271 440 1271 l 292 1271 l 292 1361 l 403 1361 q 508 1333 468 1361 q 549 1257 549 1304 q 525 1183 549 1218 l 476 1111 l 358 1111 z "},"Ē":{"ha":833,"x_min":139,"x_max":722,"o":"m 139 0 l 139 1014 l 722 1014 l 722 900 l 263 900 l 263 586 l 674 586 l 674 474 l 263 474 l 263 114 l 722 114 l 722 0 l 139 0 m 222 1167 l 222 1271 l 667 1271 l 667 1167 l 222 1167 z "},"Ę":{"ha":833,"x_min":139,"x_max":729,"o":"m 621 -282 q 498 -245 544 -282 q 451 -153 451 -208 q 478 -72 451 -112 q 569 14 504 -32 l 674 14 l 658 1 q 590 -69 611 -37 q 569 -129 569 -100 q 590 -179 569 -160 q 646 -199 611 -199 l 729 -199 l 729 -282 l 621 -282 m 139 0 l 139 1014 l 722 1014 l 722 900 l 263 900 l 263 586 l 674 586 l 674 474 l 263 474 l 263 114 l 722 114 l 722 0 l 139 0 z "},"Ẽ":{"ha":833,"x_min":139,"x_max":722,"o":"m 139 0 l 139 1014 l 722 1014 l 722 900 l 263 900 l 263 586 l 674 586 l 674 474 l 263 474 l 263 114 l 722 114 l 722 0 l 139 0 m 542 1132 q 474 1147 500 1132 q 429 1181 447 1161 q 394 1215 411 1200 q 354 1229 378 1229 q 324 1217 336 1229 q 313 1181 313 1206 l 313 1139 l 222 1139 l 222 1181 q 257 1278 222 1243 q 347 1313 292 1313 q 415 1298 389 1313 q 460 1264 442 1283 q 494 1230 478 1244 q 535 1215 511 1215 q 565 1227 554 1215 q 576 1264 576 1239 l 576 1306 l 667 1306 l 667 1264 q 633 1167 667 1201 q 542 1132 599 1132 z "},"F":{"ha":833,"x_min":132,"x_max":729,"o":"m 132 0 l 132 1015 l 729 1015 l 729 901 l 254 901 l 254 564 l 693 564 l 693 450 l 257 450 l 257 0 l 132 0 z "},"G":{"ha":833,"x_min":122,"x_max":719,"o":"m 422 -14 q 263 21 331 -14 q 159 122 196 56 q 122 278 122 188 l 122 736 q 159 893 122 828 q 263 993 196 958 q 422 1028 331 1028 q 581 992 514 1028 q 683 892 647 957 q 719 736 719 826 l 594 736 q 549 869 594 822 q 422 915 504 915 q 294 869 340 915 q 247 738 247 824 l 247 278 q 294 144 247 192 q 422 97 340 97 q 549 144 504 97 q 594 278 594 192 l 594 403 l 389 403 l 389 517 l 719 517 l 719 278 q 683 123 719 189 q 581 22 647 57 q 422 -14 514 -14 z "},"Ǵ":{"ha":833,"x_min":122,"x_max":719,"o":"m 422 -14 q 263 21 331 -14 q 159 122 196 56 q 122 278 122 188 l 122 736 q 159 893 122 828 q 263 993 196 958 q 422 1028 331 1028 q 581 992 514 1028 q 683 892 647 957 q 719 736 719 826 l 594 736 q 549 869 594 822 q 422 915 504 915 q 294 869 340 915 q 247 738 247 824 l 247 278 q 294 144 247 192 q 422 97 340 97 q 549 144 504 97 q 594 278 594 192 l 594 403 l 389 403 l 389 517 l 719 517 l 719 278 q 683 123 719 189 q 581 22 647 57 q 422 -14 514 -14 m 336 1125 l 483 1319 l 618 1319 l 464 1125 l 336 1125 z "},"Ğ":{"ha":833,"x_min":122,"x_max":719,"o":"m 422 -14 q 263 21 331 -14 q 159 122 196 56 q 122 278 122 188 l 122 736 q 159 893 122 828 q 263 993 196 958 q 422 1028 331 1028 q 581 992 514 1028 q 683 892 647 957 q 719 736 719 826 l 594 736 q 549 869 594 822 q 422 915 504 915 q 294 869 340 915 q 247 738 247 824 l 247 278 q 294 144 247 192 q 422 97 340 97 q 549 144 504 97 q 594 278 594 192 l 594 403 l 389 403 l 389 517 l 719 517 l 719 278 q 683 123 719 189 q 581 22 647 57 q 422 -14 514 -14 m 417 1118 q 256 1174 317 1118 q 194 1319 194 1229 l 293 1319 q 326 1232 293 1265 q 415 1199 360 1199 q 506 1232 472 1199 q 540 1319 540 1265 l 639 1319 q 578 1174 639 1229 q 417 1118 517 1118 z "},"Ǧ":{"ha":833,"x_min":122,"x_max":719,"o":"m 422 -14 q 263 21 331 -14 q 159 122 196 56 q 122 278 122 188 l 122 736 q 159 893 122 828 q 263 993 196 958 q 422 1028 331 1028 q 581 992 514 1028 q 683 892 647 957 q 719 736 719 826 l 594 736 q 549 869 594 822 q 422 915 504 915 q 294 869 340 915 q 247 738 247 824 l 247 278 q 294 144 247 192 q 422 97 340 97 q 549 144 504 97 q 594 278 594 192 l 594 403 l 389 403 l 389 517 l 719 517 l 719 278 q 683 123 719 189 q 581 22 647 57 q 422 -14 514 -14 m 360 1125 l 165 1319 l 303 1319 l 417 1211 l 528 1319 l 668 1319 l 475 1125 l 360 1125 z "},"Ĝ":{"ha":833,"x_min":122,"x_max":719,"o":"m 422 -14 q 263 21 331 -14 q 159 122 196 56 q 122 278 122 188 l 122 736 q 159 893 122 828 q 263 993 196 958 q 422 1028 331 1028 q 581 992 514 1028 q 683 892 647 957 q 719 736 719 826 l 594 736 q 549 869 594 822 q 422 915 504 915 q 294 869 340 915 q 247 738 247 824 l 247 278 q 294 144 247 192 q 422 97 340 97 q 549 144 504 97 q 594 278 594 192 l 594 403 l 389 403 l 389 517 l 719 517 l 719 278 q 683 123 719 189 q 581 22 647 57 q 422 -14 514 -14 m 165 1125 l 358 1319 l 474 1319 l 668 1125 l 531 1125 l 417 1233 l 306 1125 l 165 1125 z "},"Ģ":{"ha":833,"x_min":122,"x_max":719,"o":"m 422 -14 q 263 21 331 -14 q 159 122 196 56 q 122 278 122 188 l 122 736 q 159 893 122 828 q 263 993 196 958 q 422 1028 331 1028 q 581 992 514 1028 q 683 892 647 957 q 719 736 719 826 l 594 736 q 549 869 594 822 q 422 915 504 915 q 294 869 340 915 q 247 738 247 824 l 247 278 q 294 144 247 192 q 422 97 340 97 q 549 144 504 97 q 594 278 594 192 l 594 403 l 389 403 l 389 517 l 719 517 l 719 278 q 683 123 719 189 q 581 22 647 57 q 422 -14 514 -14 m 269 -333 l 401 -132 l 547 -132 l 401 -333 l 269 -333 z "},"Ġ":{"ha":833,"x_min":122,"x_max":719,"o":"m 422 -14 q 263 21 331 -14 q 159 122 196 56 q 122 278 122 188 l 122 736 q 159 893 122 828 q 263 993 196 958 q 422 1028 331 1028 q 581 992 514 1028 q 683 892 647 957 q 719 736 719 826 l 594 736 q 549 869 594 822 q 422 915 504 915 q 294 869 340 915 q 247 738 247 824 l 247 278 q 294 144 247 192 q 422 97 340 97 q 549 144 504 97 q 594 278 594 192 l 594 403 l 389 403 l 389 517 l 719 517 l 719 278 q 683 123 719 189 q 581 22 647 57 q 422 -14 514 -14 m 417 1133 q 344 1158 371 1133 q 318 1222 318 1182 q 344 1287 318 1263 q 417 1311 371 1311 q 489 1287 463 1311 q 515 1222 515 1263 q 489 1158 515 1182 q 417 1133 463 1133 z "},"H":{"ha":833,"x_min":129,"x_max":704,"o":"m 129 0 l 129 1014 l 254 1014 l 254 581 l 579 581 l 579 1014 l 704 1014 l 704 0 l 579 0 l 579 467 l 254 467 l 254 0 l 129 0 z "},"Ħ":{"ha":833,"x_min":14,"x_max":819,"o":"m 14 729 l 14 833 l 819 833 l 819 729 l 14 729 m 129 0 l 129 1014 l 254 1014 l 254 581 l 579 581 l 579 1014 l 704 1014 l 704 0 l 579 0 l 579 467 l 254 467 l 254 0 l 129 0 z "},"Ĥ":{"ha":833,"x_min":129,"x_max":704,"o":"m 129 0 l 129 1014 l 254 1014 l 254 581 l 579 581 l 579 1014 l 704 1014 l 704 0 l 579 0 l 579 467 l 254 467 l 254 0 l 129 0 m 165 1125 l 358 1319 l 474 1319 l 668 1125 l 531 1125 l 417 1233 l 306 1125 l 165 1125 z "},"I":{"ha":833,"x_min":146,"x_max":688,"o":"m 146 0 l 146 114 l 353 114 l 353 900 l 146 900 l 146 1014 l 688 1014 l 688 900 l 481 900 l 481 114 l 688 114 l 688 0 l 146 0 z "},"Í":{"ha":833,"x_min":146,"x_max":688,"o":"m 146 0 l 146 114 l 353 114 l 353 900 l 146 900 l 146 1014 l 688 1014 l 688 900 l 481 900 l 481 114 l 688 114 l 688 0 l 146 0 m 336 1125 l 483 1319 l 618 1319 l 464 1125 l 336 1125 z "},"Ĭ":{"ha":833,"x_min":146,"x_max":688,"o":"m 146 0 l 146 114 l 353 114 l 353 900 l 146 900 l 146 1014 l 688 1014 l 688 900 l 481 900 l 481 114 l 688 114 l 688 0 l 146 0 m 417 1118 q 256 1174 317 1118 q 194 1319 194 1229 l 293 1319 q 326 1232 293 1265 q 415 1199 360 1199 q 506 1232 472 1199 q 540 1319 540 1265 l 639 1319 q 578 1174 639 1229 q 417 1118 517 1118 z "},"Î":{"ha":833,"x_min":146,"x_max":688,"o":"m 146 0 l 146 114 l 353 114 l 353 900 l 146 900 l 146 1014 l 688 1014 l 688 900 l 481 900 l 481 114 l 688 114 l 688 0 l 146 0 m 165 1125 l 358 1319 l 474 1319 l 668 1125 l 531 1125 l 417 1233 l 306 1125 l 165 1125 z "},"Ï":{"ha":833,"x_min":146,"x_max":688,"o":"m 146 0 l 146 114 l 353 114 l 353 900 l 146 900 l 146 1014 l 688 1014 l 688 900 l 481 900 l 481 114 l 688 114 l 688 0 l 146 0 m 571 1135 q 506 1158 531 1135 q 482 1222 482 1182 q 506 1288 482 1264 q 571 1313 531 1313 q 635 1288 611 1313 q 660 1222 660 1264 q 635 1158 660 1182 q 571 1135 611 1135 m 263 1135 q 198 1158 222 1135 q 174 1222 174 1182 q 198 1288 174 1264 q 263 1313 222 1313 q 327 1288 303 1313 q 351 1222 351 1264 q 327 1158 351 1182 q 263 1135 303 1135 z "},"İ":{"ha":833,"x_min":146,"x_max":688,"o":"m 146 0 l 146 114 l 353 114 l 353 900 l 146 900 l 146 1014 l 688 1014 l 688 900 l 481 900 l 481 114 l 688 114 l 688 0 l 146 0 m 417 1133 q 344 1158 371 1133 q 318 1222 318 1182 q 344 1287 318 1263 q 417 1311 371 1311 q 489 1287 463 1311 q 515 1222 515 1263 q 489 1158 515 1182 q 417 1133 463 1133 z "},"Ị":{"ha":833,"x_min":146,"x_max":688,"o":"m 146 0 l 146 114 l 353 114 l 353 900 l 146 900 l 146 1014 l 688 1014 l 688 900 l 481 900 l 481 114 l 688 114 l 688 0 l 146 0 m 417 -296 q 344 -272 371 -296 q 318 -208 318 -249 q 344 -142 318 -167 q 417 -118 371 -118 q 489 -142 463 -118 q 515 -208 515 -167 q 489 -272 515 -249 q 417 -296 463 -296 z "},"Ì":{"ha":833,"x_min":146,"x_max":688,"o":"m 146 0 l 146 114 l 353 114 l 353 900 l 146 900 l 146 1014 l 688 1014 l 688 900 l 481 900 l 481 114 l 688 114 l 688 0 l 146 0 m 371 1125 l 211 1319 l 350 1319 l 503 1125 l 371 1125 z "},"Ỉ":{"ha":833,"x_min":146,"x_max":688,"o":"m 146 0 l 146 114 l 353 114 l 353 900 l 146 900 l 146 1014 l 688 1014 l 688 900 l 481 900 l 481 114 l 688 114 l 688 0 l 146 0 m 383 1111 l 446 1199 q 465 1243 465 1226 q 421 1271 465 1271 l 317 1271 l 317 1361 l 428 1361 q 533 1333 493 1361 q 574 1257 574 1304 q 550 1183 574 1218 l 501 1111 l 383 1111 z "},"Ī":{"ha":833,"x_min":146,"x_max":688,"o":"m 146 0 l 146 114 l 353 114 l 353 900 l 146 900 l 146 1014 l 688 1014 l 688 900 l 481 900 l 481 114 l 688 114 l 688 0 l 146 0 m 194 1167 l 194 1271 l 639 1271 l 639 1167 l 194 1167 z "},"Į":{"ha":833,"x_min":146,"x_max":688,"o":"m 426 -282 q 303 -245 350 -282 q 257 -153 257 -208 q 283 -72 257 -112 q 375 14 310 -32 l 479 14 l 464 1 q 396 -69 417 -37 q 375 -129 375 -100 q 396 -179 375 -160 q 451 -199 417 -199 l 535 -199 l 535 -282 l 426 -282 m 146 0 l 146 114 l 353 114 l 353 900 l 146 900 l 146 1014 l 688 1014 l 688 900 l 481 900 l 481 114 l 688 114 l 688 0 l 146 0 z "},"Ĩ":{"ha":833,"x_min":146,"x_max":688,"o":"m 146 0 l 146 114 l 353 114 l 353 900 l 146 900 l 146 1014 l 688 1014 l 688 900 l 481 900 l 481 114 l 688 114 l 688 0 l 146 0 m 514 1132 q 446 1147 472 1132 q 401 1181 419 1161 q 367 1215 383 1200 q 326 1229 350 1229 q 297 1217 308 1229 q 285 1181 285 1206 l 285 1139 l 194 1139 l 194 1181 q 229 1278 194 1243 q 319 1313 264 1313 q 388 1298 361 1313 q 432 1264 414 1283 q 467 1230 450 1244 q 507 1215 483 1215 q 538 1227 526 1215 q 549 1264 549 1239 l 549 1306 l 639 1306 l 639 1264 q 605 1167 639 1201 q 514 1132 571 1132 z "},"J":{"ha":833,"x_min":63,"x_max":688,"o":"m 375 -14 q 146 68 229 -14 q 63 292 63 150 l 188 292 q 237 148 188 199 q 375 97 286 97 q 513 148 464 97 q 563 292 563 199 l 563 900 l 319 900 l 319 1014 l 688 1014 l 688 292 q 603 68 688 150 q 375 -14 519 -14 z "},"Ĵ":{"ha":833,"x_min":63,"x_max":751,"o":"m 375 -14 q 146 68 229 -14 q 63 292 63 150 l 188 292 q 237 148 188 199 q 375 97 286 97 q 513 148 464 97 q 563 292 563 199 l 563 900 l 319 900 l 319 1014 l 688 1014 l 688 292 q 603 68 688 150 q 375 -14 519 -14 m 249 1125 l 442 1319 l 557 1319 l 751 1125 l 614 1125 l 500 1233 l 389 1125 l 249 1125 z "},"K":{"ha":833,"x_min":128,"x_max":778,"o":"m 128 0 l 128 1014 l 253 1014 l 253 579 l 403 579 l 628 1014 l 764 1014 l 513 526 l 778 0 l 635 0 l 399 469 l 253 469 l 253 0 l 128 0 z "},"Ķ":{"ha":833,"x_min":128,"x_max":778,"o":"m 128 0 l 128 1014 l 253 1014 l 253 579 l 403 579 l 628 1014 l 764 1014 l 513 526 l 778 0 l 635 0 l 399 469 l 253 469 l 253 0 l 128 0 m 264 -333 l 396 -132 l 542 -132 l 396 -333 l 264 -333 z "},"L":{"ha":833,"x_min":160,"x_max":743,"o":"m 160 0 l 160 1014 l 285 1014 l 285 114 l 743 114 l 743 0 l 160 0 z "},"Ĺ":{"ha":833,"x_min":143,"x_max":743,"o":"m 160 0 l 160 1014 l 285 1014 l 285 114 l 743 114 l 743 0 l 160 0 m 143 1125 l 290 1319 l 425 1319 l 271 1125 l 143 1125 z "},"Ľ":{"ha":833,"x_min":160,"x_max":743,"o":"m 160 0 l 160 1014 l 285 1014 l 285 114 l 743 114 l 743 0 l 160 0 m 494 764 l 508 1014 l 626 1014 l 599 764 l 494 764 z "},"Ļ":{"ha":833,"x_min":160,"x_max":743,"o":"m 160 0 l 160 1014 l 285 1014 l 285 114 l 743 114 l 743 0 l 160 0 m 292 -333 l 424 -132 l 569 -132 l 424 -333 l 292 -333 z "},"Ŀ":{"ha":833,"x_min":160,"x_max":743,"o":"m 160 0 l 160 1014 l 285 1014 l 285 114 l 743 114 l 743 0 l 160 0 z "},"Ł":{"ha":833,"x_min":28,"x_max":743,"o":"m 28 319 l 28 431 l 542 778 l 542 667 l 28 319 m 160 0 l 160 1014 l 285 1014 l 285 114 l 743 114 l 743 0 l 160 0 z "},"M":{"ha":833,"x_min":106,"x_max":728,"o":"m 106 0 l 106 1014 l 269 1014 l 375 686 q 403 598 390 642 q 421 531 415 554 q 439 598 428 554 q 464 688 450 642 l 564 1014 l 728 1014 l 728 0 l 606 0 l 606 368 q 610 507 606 429 q 621 666 614 585 q 635 822 628 747 q 649 951 643 896 l 485 444 l 353 444 l 188 951 q 201 826 194 897 q 214 674 208 754 q 224 515 219 594 q 228 368 228 436 l 228 0 l 106 0 z "},"N":{"ha":833,"x_min":125,"x_max":708,"o":"m 125 0 l 125 1014 l 292 1014 l 601 146 q 595 231 599 181 q 590 338 592 282 q 588 444 588 394 l 588 1014 l 708 1014 l 708 0 l 542 0 l 233 868 q 239 784 236 835 q 244 677 242 733 q 246 569 246 621 l 246 0 l 125 0 z "},"Ń":{"ha":833,"x_min":125,"x_max":708,"o":"m 125 0 l 125 1014 l 292 1014 l 601 146 q 595 231 599 181 q 590 338 592 282 q 588 444 588 394 l 588 1014 l 708 1014 l 708 0 l 542 0 l 233 868 q 239 784 236 835 q 244 677 242 733 q 246 569 246 621 l 246 0 l 125 0 m 336 1125 l 483 1319 l 618 1319 l 464 1125 l 336 1125 z "},"Ň":{"ha":833,"x_min":125,"x_max":708,"o":"m 125 0 l 125 1014 l 292 1014 l 601 146 q 595 231 599 181 q 590 338 592 282 q 588 444 588 394 l 588 1014 l 708 1014 l 708 0 l 542 0 l 233 868 q 239 784 236 835 q 244 677 242 733 q 246 569 246 621 l 246 0 l 125 0 m 360 1125 l 165 1319 l 303 1319 l 417 1211 l 528 1319 l 668 1319 l 475 1125 l 360 1125 z "},"Ņ":{"ha":833,"x_min":125,"x_max":708,"o":"m 125 0 l 125 1014 l 292 1014 l 601 146 q 595 231 599 181 q 590 338 592 282 q 588 444 588 394 l 588 1014 l 708 1014 l 708 0 l 542 0 l 233 868 q 239 784 236 835 q 244 677 242 733 q 246 569 246 621 l 246 0 l 125 0 m 264 -333 l 396 -132 l 542 -132 l 396 -333 l 264 -333 z "},"Ŋ":{"ha":833,"x_min":125,"x_max":708,"o":"m 333 -250 l 333 -136 l 424 -136 q 540 -94 497 -136 q 583 21 583 -51 l 233 868 q 239 784 236 835 q 244 677 242 733 q 246 569 246 621 l 246 0 l 125 0 l 125 1014 l 292 1014 l 601 251 q 595 337 599 286 q 590 444 592 388 q 588 551 588 501 l 588 1014 l 708 1014 l 708 21 q 673 -122 708 -61 q 574 -217 638 -183 q 424 -250 510 -250 l 333 -250 z "},"Ñ":{"ha":833,"x_min":125,"x_max":708,"o":"m 125 0 l 125 1014 l 292 1014 l 601 146 q 595 231 599 181 q 590 338 592 282 q 588 444 588 394 l 588 1014 l 708 1014 l 708 0 l 542 0 l 233 868 q 239 784 236 835 q 244 677 242 733 q 246 569 246 621 l 246 0 l 125 0 m 514 1132 q 446 1147 472 1132 q 401 1181 419 1161 q 367 1215 383 1200 q 326 1229 350 1229 q 297 1217 308 1229 q 285 1181 285 1206 l 285 1139 l 194 1139 l 194 1181 q 229 1278 194 1243 q 319 1313 264 1313 q 388 1298 361 1313 q 432 1264 414 1283 q 467 1230 450 1244 q 507 1215 483 1215 q 538 1227 526 1215 q 549 1264 549 1239 l 549 1306 l 639 1306 l 639 1264 q 605 1167 639 1201 q 514 1132 571 1132 z "},"O":{"ha":833,"x_min":122,"x_max":711,"o":"m 417 -14 q 259 21 325 -14 q 158 122 193 56 q 122 278 122 188 l 122 736 q 158 893 122 828 q 259 993 193 958 q 417 1028 325 1028 q 574 993 508 1028 q 676 893 640 958 q 711 738 711 828 l 711 278 q 676 122 711 188 q 574 21 640 56 q 417 -14 508 -14 m 417 99 q 542 145 499 99 q 586 278 586 192 l 586 736 q 542 869 586 822 q 417 915 499 915 q 292 869 336 915 q 247 736 247 822 l 247 278 q 292 145 247 192 q 417 99 336 99 z "},"Ó":{"ha":833,"x_min":122,"x_max":711,"o":"m 417 -14 q 259 21 325 -14 q 158 122 193 56 q 122 278 122 188 l 122 736 q 158 893 122 828 q 259 993 193 958 q 417 1028 325 1028 q 574 993 508 1028 q 676 893 640 958 q 711 738 711 828 l 711 278 q 676 122 711 188 q 574 21 640 56 q 417 -14 508 -14 m 417 99 q 542 145 499 99 q 586 278 586 192 l 586 736 q 542 869 586 822 q 417 915 499 915 q 292 869 336 915 q 247 736 247 822 l 247 278 q 292 145 247 192 q 417 99 336 99 m 336 1125 l 483 1319 l 618 1319 l 464 1125 l 336 1125 z "},"Ŏ":{"ha":833,"x_min":122,"x_max":711,"o":"m 417 -14 q 259 21 325 -14 q 158 122 193 56 q 122 278 122 188 l 122 736 q 158 893 122 828 q 259 993 193 958 q 417 1028 325 1028 q 574 993 508 1028 q 676 893 640 958 q 711 738 711 828 l 711 278 q 676 122 711 188 q 574 21 640 56 q 417 -14 508 -14 m 417 99 q 542 145 499 99 q 586 278 586 192 l 586 736 q 542 869 586 822 q 417 915 499 915 q 292 869 336 915 q 247 736 247 822 l 247 278 q 292 145 247 192 q 417 99 336 99 m 417 1118 q 256 1174 317 1118 q 194 1319 194 1229 l 293 1319 q 326 1232 293 1265 q 415 1199 360 1199 q 506 1232 472 1199 q 540 1319 540 1265 l 639 1319 q 578 1174 639 1229 q 417 1118 517 1118 z "},"Ô":{"ha":833,"x_min":122,"x_max":711,"o":"m 417 -14 q 259 21 325 -14 q 158 122 193 56 q 122 278 122 188 l 122 736 q 158 893 122 828 q 259 993 193 958 q 417 1028 325 1028 q 574 993 508 1028 q 676 893 640 958 q 711 738 711 828 l 711 278 q 676 122 711 188 q 574 21 640 56 q 417 -14 508 -14 m 417 99 q 542 145 499 99 q 586 278 586 192 l 586 736 q 542 869 586 822 q 417 915 499 915 q 292 869 336 915 q 247 736 247 822 l 247 278 q 292 145 247 192 q 417 99 336 99 m 165 1125 l 358 1319 l 474 1319 l 668 1125 l 531 1125 l 417 1233 l 306 1125 l 165 1125 z "},"Ố":{"ha":833,"x_min":122,"x_max":854,"o":"m 417 -14 q 259 21 325 -14 q 158 122 193 56 q 122 278 122 188 l 122 736 q 158 893 122 828 q 259 993 193 958 q 417 1028 325 1028 q 574 993 508 1028 q 676 893 640 958 q 711 738 711 828 l 711 278 q 676 122 711 188 q 574 21 640 56 q 417 -14 508 -14 m 417 99 q 542 145 499 99 q 586 278 586 192 l 586 736 q 542 869 586 822 q 417 915 499 915 q 292 869 336 915 q 247 736 247 822 l 247 278 q 292 145 247 192 q 417 99 336 99 m 567 1250 l 713 1417 l 854 1417 l 701 1250 l 567 1250 m 167 1083 l 358 1278 l 475 1278 l 668 1083 l 528 1083 l 417 1192 l 304 1083 l 167 1083 z "},"Ộ":{"ha":833,"x_min":122,"x_max":711,"o":"m 165 1125 l 358 1319 l 474 1319 l 668 1125 l 531 1125 l 417 1233 l 306 1125 l 165 1125 m 417 -14 q 259 21 325 -14 q 158 122 193 56 q 122 278 122 188 l 122 736 q 158 893 122 828 q 259 993 193 958 q 417 1028 325 1028 q 574 993 508 1028 q 676 893 640 958 q 711 738 711 828 l 711 278 q 676 122 711 188 q 574 21 640 56 q 417 -14 508 -14 m 417 99 q 542 145 499 99 q 586 278 586 192 l 586 736 q 542 869 586 822 q 417 915 499 915 q 292 869 336 915 q 247 736 247 822 l 247 278 q 292 145 247 192 q 417 99 336 99 m 417 -296 q 344 -272 371 -296 q 318 -208 318 -249 q 344 -142 318 -167 q 417 -118 371 -118 q 489 -142 463 -118 q 515 -208 515 -167 q 489 -272 515 -249 q 417 -296 463 -296 z "},"Ồ":{"ha":833,"x_min":122,"x_max":750,"o":"m 417 -14 q 259 21 325 -14 q 158 122 193 56 q 122 278 122 188 l 122 736 q 158 893 122 828 q 259 993 193 958 q 417 1028 325 1028 q 574 993 508 1028 q 676 893 640 958 q 711 738 711 828 l 711 278 q 676 122 711 188 q 574 21 640 56 q 417 -14 508 -14 m 417 99 q 542 145 499 99 q 586 278 586 192 l 586 736 q 542 869 586 822 q 417 915 499 915 q 292 869 336 915 q 247 736 247 822 l 247 278 q 292 145 247 192 q 417 99 336 99 m 618 1250 l 451 1417 l 590 1417 l 750 1250 l 618 1250 m 167 1083 l 358 1278 l 475 1278 l 668 1083 l 528 1083 l 417 1192 l 304 1083 l 167 1083 z "},"Ổ":{"ha":833,"x_min":122,"x_max":764,"o":"m 417 -14 q 259 21 325 -14 q 158 122 193 56 q 122 278 122 188 l 122 736 q 158 893 122 828 q 259 993 193 958 q 417 1028 325 1028 q 574 993 508 1028 q 676 893 640 958 q 711 738 711 828 l 711 278 q 676 122 711 188 q 574 21 640 56 q 417 -14 508 -14 m 417 99 q 542 145 499 99 q 586 278 586 192 l 586 736 q 542 869 586 822 q 417 915 499 915 q 292 869 336 915 q 247 736 247 822 l 247 278 q 292 145 247 192 q 417 99 336 99 m 583 1222 l 650 1288 q 661 1314 661 1299 q 640 1336 661 1336 l 549 1336 l 549 1417 l 667 1417 q 738 1393 711 1417 q 764 1331 764 1369 q 758 1297 764 1313 q 742 1269 753 1281 l 692 1222 l 583 1222 m 167 1083 l 358 1278 l 475 1278 l 668 1083 l 528 1083 l 417 1192 l 304 1083 l 167 1083 z "},"Ỗ":{"ha":833,"x_min":122,"x_max":711,"o":"m 417 -14 q 259 21 325 -14 q 158 122 193 56 q 122 278 122 188 l 122 736 q 158 893 122 828 q 259 993 193 958 q 417 1028 325 1028 q 574 993 508 1028 q 676 893 640 958 q 711 738 711 828 l 711 278 q 676 122 711 188 q 574 21 640 56 q 417 -14 508 -14 m 417 99 q 542 145 499 99 q 586 278 586 192 l 586 736 q 542 869 586 822 q 417 915 499 915 q 292 869 336 915 q 247 736 247 822 l 247 278 q 292 145 247 192 q 417 99 336 99 m 524 1278 q 451 1288 481 1278 q 401 1310 422 1297 q 362 1333 381 1324 q 319 1343 343 1343 q 290 1332 301 1343 q 278 1301 278 1321 l 278 1292 l 188 1292 l 188 1301 q 222 1385 188 1354 q 313 1417 256 1417 q 385 1407 357 1417 q 434 1384 414 1397 q 472 1361 454 1371 q 514 1351 490 1351 q 544 1363 533 1351 q 556 1393 556 1375 l 556 1403 l 646 1403 l 646 1393 q 613 1309 646 1340 q 524 1278 581 1278 m 167 1083 l 328 1236 l 506 1236 l 667 1083 l 526 1083 l 417 1185 l 304 1083 l 167 1083 z "},"Ö":{"ha":833,"x_min":122,"x_max":711,"o":"m 417 -14 q 259 21 325 -14 q 158 122 193 56 q 122 278 122 188 l 122 736 q 158 893 122 828 q 259 993 193 958 q 417 1028 325 1028 q 574 993 508 1028 q 676 893 640 958 q 711 738 711 828 l 711 278 q 676 122 711 188 q 574 21 640 56 q 417 -14 508 -14 m 417 99 q 542 145 499 99 q 586 278 586 192 l 586 736 q 542 869 586 822 q 417 915 499 915 q 292 869 336 915 q 247 736 247 822 l 247 278 q 292 145 247 192 q 417 99 336 99 m 571 1135 q 506 1158 531 1135 q 482 1222 482 1182 q 506 1288 482 1264 q 571 1313 531 1313 q 635 1288 611 1313 q 660 1222 660 1264 q 635 1158 660 1182 q 571 1135 611 1135 m 263 1135 q 198 1158 222 1135 q 174 1222 174 1182 q 198 1288 174 1264 q 263 1313 222 1313 q 327 1288 303 1313 q 351 1222 351 1264 q 327 1158 351 1182 q 263 1135 303 1135 z "},"Ọ":{"ha":833,"x_min":122,"x_max":711,"o":"m 417 -14 q 259 21 325 -14 q 158 122 193 56 q 122 278 122 188 l 122 736 q 158 893 122 828 q 259 993 193 958 q 417 1028 325 1028 q 574 993 508 1028 q 676 893 640 958 q 711 738 711 828 l 711 278 q 676 122 711 188 q 574 21 640 56 q 417 -14 508 -14 m 417 99 q 542 145 499 99 q 586 278 586 192 l 586 736 q 542 869 586 822 q 417 915 499 915 q 292 869 336 915 q 247 736 247 822 l 247 278 q 292 145 247 192 q 417 99 336 99 m 431 -296 q 358 -272 385 -296 q 332 -208 332 -249 q 358 -142 332 -167 q 431 -118 385 -118 q 503 -142 476 -118 q 529 -208 529 -167 q 503 -272 529 -249 q 431 -296 476 -296 z "},"Ò":{"ha":833,"x_min":122,"x_max":711,"o":"m 417 -14 q 259 21 325 -14 q 158 122 193 56 q 122 278 122 188 l 122 736 q 158 893 122 828 q 259 993 193 958 q 417 1028 325 1028 q 574 993 508 1028 q 676 893 640 958 q 711 738 711 828 l 711 278 q 676 122 711 188 q 574 21 640 56 q 417 -14 508 -14 m 417 99 q 542 145 499 99 q 586 278 586 192 l 586 736 q 542 869 586 822 q 417 915 499 915 q 292 869 336 915 q 247 736 247 822 l 247 278 q 292 145 247 192 q 417 99 336 99 m 371 1125 l 211 1319 l 350 1319 l 503 1125 l 371 1125 z "},"Ỏ":{"ha":833,"x_min":122,"x_max":711,"o":"m 417 -14 q 259 21 325 -14 q 158 122 193 56 q 122 278 122 188 l 122 736 q 158 893 122 828 q 259 993 193 958 q 417 1028 325 1028 q 574 993 508 1028 q 676 893 640 958 q 711 738 711 828 l 711 278 q 676 122 711 188 q 574 21 640 56 q 417 -14 508 -14 m 417 99 q 542 145 499 99 q 586 278 586 192 l 586 736 q 542 869 586 822 q 417 915 499 915 q 292 869 336 915 q 247 736 247 822 l 247 278 q 292 145 247 192 q 417 99 336 99 m 383 1111 l 446 1199 q 465 1243 465 1226 q 421 1271 465 1271 l 317 1271 l 317 1361 l 428 1361 q 533 1333 493 1361 q 574 1257 574 1304 q 550 1183 574 1218 l 501 1111 l 383 1111 z "},"Ơ":{"ha":833,"x_min":122,"x_max":736,"o":"m 556 882 l 556 972 l 583 972 q 619 985 606 972 q 632 1021 632 999 l 632 1125 l 736 1125 l 736 1014 q 697 918 736 954 q 590 882 657 882 l 556 882 m 417 -14 q 259 21 325 -14 q 158 122 193 56 q 122 278 122 188 l 122 736 q 158 893 122 828 q 259 993 193 958 q 417 1028 325 1028 q 574 993 508 1028 q 676 893 640 958 q 711 738 711 828 l 711 278 q 676 122 711 188 q 574 21 640 56 q 417 -14 508 -14 m 417 99 q 542 145 499 99 q 586 278 586 192 l 586 736 q 542 869 586 822 q 417 915 499 915 q 292 869 336 915 q 247 736 247 822 l 247 278 q 292 145 247 192 q 417 99 336 99 z "},"Ớ":{"ha":833,"x_min":122,"x_max":736,"o":"m 556 882 l 556 972 l 583 972 q 619 985 606 972 q 632 1021 632 999 l 632 1125 l 736 1125 l 736 1014 q 697 918 736 954 q 590 882 657 882 l 556 882 m 417 -14 q 259 21 325 -14 q 158 122 193 56 q 122 278 122 188 l 122 736 q 158 893 122 828 q 259 993 193 958 q 417 1028 325 1028 q 574 993 508 1028 q 676 893 640 958 q 711 738 711 828 l 711 278 q 676 122 711 188 q 574 21 640 56 q 417 -14 508 -14 m 417 99 q 542 145 499 99 q 586 278 586 192 l 586 736 q 542 869 586 822 q 417 915 499 915 q 292 869 336 915 q 247 736 247 822 l 247 278 q 292 145 247 192 q 417 99 336 99 m 322 1125 l 469 1319 l 604 1319 l 450 1125 l 322 1125 z "},"Ợ":{"ha":833,"x_min":122,"x_max":736,"o":"m 556 882 l 556 972 l 583 972 q 619 985 606 972 q 632 1021 632 999 l 632 1125 l 736 1125 l 736 1014 q 697 918 736 954 q 590 882 657 882 l 556 882 m 417 -14 q 259 21 325 -14 q 158 122 193 56 q 122 278 122 188 l 122 736 q 158 893 122 828 q 259 993 193 958 q 417 1028 325 1028 q 574 993 508 1028 q 676 893 640 958 q 711 738 711 828 l 711 278 q 676 122 711 188 q 574 21 640 56 q 417 -14 508 -14 m 417 99 q 542 145 499 99 q 586 278 586 192 l 586 736 q 542 869 586 822 q 417 915 499 915 q 292 869 336 915 q 247 736 247 822 l 247 278 q 292 145 247 192 q 417 99 336 99 m 431 -296 q 358 -272 385 -296 q 332 -208 332 -249 q 358 -142 332 -167 q 431 -118 385 -118 q 503 -142 476 -118 q 529 -208 529 -167 q 503 -272 529 -249 q 431 -296 476 -296 z "},"Ờ":{"ha":833,"x_min":122,"x_max":736,"o":"m 556 882 l 556 972 l 583 972 q 619 985 606 972 q 632 1021 632 999 l 632 1125 l 736 1125 l 736 1014 q 697 918 736 954 q 590 882 657 882 l 556 882 m 417 -14 q 259 21 325 -14 q 158 122 193 56 q 122 278 122 188 l 122 736 q 158 893 122 828 q 259 993 193 958 q 417 1028 325 1028 q 574 993 508 1028 q 676 893 640 958 q 711 738 711 828 l 711 278 q 676 122 711 188 q 574 21 640 56 q 417 -14 508 -14 m 417 99 q 542 145 499 99 q 586 278 586 192 l 586 736 q 542 869 586 822 q 417 915 499 915 q 292 869 336 915 q 247 736 247 822 l 247 278 q 292 145 247 192 q 417 99 336 99 m 357 1125 l 197 1319 l 336 1319 l 489 1125 l 357 1125 z "},"Ở":{"ha":833,"x_min":122,"x_max":736,"o":"m 556 882 l 556 972 l 583 972 q 619 985 606 972 q 632 1021 632 999 l 632 1125 l 736 1125 l 736 1014 q 697 918 736 954 q 590 882 657 882 l 556 882 m 417 -14 q 259 21 325 -14 q 158 122 193 56 q 122 278 122 188 l 122 736 q 158 893 122 828 q 259 993 193 958 q 417 1028 325 1028 q 574 993 508 1028 q 676 893 640 958 q 711 738 711 828 l 711 278 q 676 122 711 188 q 574 21 640 56 q 417 -14 508 -14 m 417 99 q 542 145 499 99 q 586 278 586 192 l 586 736 q 542 869 586 822 q 417 915 499 915 q 292 869 336 915 q 247 736 247 822 l 247 278 q 292 145 247 192 q 417 99 336 99 m 358 1111 l 421 1199 q 440 1243 440 1226 q 396 1271 440 1271 l 292 1271 l 292 1361 l 403 1361 q 508 1333 468 1361 q 549 1257 549 1304 q 525 1183 549 1218 l 476 1111 l 358 1111 z "},"Ỡ":{"ha":833,"x_min":122,"x_max":736,"o":"m 556 882 l 556 972 l 583 972 q 619 985 606 972 q 632 1021 632 999 l 632 1125 l 736 1125 l 736 1014 q 697 918 736 954 q 590 882 657 882 l 556 882 m 417 -14 q 259 21 325 -14 q 158 122 193 56 q 122 278 122 188 l 122 736 q 158 893 122 828 q 259 993 193 958 q 417 1028 325 1028 q 574 993 508 1028 q 676 893 640 958 q 711 738 711 828 l 711 278 q 676 122 711 188 q 574 21 640 56 q 417 -14 508 -14 m 417 99 q 542 145 499 99 q 586 278 586 192 l 586 736 q 542 869 586 822 q 417 915 499 915 q 292 869 336 915 q 247 736 247 822 l 247 278 q 292 145 247 192 q 417 99 336 99 m 500 1132 q 432 1147 458 1132 q 388 1181 406 1161 q 353 1215 369 1200 q 313 1229 336 1229 q 283 1217 294 1229 q 271 1181 271 1206 l 271 1139 l 181 1139 l 181 1181 q 215 1278 181 1243 q 306 1313 250 1313 q 374 1298 347 1313 q 418 1264 400 1283 q 453 1230 436 1244 q 493 1215 469 1215 q 524 1227 513 1215 q 535 1264 535 1239 l 535 1306 l 625 1306 l 625 1264 q 591 1167 625 1201 q 500 1132 557 1132 z "},"Ő":{"ha":833,"x_min":122,"x_max":733,"o":"m 417 -14 q 259 21 325 -14 q 158 122 193 56 q 122 278 122 188 l 122 736 q 158 893 122 828 q 259 993 193 958 q 417 1028 325 1028 q 574 993 508 1028 q 676 893 640 958 q 711 738 711 828 l 711 278 q 676 122 711 188 q 574 21 640 56 q 417 -14 508 -14 m 417 99 q 542 145 499 99 q 586 278 586 192 l 586 736 q 542 869 586 822 q 417 915 499 915 q 292 869 336 915 q 247 736 247 822 l 247 278 q 292 145 247 192 q 417 99 336 99 m 453 1125 l 606 1319 l 733 1319 l 574 1125 l 453 1125 m 204 1125 l 357 1319 l 485 1319 l 325 1125 l 204 1125 z "},"Ō":{"ha":833,"x_min":122,"x_max":711,"o":"m 417 -14 q 259 21 325 -14 q 158 122 193 56 q 122 278 122 188 l 122 736 q 158 893 122 828 q 259 993 193 958 q 417 1028 325 1028 q 574 993 508 1028 q 676 893 640 958 q 711 738 711 828 l 711 278 q 676 122 711 188 q 574 21 640 56 q 417 -14 508 -14 m 417 99 q 542 145 499 99 q 586 278 586 192 l 586 736 q 542 869 586 822 q 417 915 499 915 q 292 869 336 915 q 247 736 247 822 l 247 278 q 292 145 247 192 q 417 99 336 99 m 194 1167 l 194 1271 l 639 1271 l 639 1167 l 194 1167 z "},"Ǫ":{"ha":833,"x_min":122,"x_max":711,"o":"m 526 -282 q 403 -245 450 -282 q 357 -153 357 -208 q 366 -110 357 -133 q 392 -62 375 -87 q 435 -14 410 -37 q 426 -14 431 -14 q 417 -14 421 -14 q 259 21 325 -14 q 158 122 193 56 q 122 278 122 188 l 122 736 q 158 893 122 828 q 259 993 193 958 q 417 1028 325 1028 q 574 993 508 1028 q 676 893 640 958 q 711 738 711 828 l 711 278 q 681 133 711 196 q 597 35 651 71 l 557 1 q 493 -69 511 -37 q 475 -129 475 -100 q 496 -179 475 -160 q 551 -199 517 -199 l 635 -199 l 635 -282 l 526 -282 m 417 99 q 542 145 499 99 q 586 278 586 192 l 586 736 q 542 869 586 822 q 417 915 499 915 q 292 869 336 915 q 247 736 247 822 l 247 278 q 292 145 247 192 q 417 99 336 99 z "},"Ø":{"ha":833,"x_min":49,"x_max":785,"o":"m 49 -56 l 668 1042 l 785 1042 l 165 -56 l 49 -56 m 417 -14 q 259 21 325 -14 q 158 122 193 56 q 122 278 122 188 l 122 736 q 158 893 122 828 q 259 993 193 958 q 417 1028 325 1028 q 574 993 508 1028 q 676 893 640 958 q 711 738 711 828 l 711 278 q 676 122 711 188 q 574 21 640 56 q 417 -14 508 -14 m 417 99 q 542 145 499 99 q 586 278 586 192 l 586 736 q 542 869 586 822 q 417 915 499 915 q 292 869 336 915 q 247 736 247 822 l 247 278 q 292 145 247 192 q 417 99 336 99 z "},"Ǿ":{"ha":833,"x_min":49,"x_max":785,"o":"m 49 -56 l 668 1042 l 785 1042 l 165 -56 l 49 -56 m 417 -14 q 259 21 325 -14 q 158 122 193 56 q 122 278 122 188 l 122 736 q 158 893 122 828 q 259 993 193 958 q 417 1028 325 1028 q 574 993 508 1028 q 676 893 640 958 q 711 738 711 828 l 711 278 q 676 122 711 188 q 574 21 640 56 q 417 -14 508 -14 m 417 99 q 542 145 499 99 q 586 278 586 192 l 586 736 q 542 869 586 822 q 417 915 499 915 q 292 869 336 915 q 247 736 247 822 l 247 278 q 292 145 247 192 q 417 99 336 99 m 336 1125 l 483 1319 l 618 1319 l 464 1125 l 336 1125 z "},"Õ":{"ha":833,"x_min":122,"x_max":711,"o":"m 417 -14 q 259 21 325 -14 q 158 122 193 56 q 122 278 122 188 l 122 736 q 158 893 122 828 q 259 993 193 958 q 417 1028 325 1028 q 574 993 508 1028 q 676 893 640 958 q 711 738 711 828 l 711 278 q 676 122 711 188 q 574 21 640 56 q 417 -14 508 -14 m 417 99 q 542 145 499 99 q 586 278 586 192 l 586 736 q 542 869 586 822 q 417 915 499 915 q 292 869 336 915 q 247 736 247 822 l 247 278 q 292 145 247 192 q 417 99 336 99 m 514 1132 q 446 1147 472 1132 q 401 1181 419 1161 q 367 1215 383 1200 q 326 1229 350 1229 q 297 1217 308 1229 q 285 1181 285 1206 l 285 1139 l 194 1139 l 194 1181 q 229 1278 194 1243 q 319 1313 264 1313 q 388 1298 361 1313 q 432 1264 414 1283 q 467 1230 450 1244 q 507 1215 483 1215 q 538 1227 526 1215 q 549 1264 549 1239 l 549 1306 l 639 1306 l 639 1264 q 605 1167 639 1201 q 514 1132 571 1132 z "},"Œ":{"ha":833,"x_min":56,"x_max":799,"o":"m 271 -14 q 156 18 204 -14 q 81 110 107 50 q 56 250 56 169 l 56 764 q 81 905 56 846 q 156 996 107 964 q 271 1028 204 1028 q 351 1008 319 1028 q 401 959 383 988 q 424 903 419 931 l 431 903 l 431 1014 l 799 1014 l 799 900 l 553 900 l 553 581 l 764 581 l 764 467 l 553 467 l 553 114 l 799 114 l 799 0 l 431 0 l 431 111 l 424 111 q 401 56 419 85 q 351 6 383 26 q 271 -14 319 -14 m 306 97 q 397 138 364 97 q 431 250 431 179 l 431 764 q 397 876 431 835 q 306 917 364 917 q 214 876 247 917 q 181 764 181 835 l 181 250 q 214 138 181 179 q 306 97 247 97 z "},"P":{"ha":833,"x_min":128,"x_max":764,"o":"m 128 0 l 128 1014 l 454 1014 q 618 977 549 1014 q 726 874 688 940 q 764 715 764 807 q 726 558 764 625 q 618 453 688 490 q 454 417 549 417 l 253 417 l 253 0 l 128 0 m 253 529 l 454 529 q 585 580 536 529 q 635 715 635 631 q 585 851 635 801 q 454 901 536 901 l 253 901 l 253 529 z "},"Þ":{"ha":833,"x_min":125,"x_max":764,"o":"m 125 0 l 125 1014 l 250 1014 l 250 806 l 463 806 q 622 771 554 806 q 726 674 689 736 q 764 528 764 611 q 682 326 764 401 q 463 250 600 250 l 250 250 l 250 0 l 125 0 m 250 361 l 463 361 q 589 406 543 361 q 635 528 635 451 q 588 650 635 606 q 463 694 542 694 l 250 694 l 250 361 z "},"Q":{"ha":833,"x_min":111,"x_max":731,"o":"m 586 -250 l 438 -4 l 451 -12 q 437 -13 446 -12 q 417 -14 428 -14 q 255 23 324 -14 q 149 127 186 60 q 111 285 111 194 l 111 729 q 149 888 111 821 q 255 991 186 954 q 417 1028 324 1028 q 579 991 511 1028 q 685 888 647 954 q 722 729 722 821 l 722 285 q 682 122 722 192 q 568 18 642 53 l 731 -250 l 586 -250 m 417 97 q 548 149 499 97 q 597 285 597 200 l 597 729 q 548 866 597 815 q 417 917 499 917 q 285 866 335 917 q 236 729 236 815 l 236 285 q 285 149 236 200 q 417 97 335 97 z "},"R":{"ha":833,"x_min":128,"x_max":757,"o":"m 128 0 l 128 1014 l 442 1014 q 600 977 532 1014 q 706 875 668 940 q 743 722 743 810 q 690 546 743 619 q 544 444 636 472 l 757 0 l 610 0 l 415 431 l 253 431 l 253 0 l 128 0 m 253 543 l 442 543 q 567 592 519 543 q 614 722 614 642 q 567 853 614 804 q 442 901 519 901 l 253 901 l 253 543 z "},"Ŕ":{"ha":833,"x_min":128,"x_max":757,"o":"m 128 0 l 128 1014 l 442 1014 q 600 977 532 1014 q 706 875 668 940 q 743 722 743 810 q 690 546 743 619 q 544 444 636 472 l 757 0 l 610 0 l 415 431 l 253 431 l 253 0 l 128 0 m 253 543 l 442 543 q 567 592 519 543 q 614 722 614 642 q 567 853 614 804 q 442 901 519 901 l 253 901 l 253 543 m 336 1125 l 483 1319 l 618 1319 l 464 1125 l 336 1125 z "},"Ř":{"ha":833,"x_min":128,"x_max":757,"o":"m 128 0 l 128 1014 l 442 1014 q 600 977 532 1014 q 706 875 668 940 q 743 722 743 810 q 690 546 743 619 q 544 444 636 472 l 757 0 l 610 0 l 415 431 l 253 431 l 253 0 l 128 0 m 253 543 l 442 543 q 567 592 519 543 q 614 722 614 642 q 567 853 614 804 q 442 901 519 901 l 253 901 l 253 543 m 360 1125 l 165 1319 l 303 1319 l 417 1211 l 528 1319 l 668 1319 l 475 1125 l 360 1125 z "},"Ŗ":{"ha":833,"x_min":128,"x_max":757,"o":"m 128 0 l 128 1014 l 442 1014 q 600 977 532 1014 q 706 875 668 940 q 743 722 743 810 q 690 546 743 619 q 544 444 636 472 l 757 0 l 610 0 l 415 431 l 253 431 l 253 0 l 128 0 m 253 543 l 442 543 q 567 592 519 543 q 614 722 614 642 q 567 853 614 804 q 442 901 519 901 l 253 901 l 253 543 m 264 -333 l 396 -132 l 542 -132 l 396 -333 l 264 -333 z "},"S":{"ha":833,"x_min":100,"x_max":733,"o":"m 422 -14 q 251 19 322 -14 q 140 115 179 53 q 100 264 101 178 l 225 264 q 277 143 225 188 q 422 99 329 99 q 559 142 510 99 q 608 261 608 185 q 576 368 608 322 q 482 432 543 414 l 344 475 q 184 582 240 507 q 128 758 128 657 q 165 901 128 840 q 268 995 201 961 q 425 1029 335 1029 q 639 955 558 1029 q 721 757 719 881 l 596 757 q 551 874 596 832 q 424 917 506 917 q 298 878 343 917 q 253 769 253 839 q 286 661 253 707 q 382 596 319 615 l 521 551 q 678 443 622 519 q 733 264 733 367 q 694 118 733 181 q 585 21 656 56 q 422 -14 515 -14 z "},"Ś":{"ha":833,"x_min":100,"x_max":733,"o":"m 422 -14 q 251 19 322 -14 q 140 115 179 53 q 100 264 101 178 l 225 264 q 277 143 225 188 q 422 99 329 99 q 559 142 510 99 q 608 261 608 185 q 576 368 608 322 q 482 432 543 414 l 344 475 q 184 582 240 507 q 128 758 128 657 q 165 901 128 840 q 268 995 201 961 q 425 1029 335 1029 q 639 955 558 1029 q 721 757 719 881 l 596 757 q 551 874 596 832 q 424 917 506 917 q 298 878 343 917 q 253 769 253 839 q 286 661 253 707 q 382 596 319 615 l 521 551 q 678 443 622 519 q 733 264 733 367 q 694 118 733 181 q 585 21 656 56 q 422 -14 515 -14 m 336 1125 l 483 1319 l 618 1319 l 464 1125 l 336 1125 z "},"Š":{"ha":833,"x_min":100,"x_max":733,"o":"m 422 -14 q 251 19 322 -14 q 140 115 179 53 q 100 264 101 178 l 225 264 q 277 143 225 188 q 422 99 329 99 q 559 142 510 99 q 608 261 608 185 q 576 368 608 322 q 482 432 543 414 l 344 475 q 184 582 240 507 q 128 758 128 657 q 165 901 128 840 q 268 995 201 961 q 425 1029 335 1029 q 639 955 558 1029 q 721 757 719 881 l 596 757 q 551 874 596 832 q 424 917 506 917 q 298 878 343 917 q 253 769 253 839 q 286 661 253 707 q 382 596 319 615 l 521 551 q 678 443 622 519 q 733 264 733 367 q 694 118 733 181 q 585 21 656 56 q 422 -14 515 -14 m 360 1125 l 165 1319 l 303 1319 l 417 1211 l 528 1319 l 668 1319 l 475 1125 l 360 1125 z "},"Ş":{"ha":833,"x_min":100,"x_max":733,"o":"m 285 -282 l 285 -206 l 382 -206 q 431 -190 413 -206 q 450 -156 450 -174 q 412 -114 450 -132 q 304 -96 374 -96 l 353 36 l 432 36 l 403 -49 q 478 -67 439 -53 q 543 -106 517 -81 q 569 -167 569 -131 q 524 -248 569 -214 q 403 -282 478 -282 l 285 -282 m 422 -14 q 251 19 322 -14 q 140 115 179 53 q 100 264 101 178 l 225 264 q 277 143 225 188 q 422 99 329 99 q 559 142 510 99 q 608 261 608 185 q 576 368 608 322 q 482 432 543 414 l 344 475 q 184 582 240 507 q 128 758 128 657 q 165 901 128 840 q 268 995 201 961 q 425 1029 335 1029 q 639 955 558 1029 q 721 757 719 881 l 596 757 q 551 874 596 832 q 424 917 506 917 q 298 878 343 917 q 253 769 253 839 q 286 661 253 707 q 382 596 319 615 l 521 551 q 678 443 622 519 q 733 264 733 367 q 694 118 733 181 q 585 21 656 56 q 422 -14 515 -14 z "},"Ŝ":{"ha":833,"x_min":100,"x_max":733,"o":"m 422 -14 q 251 19 322 -14 q 140 115 179 53 q 100 264 101 178 l 225 264 q 277 143 225 188 q 422 99 329 99 q 559 142 510 99 q 608 261 608 185 q 576 368 608 322 q 482 432 543 414 l 344 475 q 184 582 240 507 q 128 758 128 657 q 165 901 128 840 q 268 995 201 961 q 425 1029 335 1029 q 639 955 558 1029 q 721 757 719 881 l 596 757 q 551 874 596 832 q 424 917 506 917 q 298 878 343 917 q 253 769 253 839 q 286 661 253 707 q 382 596 319 615 l 521 551 q 678 443 622 519 q 733 264 733 367 q 694 118 733 181 q 585 21 656 56 q 422 -14 515 -14 m 165 1125 l 358 1319 l 474 1319 l 668 1125 l 531 1125 l 417 1233 l 306 1125 l 165 1125 z "},"Ș":{"ha":833,"x_min":100,"x_max":733,"o":"m 422 -14 q 251 19 322 -14 q 140 115 179 53 q 100 264 101 178 l 225 264 q 277 143 225 188 q 422 99 329 99 q 559 142 510 99 q 608 261 608 185 q 576 368 608 322 q 482 432 543 414 l 344 475 q 184 582 240 507 q 128 758 128 657 q 165 901 128 840 q 268 995 201 961 q 425 1029 335 1029 q 639 955 558 1029 q 721 757 719 881 l 596 757 q 551 874 596 832 q 424 917 506 917 q 298 878 343 917 q 253 769 253 839 q 286 661 253 707 q 382 596 319 615 l 521 551 q 678 443 622 519 q 733 264 733 367 q 694 118 733 181 q 585 21 656 56 q 422 -14 515 -14 m 264 -333 l 396 -132 l 542 -132 l 396 -333 l 264 -333 z "},"ẞ":{"ha":833,"x_min":128,"x_max":750,"o":"m 128 0 l 128 728 q 164 878 128 814 q 266 978 200 943 q 419 1014 332 1014 l 735 1014 l 735 892 l 486 556 l 486 588 q 625 553 565 589 q 717 453 685 518 q 750 299 750 388 q 713 142 750 210 q 608 38 675 75 q 451 0 542 0 l 358 0 l 358 114 l 438 114 q 569 164 521 114 q 618 299 618 214 q 569 431 618 382 q 438 479 521 479 l 375 479 l 375 588 l 603 900 l 419 900 q 298 854 343 900 q 253 728 253 808 l 253 0 l 128 0 z "},"Ə":{"ha":833,"x_min":125,"x_max":708,"o":"m 417 -14 q 261 22 326 -14 q 160 124 196 58 q 125 278 125 190 l 125 556 l 583 556 l 583 738 q 541 870 583 824 q 417 917 499 917 q 293 869 336 917 q 250 736 250 822 l 125 736 q 160 892 125 826 q 260 992 194 957 q 417 1028 325 1028 q 574 993 510 1028 q 674 893 639 958 q 708 736 708 828 l 708 278 q 673 124 708 190 q 572 22 638 58 q 417 -14 507 -14 m 417 90 q 543 139 503 90 q 583 278 583 188 l 583 458 l 240 458 l 250 469 l 250 278 q 291 139 250 188 q 417 90 332 90 z "},"T":{"ha":833,"x_min":76,"x_max":757,"o":"m 354 0 l 354 901 l 76 901 l 76 1015 l 757 1015 l 757 901 l 479 901 l 479 0 l 354 0 z "},"Ŧ":{"ha":833,"x_min":76,"x_max":757,"o":"m 153 410 l 153 514 l 681 514 l 681 410 l 153 410 m 354 0 l 354 901 l 76 901 l 76 1015 l 757 1015 l 757 901 l 479 901 l 479 0 l 354 0 z "},"Ť":{"ha":833,"x_min":76,"x_max":757,"o":"m 354 0 l 354 901 l 76 901 l 76 1015 l 757 1015 l 757 901 l 479 901 l 479 0 l 354 0 m 360 1125 l 165 1319 l 303 1319 l 417 1211 l 528 1319 l 668 1319 l 475 1125 l 360 1125 z "},"Ţ":{"ha":833,"x_min":76,"x_max":757,"o":"m 344 -282 l 344 -206 l 442 -206 q 491 -190 472 -206 q 510 -156 510 -174 q 472 -114 510 -132 q 364 -96 433 -96 l 413 36 l 479 0 l 463 -49 q 538 -67 499 -53 q 603 -106 576 -81 q 629 -167 629 -131 q 583 -248 629 -214 q 463 -282 538 -282 l 344 -282 m 354 0 l 354 901 l 76 901 l 76 1015 l 757 1015 l 757 901 l 479 901 l 479 0 l 354 0 z "},"Ț":{"ha":833,"x_min":76,"x_max":757,"o":"m 354 0 l 354 901 l 76 901 l 76 1015 l 757 1015 l 757 901 l 479 901 l 479 0 l 354 0 m 215 -333 l 347 -132 l 493 -132 l 347 -333 l 215 -333 z "},"U":{"ha":833,"x_min":125,"x_max":708,"o":"m 417 -14 q 200 65 275 -14 q 125 278 125 143 l 125 1014 l 250 1014 l 250 278 q 291 146 250 194 q 417 97 332 97 q 542 146 500 97 q 583 278 583 194 l 583 1014 l 708 1014 l 708 278 q 634 64 708 142 q 417 -14 560 -14 z "},"Ú":{"ha":833,"x_min":125,"x_max":708,"o":"m 417 -14 q 200 65 275 -14 q 125 278 125 143 l 125 1014 l 250 1014 l 250 278 q 291 146 250 194 q 417 97 332 97 q 542 146 500 97 q 583 278 583 194 l 583 1014 l 708 1014 l 708 278 q 634 64 708 142 q 417 -14 560 -14 m 336 1125 l 483 1319 l 618 1319 l 464 1125 l 336 1125 z "},"Ŭ":{"ha":833,"x_min":125,"x_max":708,"o":"m 417 -14 q 200 65 275 -14 q 125 278 125 143 l 125 1014 l 250 1014 l 250 278 q 291 146 250 194 q 417 97 332 97 q 542 146 500 97 q 583 278 583 194 l 583 1014 l 708 1014 l 708 278 q 634 64 708 142 q 417 -14 560 -14 m 417 1118 q 256 1174 317 1118 q 194 1319 194 1229 l 293 1319 q 326 1232 293 1265 q 415 1199 360 1199 q 506 1232 472 1199 q 540 1319 540 1265 l 639 1319 q 578 1174 639 1229 q 417 1118 517 1118 z "},"Û":{"ha":833,"x_min":125,"x_max":708,"o":"m 417 -14 q 200 65 275 -14 q 125 278 125 143 l 125 1014 l 250 1014 l 250 278 q 291 146 250 194 q 417 97 332 97 q 542 146 500 97 q 583 278 583 194 l 583 1014 l 708 1014 l 708 278 q 634 64 708 142 q 417 -14 560 -14 m 165 1125 l 358 1319 l 474 1319 l 668 1125 l 531 1125 l 417 1233 l 306 1125 l 165 1125 z "},"Ü":{"ha":833,"x_min":125,"x_max":708,"o":"m 417 -14 q 200 65 275 -14 q 125 278 125 143 l 125 1014 l 250 1014 l 250 278 q 291 146 250 194 q 417 97 332 97 q 542 146 500 97 q 583 278 583 194 l 583 1014 l 708 1014 l 708 278 q 634 64 708 142 q 417 -14 560 -14 m 571 1135 q 506 1158 531 1135 q 482 1222 482 1182 q 506 1288 482 1264 q 571 1313 531 1313 q 635 1288 611 1313 q 660 1222 660 1264 q 635 1158 660 1182 q 571 1135 611 1135 m 263 1135 q 198 1158 222 1135 q 174 1222 174 1182 q 198 1288 174 1264 q 263 1313 222 1313 q 327 1288 303 1313 q 351 1222 351 1264 q 327 1158 351 1182 q 263 1135 303 1135 z "},"Ụ":{"ha":833,"x_min":125,"x_max":708,"o":"m 417 -14 q 200 65 275 -14 q 125 278 125 143 l 125 1014 l 250 1014 l 250 278 q 291 146 250 194 q 417 97 332 97 q 542 146 500 97 q 583 278 583 194 l 583 1014 l 708 1014 l 708 278 q 634 64 708 142 q 417 -14 560 -14 m 417 -296 q 344 -272 371 -296 q 318 -208 318 -249 q 344 -142 318 -167 q 417 -118 371 -118 q 489 -142 463 -118 q 515 -208 515 -167 q 489 -272 515 -249 q 417 -296 463 -296 z "},"Ù":{"ha":833,"x_min":125,"x_max":708,"o":"m 417 -14 q 200 65 275 -14 q 125 278 125 143 l 125 1014 l 250 1014 l 250 278 q 291 146 250 194 q 417 97 332 97 q 542 146 500 97 q 583 278 583 194 l 583 1014 l 708 1014 l 708 278 q 634 64 708 142 q 417 -14 560 -14 m 371 1125 l 211 1319 l 350 1319 l 503 1125 l 371 1125 z "},"Ủ":{"ha":833,"x_min":125,"x_max":708,"o":"m 417 -14 q 200 65 275 -14 q 125 278 125 143 l 125 1014 l 250 1014 l 250 278 q 291 146 250 194 q 417 97 332 97 q 542 146 500 97 q 583 278 583 194 l 583 1014 l 708 1014 l 708 278 q 634 64 708 142 q 417 -14 560 -14 m 358 1111 l 421 1199 q 440 1243 440 1226 q 396 1271 440 1271 l 292 1271 l 292 1361 l 403 1361 q 508 1333 468 1361 q 549 1257 549 1304 q 525 1183 549 1218 l 476 1111 l 358 1111 z "},"Ư":{"ha":833,"x_min":125,"x_max":826,"o":"m 604 924 l 604 1014 l 674 1014 q 709 1027 696 1014 q 722 1063 722 1040 l 722 1167 l 826 1167 l 826 1056 q 787 960 826 996 q 681 924 747 924 l 604 924 m 417 -14 q 200 65 275 -14 q 125 278 125 143 l 125 1014 l 250 1014 l 250 278 q 291 146 250 194 q 417 97 332 97 q 542 146 500 97 q 583 278 583 194 l 583 1014 l 708 1014 l 708 278 q 634 64 708 142 q 417 -14 560 -14 z "},"Ứ":{"ha":833,"x_min":125,"x_max":826,"o":"m 604 924 l 604 1014 l 674 1014 q 709 1027 696 1014 q 722 1063 722 1040 l 722 1167 l 826 1167 l 826 1056 q 787 960 826 996 q 681 924 747 924 l 604 924 m 417 -14 q 200 65 275 -14 q 125 278 125 143 l 125 1014 l 250 1014 l 250 278 q 291 146 250 194 q 417 97 332 97 q 542 146 500 97 q 583 278 583 194 l 583 1014 l 708 1014 l 708 278 q 634 64 708 142 q 417 -14 560 -14 m 336 1125 l 483 1319 l 618 1319 l 464 1125 l 336 1125 z "},"Ự":{"ha":833,"x_min":125,"x_max":826,"o":"m 431 -296 q 358 -272 385 -296 q 332 -208 332 -249 q 358 -142 332 -167 q 431 -118 385 -118 q 503 -142 476 -118 q 529 -208 529 -167 q 503 -272 529 -249 q 431 -296 476 -296 m 604 924 l 604 1014 l 674 1014 q 709 1027 696 1014 q 722 1063 722 1040 l 722 1167 l 826 1167 l 826 1056 q 787 960 826 996 q 681 924 747 924 l 604 924 m 417 -14 q 200 65 275 -14 q 125 278 125 143 l 125 1014 l 250 1014 l 250 278 q 291 146 250 194 q 417 97 332 97 q 542 146 500 97 q 583 278 583 194 l 583 1014 l 708 1014 l 708 278 q 634 64 708 142 q 417 -14 560 -14 z "},"Ừ":{"ha":833,"x_min":125,"x_max":826,"o":"m 604 924 l 604 1014 l 674 1014 q 709 1027 696 1014 q 722 1063 722 1040 l 722 1167 l 826 1167 l 826 1056 q 787 960 826 996 q 681 924 747 924 l 604 924 m 417 -14 q 200 65 275 -14 q 125 278 125 143 l 125 1014 l 250 1014 l 250 278 q 291 146 250 194 q 417 97 332 97 q 542 146 500 97 q 583 278 583 194 l 583 1014 l 708 1014 l 708 278 q 634 64 708 142 q 417 -14 560 -14 m 371 1125 l 211 1319 l 350 1319 l 503 1125 l 371 1125 z "},"Ử":{"ha":833,"x_min":125,"x_max":826,"o":"m 604 924 l 604 1014 l 674 1014 q 709 1027 696 1014 q 722 1063 722 1040 l 722 1167 l 826 1167 l 826 1056 q 787 960 826 996 q 681 924 747 924 l 604 924 m 417 -14 q 200 65 275 -14 q 125 278 125 143 l 125 1014 l 250 1014 l 250 278 q 291 146 250 194 q 417 97 332 97 q 542 146 500 97 q 583 278 583 194 l 583 1014 l 708 1014 l 708 278 q 634 64 708 142 q 417 -14 560 -14 m 358 1111 l 421 1199 q 440 1243 440 1226 q 396 1271 440 1271 l 292 1271 l 292 1361 l 403 1361 q 508 1333 468 1361 q 549 1257 549 1304 q 525 1183 549 1218 l 476 1111 l 358 1111 z "},"Ữ":{"ha":833,"x_min":125,"x_max":826,"o":"m 604 924 l 604 1014 l 674 1014 q 709 1027 696 1014 q 722 1063 722 1040 l 722 1167 l 826 1167 l 826 1056 q 787 960 826 996 q 681 924 747 924 l 604 924 m 417 -14 q 200 65 275 -14 q 125 278 125 143 l 125 1014 l 250 1014 l 250 278 q 291 146 250 194 q 417 97 332 97 q 542 146 500 97 q 583 278 583 194 l 583 1014 l 708 1014 l 708 278 q 634 64 708 142 q 417 -14 560 -14 m 514 1132 q 446 1147 472 1132 q 401 1181 419 1161 q 367 1215 383 1200 q 326 1229 350 1229 q 297 1217 308 1229 q 285 1181 285 1206 l 285 1139 l 194 1139 l 194 1181 q 229 1278 194 1243 q 319 1313 264 1313 q 388 1298 361 1313 q 432 1264 414 1283 q 467 1230 450 1244 q 507 1215 483 1215 q 538 1227 526 1215 q 549 1264 549 1239 l 549 1306 l 639 1306 l 639 1264 q 605 1167 639 1201 q 514 1132 571 1132 z "},"Ű":{"ha":833,"x_min":125,"x_max":733,"o":"m 417 -14 q 200 65 275 -14 q 125 278 125 143 l 125 1014 l 250 1014 l 250 278 q 291 146 250 194 q 417 97 332 97 q 542 146 500 97 q 583 278 583 194 l 583 1014 l 708 1014 l 708 278 q 634 64 708 142 q 417 -14 560 -14 m 453 1125 l 606 1319 l 733 1319 l 574 1125 l 453 1125 m 204 1125 l 357 1319 l 485 1319 l 325 1125 l 204 1125 z "},"Ū":{"ha":833,"x_min":125,"x_max":708,"o":"m 417 -14 q 200 65 275 -14 q 125 278 125 143 l 125 1014 l 250 1014 l 250 278 q 291 146 250 194 q 417 97 332 97 q 542 146 500 97 q 583 278 583 194 l 583 1014 l 708 1014 l 708 278 q 634 64 708 142 q 417 -14 560 -14 m 194 1167 l 194 1271 l 639 1271 l 639 1167 l 194 1167 z "},"Ų":{"ha":833,"x_min":125,"x_max":708,"o":"m 526 -282 q 403 -245 450 -282 q 357 -153 357 -208 q 366 -110 357 -133 q 392 -62 375 -87 q 435 -14 410 -37 q 426 -14 431 -14 q 417 -14 421 -14 q 260 21 325 -14 q 160 122 194 56 q 125 278 125 188 l 125 1014 l 250 1014 l 250 278 q 293 145 250 192 q 417 99 336 99 q 541 145 499 99 q 583 278 583 192 l 583 1014 l 708 1014 l 708 278 q 680 133 708 196 q 597 35 651 71 l 557 1 q 493 -69 511 -37 q 475 -129 475 -100 q 496 -179 475 -160 q 551 -199 517 -199 l 635 -199 l 635 -282 l 526 -282 z "},"Ů":{"ha":833,"x_min":125,"x_max":708,"o":"m 417 -14 q 200 65 275 -14 q 125 278 125 143 l 125 1014 l 250 1014 l 250 278 q 291 146 250 194 q 417 97 332 97 q 542 146 500 97 q 583 278 583 194 l 583 1014 l 708 1014 l 708 278 q 634 64 708 142 q 417 -14 560 -14 m 417 1064 q 296 1108 342 1064 q 250 1222 250 1151 q 296 1337 250 1293 q 417 1381 342 1381 q 538 1337 492 1381 q 583 1222 583 1293 q 538 1108 583 1151 q 417 1064 492 1064 m 417 1138 q 477 1160 454 1138 q 500 1222 500 1183 q 477 1285 500 1261 q 417 1308 454 1308 q 356 1285 379 1308 q 333 1222 333 1261 q 356 1160 333 1183 q 417 1138 379 1138 z "},"Ũ":{"ha":833,"x_min":125,"x_max":708,"o":"m 417 -14 q 200 65 275 -14 q 125 278 125 143 l 125 1014 l 250 1014 l 250 278 q 291 146 250 194 q 417 97 332 97 q 542 146 500 97 q 583 278 583 194 l 583 1014 l 708 1014 l 708 278 q 634 64 708 142 q 417 -14 560 -14 m 514 1132 q 446 1147 472 1132 q 401 1181 419 1161 q 367 1215 383 1200 q 326 1229 350 1229 q 297 1217 308 1229 q 285 1181 285 1206 l 285 1139 l 194 1139 l 194 1181 q 229 1278 194 1243 q 319 1313 264 1313 q 388 1298 361 1313 q 432 1264 414 1283 q 467 1230 450 1244 q 507 1215 483 1215 q 538 1227 526 1215 q 549 1264 549 1239 l 549 1306 l 639 1306 l 639 1264 q 605 1167 639 1201 q 514 1132 571 1132 z "},"V":{"ha":833,"x_min":69,"x_max":764,"o":"m 331 0 l 69 1014 l 199 1014 l 371 325 q 401 191 389 253 q 419 97 414 129 q 437 191 425 129 q 467 325 449 253 l 638 1014 l 764 1014 l 501 0 l 331 0 z "},"W":{"ha":833,"x_min":35,"x_max":799,"o":"m 151 0 l 35 1014 l 154 1014 l 231 264 q 236 201 233 233 q 241 139 239 168 q 243 90 243 110 q 248 139 246 110 q 253 201 250 168 q 261 264 257 233 l 356 1014 l 485 1014 l 571 264 q 578 201 575 233 q 585 139 582 168 q 590 90 589 110 q 594 139 592 110 q 599 201 596 168 q 606 264 603 233 l 685 1014 l 799 1014 l 679 0 l 522 0 l 436 764 q 430 826 433 796 q 424 883 426 857 q 419 926 421 910 q 415 883 418 910 q 408 826 411 857 q 401 764 406 796 l 308 0 l 151 0 z "},"Ẃ":{"ha":833,"x_min":35,"x_max":799,"o":"m 151 0 l 35 1014 l 154 1014 l 231 264 q 236 201 233 233 q 241 139 239 168 q 243 90 243 110 q 248 139 246 110 q 253 201 250 168 q 261 264 257 233 l 356 1014 l 485 1014 l 571 264 q 578 201 575 233 q 585 139 582 168 q 590 90 589 110 q 594 139 592 110 q 599 201 596 168 q 606 264 603 233 l 685 1014 l 799 1014 l 679 0 l 522 0 l 436 764 q 430 826 433 796 q 424 883 426 857 q 419 926 421 910 q 415 883 418 910 q 408 826 411 857 q 401 764 406 796 l 308 0 l 151 0 m 336 1125 l 483 1319 l 618 1319 l 464 1125 l 336 1125 z "},"Ŵ":{"ha":833,"x_min":35,"x_max":799,"o":"m 151 0 l 35 1014 l 154 1014 l 231 264 q 236 201 233 233 q 241 139 239 168 q 243 90 243 110 q 248 139 246 110 q 253 201 250 168 q 261 264 257 233 l 356 1014 l 485 1014 l 571 264 q 578 201 575 233 q 585 139 582 168 q 590 90 589 110 q 594 139 592 110 q 599 201 596 168 q 606 264 603 233 l 685 1014 l 799 1014 l 679 0 l 522 0 l 436 764 q 430 826 433 796 q 424 883 426 857 q 419 926 421 910 q 415 883 418 910 q 408 826 411 857 q 401 764 406 796 l 308 0 l 151 0 m 165 1125 l 358 1319 l 474 1319 l 668 1125 l 531 1125 l 417 1233 l 306 1125 l 165 1125 z "},"Ẅ":{"ha":833,"x_min":35,"x_max":799,"o":"m 151 0 l 35 1014 l 154 1014 l 231 264 q 236 201 233 233 q 241 139 239 168 q 243 90 243 110 q 248 139 246 110 q 253 201 250 168 q 261 264 257 233 l 356 1014 l 485 1014 l 571 264 q 578 201 575 233 q 585 139 582 168 q 590 90 589 110 q 594 139 592 110 q 599 201 596 168 q 606 264 603 233 l 685 1014 l 799 1014 l 679 0 l 522 0 l 436 764 q 430 826 433 796 q 424 883 426 857 q 419 926 421 910 q 415 883 418 910 q 408 826 411 857 q 401 764 406 796 l 308 0 l 151 0 m 571 1135 q 506 1158 531 1135 q 482 1222 482 1182 q 506 1288 482 1264 q 571 1313 531 1313 q 635 1288 611 1313 q 660 1222 660 1264 q 635 1158 660 1182 q 571 1135 611 1135 m 263 1135 q 198 1158 222 1135 q 174 1222 174 1182 q 198 1288 174 1264 q 263 1313 222 1313 q 327 1288 303 1313 q 351 1222 351 1264 q 327 1158 351 1182 q 263 1135 303 1135 z "},"Ẁ":{"ha":833,"x_min":35,"x_max":799,"o":"m 151 0 l 35 1014 l 154 1014 l 231 264 q 236 201 233 233 q 241 139 239 168 q 243 90 243 110 q 248 139 246 110 q 253 201 250 168 q 261 264 257 233 l 356 1014 l 485 1014 l 571 264 q 578 201 575 233 q 585 139 582 168 q 590 90 589 110 q 594 139 592 110 q 599 201 596 168 q 606 264 603 233 l 685 1014 l 799 1014 l 679 0 l 522 0 l 436 764 q 430 826 433 796 q 424 883 426 857 q 419 926 421 910 q 415 883 418 910 q 408 826 411 857 q 401 764 406 796 l 308 0 l 151 0 m 371 1125 l 211 1319 l 350 1319 l 503 1125 l 371 1125 z "},"X":{"ha":833,"x_min":56,"x_max":778,"o":"m 56 0 l 347 514 l 71 1014 l 215 1014 l 372 714 q 398 663 385 690 q 419 621 411 636 q 440 663 426 636 q 465 714 453 690 l 625 1014 l 763 1014 l 486 522 l 778 0 l 635 0 l 461 322 q 435 373 449 346 q 415 417 422 400 q 395 374 408 400 q 369 324 382 347 l 194 0 l 56 0 z "},"Y":{"ha":833,"x_min":49,"x_max":785,"o":"m 354 0 l 354 379 l 49 1014 l 178 1014 l 379 597 q 406 538 396 563 q 418 503 415 514 q 431 538 421 514 q 458 597 442 563 l 656 1014 l 785 1014 l 479 379 l 479 0 l 354 0 z "},"Ý":{"ha":833,"x_min":49,"x_max":785,"o":"m 354 0 l 354 379 l 49 1014 l 178 1014 l 379 597 q 406 538 396 563 q 418 503 415 514 q 431 538 421 514 q 458 597 442 563 l 656 1014 l 785 1014 l 479 379 l 479 0 l 354 0 m 336 1125 l 483 1319 l 618 1319 l 464 1125 l 336 1125 z "},"Ŷ":{"ha":833,"x_min":49,"x_max":785,"o":"m 354 0 l 354 379 l 49 1014 l 178 1014 l 379 597 q 406 538 396 563 q 418 503 415 514 q 431 538 421 514 q 458 597 442 563 l 656 1014 l 785 1014 l 479 379 l 479 0 l 354 0 m 165 1125 l 358 1319 l 474 1319 l 668 1125 l 531 1125 l 417 1233 l 306 1125 l 165 1125 z "},"Ÿ":{"ha":833,"x_min":49,"x_max":785,"o":"m 354 0 l 354 379 l 49 1014 l 178 1014 l 379 597 q 406 538 396 563 q 418 503 415 514 q 431 538 421 514 q 458 597 442 563 l 656 1014 l 785 1014 l 479 379 l 479 0 l 354 0 m 571 1135 q 506 1158 531 1135 q 482 1222 482 1182 q 506 1288 482 1264 q 571 1313 531 1313 q 635 1288 611 1313 q 660 1222 660 1264 q 635 1158 660 1182 q 571 1135 611 1135 m 263 1135 q 198 1158 222 1135 q 174 1222 174 1182 q 198 1288 174 1264 q 263 1313 222 1313 q 327 1288 303 1313 q 351 1222 351 1264 q 327 1158 351 1182 q 263 1135 303 1135 z "},"Ỵ":{"ha":833,"x_min":49,"x_max":785,"o":"m 354 0 l 354 379 l 49 1014 l 178 1014 l 379 597 q 406 538 396 563 q 418 503 415 514 q 431 538 421 514 q 458 597 442 563 l 656 1014 l 785 1014 l 479 379 l 479 0 l 354 0 m 431 -296 q 358 -272 385 -296 q 332 -208 332 -249 q 358 -142 332 -167 q 431 -118 385 -118 q 503 -142 476 -118 q 529 -208 529 -167 q 503 -272 529 -249 q 431 -296 476 -296 z "},"Ỳ":{"ha":833,"x_min":49,"x_max":785,"o":"m 354 0 l 354 379 l 49 1014 l 178 1014 l 379 597 q 406 538 396 563 q 418 503 415 514 q 431 538 421 514 q 458 597 442 563 l 656 1014 l 785 1014 l 479 379 l 479 0 l 354 0 m 371 1125 l 211 1319 l 350 1319 l 503 1125 l 371 1125 z "},"Ỷ":{"ha":833,"x_min":49,"x_max":785,"o":"m 354 0 l 354 379 l 49 1014 l 178 1014 l 379 597 q 406 538 396 563 q 418 503 415 514 q 431 538 421 514 q 458 597 442 563 l 656 1014 l 785 1014 l 479 379 l 479 0 l 354 0 m 358 1111 l 421 1199 q 440 1243 440 1226 q 396 1271 440 1271 l 292 1271 l 292 1361 l 403 1361 q 508 1333 468 1361 q 549 1257 549 1304 q 525 1183 549 1218 l 476 1111 l 358 1111 z "},"Ȳ":{"ha":833,"x_min":49,"x_max":785,"o":"m 354 0 l 354 379 l 49 1014 l 178 1014 l 379 597 q 406 538 396 563 q 418 503 415 514 q 431 538 421 514 q 458 597 442 563 l 656 1014 l 785 1014 l 479 379 l 479 0 l 354 0 m 194 1167 l 194 1271 l 639 1271 l 639 1167 l 194 1167 z "},"Ỹ":{"ha":833,"x_min":49,"x_max":785,"o":"m 354 0 l 354 379 l 49 1014 l 178 1014 l 379 597 q 406 538 396 563 q 418 503 415 514 q 431 538 421 514 q 458 597 442 563 l 656 1014 l 785 1014 l 479 379 l 479 0 l 354 0 m 514 1132 q 446 1147 472 1132 q 401 1181 419 1161 q 367 1215 383 1200 q 326 1229 350 1229 q 297 1217 308 1229 q 285 1181 285 1206 l 285 1139 l 194 1139 l 194 1181 q 229 1278 194 1243 q 319 1313 264 1313 q 388 1298 361 1313 q 432 1264 414 1283 q 467 1230 450 1244 q 507 1215 483 1215 q 538 1227 526 1215 q 549 1264 549 1239 l 549 1306 l 639 1306 l 639 1264 q 605 1167 639 1201 q 514 1132 571 1132 z "},"Z":{"ha":833,"x_min":118,"x_max":715,"o":"m 118 0 l 118 125 l 575 900 l 125 900 l 125 1014 l 701 1014 l 701 889 l 244 114 l 715 114 l 715 0 l 118 0 z "},"Ź":{"ha":833,"x_min":118,"x_max":715,"o":"m 118 0 l 118 125 l 575 900 l 125 900 l 125 1014 l 701 1014 l 701 889 l 244 114 l 715 114 l 715 0 l 118 0 m 336 1125 l 483 1319 l 618 1319 l 464 1125 l 336 1125 z "},"Ž":{"ha":833,"x_min":118,"x_max":715,"o":"m 118 0 l 118 125 l 575 900 l 125 900 l 125 1014 l 701 1014 l 701 889 l 244 114 l 715 114 l 715 0 l 118 0 m 360 1125 l 165 1319 l 303 1319 l 417 1211 l 528 1319 l 668 1319 l 475 1125 l 360 1125 z "},"Ż":{"ha":833,"x_min":118,"x_max":715,"o":"m 118 0 l 118 125 l 575 900 l 125 900 l 125 1014 l 701 1014 l 701 889 l 244 114 l 715 114 l 715 0 l 118 0 m 417 1133 q 344 1158 371 1133 q 318 1222 318 1182 q 344 1287 318 1263 q 417 1311 371 1311 q 489 1287 463 1311 q 515 1222 515 1263 q 489 1158 515 1182 q 417 1133 463 1133 z "},"a":{"ha":833,"x_min":90,"x_max":708,"o":"m 350 -14 q 160 48 229 -14 q 90 215 90 110 q 160 383 90 322 q 347 444 229 444 l 583 444 l 583 521 q 541 630 583 592 q 421 668 499 668 q 307 640 353 668 q 254 563 261 611 l 129 563 q 222 719 142 661 q 424 778 303 778 q 632 710 556 778 q 708 525 708 642 l 708 0 l 586 0 l 586 146 l 565 146 l 586 167 q 522 35 586 83 q 350 -14 457 -14 m 381 85 q 526 129 469 85 q 583 243 583 174 l 583 351 l 350 351 q 251 317 288 351 q 215 222 215 282 q 259 122 215 158 q 381 85 303 85 z "},"á":{"ha":833,"x_min":90,"x_max":708,"o":"m 350 -14 q 160 48 229 -14 q 90 215 90 110 q 160 383 90 322 q 347 444 229 444 l 583 444 l 583 521 q 541 630 583 592 q 421 668 499 668 q 307 640 353 668 q 254 563 261 611 l 129 563 q 222 719 142 661 q 424 778 303 778 q 632 710 556 778 q 708 525 708 642 l 708 0 l 586 0 l 586 146 l 565 146 l 586 167 q 522 35 586 83 q 350 -14 457 -14 m 381 85 q 526 129 469 85 q 583 243 583 174 l 583 351 l 350 351 q 251 317 288 351 q 215 222 215 282 q 259 122 215 158 q 381 85 303 85 m 343 896 l 490 1090 l 625 1090 l 471 896 l 343 896 z "},"ă":{"ha":833,"x_min":90,"x_max":708,"o":"m 350 -14 q 160 48 229 -14 q 90 215 90 110 q 160 383 90 322 q 347 444 229 444 l 583 444 l 583 521 q 541 630 583 592 q 421 668 499 668 q 307 640 353 668 q 254 563 261 611 l 129 563 q 222 719 142 661 q 424 778 303 778 q 632 710 556 778 q 708 525 708 642 l 708 0 l 586 0 l 586 146 l 565 146 l 586 167 q 522 35 586 83 q 350 -14 457 -14 m 381 85 q 526 129 469 85 q 583 243 583 174 l 583 351 l 350 351 q 251 317 288 351 q 215 222 215 282 q 259 122 215 158 q 381 85 303 85 m 424 889 q 263 944 324 889 q 201 1090 201 1000 l 300 1090 q 333 1003 300 1036 q 422 969 367 969 q 513 1003 479 969 q 547 1090 547 1036 l 646 1090 q 585 944 646 1000 q 424 889 524 889 z "},"ắ":{"ha":833,"x_min":90,"x_max":708,"o":"m 350 -14 q 160 48 229 -14 q 90 215 90 110 q 160 383 90 322 q 347 444 229 444 l 583 444 l 583 521 q 541 630 583 592 q 421 668 499 668 q 307 640 353 668 q 254 563 261 611 l 129 563 q 222 719 142 661 q 424 778 303 778 q 632 710 556 778 q 708 525 708 642 l 708 0 l 586 0 l 586 146 l 565 146 l 586 167 q 522 35 586 83 q 350 -14 457 -14 m 381 85 q 526 129 469 85 q 583 243 583 174 l 583 351 l 350 351 q 251 317 288 351 q 215 222 215 282 q 259 122 215 158 q 381 85 303 85 m 417 889 q 246 939 311 889 q 181 1069 181 989 l 278 1069 q 316 999 278 1026 q 417 972 354 972 q 517 999 479 972 q 556 1069 556 1026 l 653 1069 q 588 939 653 989 q 417 889 524 889 m 329 1056 l 489 1236 l 622 1236 l 456 1056 l 329 1056 z "},"ặ":{"ha":833,"x_min":90,"x_max":708,"o":"m 422 889 q 261 944 322 889 q 200 1090 200 1000 l 299 1090 q 332 1003 299 1036 q 421 969 365 969 q 512 1003 478 969 q 546 1090 546 1036 l 644 1090 q 583 944 644 1000 q 422 889 522 889 m 350 -14 q 160 48 229 -14 q 90 215 90 110 q 160 383 90 322 q 347 444 229 444 l 583 444 l 583 521 q 541 630 583 592 q 421 668 499 668 q 307 640 353 668 q 254 563 261 611 l 129 563 q 222 719 142 661 q 424 778 303 778 q 632 710 556 778 q 708 525 708 642 l 708 0 l 586 0 l 586 146 l 565 146 l 586 167 q 522 35 586 83 q 350 -14 457 -14 m 381 85 q 526 129 469 85 q 583 243 583 174 l 583 351 l 350 351 q 251 317 288 351 q 215 222 215 282 q 259 122 215 158 q 381 85 303 85 m 424 -296 q 351 -272 378 -296 q 325 -208 325 -249 q 351 -142 325 -167 q 424 -118 378 -118 q 496 -142 469 -118 q 522 -208 522 -167 q 496 -272 522 -249 q 424 -296 469 -296 z "},"ằ":{"ha":833,"x_min":90,"x_max":708,"o":"m 350 -14 q 160 48 229 -14 q 90 215 90 110 q 160 383 90 322 q 347 444 229 444 l 583 444 l 583 521 q 541 630 583 592 q 421 668 499 668 q 307 640 353 668 q 254 563 261 611 l 129 563 q 222 719 142 661 q 424 778 303 778 q 632 710 556 778 q 708 525 708 642 l 708 0 l 586 0 l 586 146 l 565 146 l 586 167 q 522 35 586 83 q 350 -14 457 -14 m 381 85 q 526 129 469 85 q 583 243 583 174 l 583 351 l 350 351 q 251 317 288 351 q 215 222 215 282 q 259 122 215 158 q 381 85 303 85 m 417 889 q 246 939 311 889 q 181 1069 181 989 l 278 1069 q 316 999 278 1026 q 417 972 354 972 q 517 999 479 972 q 556 1069 556 1026 l 653 1069 q 588 939 653 989 q 417 889 524 889 m 378 1056 l 211 1236 l 344 1236 l 504 1056 l 378 1056 z "},"ẳ":{"ha":833,"x_min":90,"x_max":708,"o":"m 350 -14 q 160 48 229 -14 q 90 215 90 110 q 160 383 90 322 q 347 444 229 444 l 583 444 l 583 521 q 541 630 583 592 q 421 668 499 668 q 307 640 353 668 q 254 563 261 611 l 129 563 q 222 719 142 661 q 424 778 303 778 q 632 710 556 778 q 708 525 708 642 l 708 0 l 586 0 l 586 146 l 565 146 l 586 167 q 522 35 586 83 q 350 -14 457 -14 m 381 85 q 526 129 469 85 q 583 243 583 174 l 583 351 l 350 351 q 251 317 288 351 q 215 222 215 282 q 259 122 215 158 q 381 85 303 85 m 417 889 q 246 939 311 889 q 181 1069 181 989 l 278 1069 q 316 999 278 1026 q 417 972 354 972 q 517 999 479 972 q 556 1069 556 1026 l 653 1069 q 588 939 653 989 q 417 889 524 889 m 351 1056 l 414 1140 q 426 1175 426 1157 q 417 1199 426 1190 q 389 1208 407 1208 l 313 1208 l 313 1292 l 403 1292 q 498 1265 463 1292 q 533 1193 533 1238 q 527 1158 533 1175 q 510 1125 521 1140 l 461 1056 l 351 1056 z "},"ẵ":{"ha":833,"x_min":90,"x_max":708,"o":"m 350 -14 q 160 48 229 -14 q 90 215 90 110 q 160 383 90 322 q 347 444 229 444 l 583 444 l 583 521 q 541 630 583 592 q 421 668 499 668 q 307 640 353 668 q 254 563 261 611 l 129 563 q 222 719 142 661 q 424 778 303 778 q 632 710 556 778 q 708 525 708 642 l 708 0 l 586 0 l 586 146 l 565 146 l 586 167 q 522 35 586 83 q 350 -14 457 -14 m 381 85 q 526 129 469 85 q 583 243 583 174 l 583 351 l 350 351 q 251 317 288 351 q 215 222 215 282 q 259 122 215 158 q 381 85 303 85 m 417 896 q 256 946 317 896 q 194 1076 194 996 l 285 1076 q 321 1006 285 1033 q 415 978 357 978 q 512 1006 475 978 q 549 1076 549 1033 l 639 1076 q 578 946 639 996 q 417 896 517 896 m 508 1128 q 440 1141 465 1128 q 397 1172 414 1154 q 365 1202 381 1189 q 326 1215 350 1215 q 296 1205 307 1215 q 285 1174 285 1194 l 285 1139 l 194 1139 l 194 1167 q 231 1256 194 1222 q 325 1289 267 1289 q 395 1276 369 1289 q 437 1245 421 1263 q 468 1215 453 1228 q 507 1201 483 1201 q 549 1243 549 1201 l 549 1278 l 639 1278 l 639 1250 q 603 1161 639 1194 q 508 1128 567 1128 z "},"ǎ":{"ha":833,"x_min":90,"x_max":708,"o":"m 350 -14 q 160 48 229 -14 q 90 215 90 110 q 160 383 90 322 q 347 444 229 444 l 583 444 l 583 521 q 541 630 583 592 q 421 668 499 668 q 307 640 353 668 q 254 563 261 611 l 129 563 q 222 719 142 661 q 424 778 303 778 q 632 710 556 778 q 708 525 708 642 l 708 0 l 586 0 l 586 146 l 565 146 l 586 167 q 522 35 586 83 q 350 -14 457 -14 m 381 85 q 526 129 469 85 q 583 243 583 174 l 583 351 l 350 351 q 251 317 288 351 q 215 222 215 282 q 259 122 215 158 q 381 85 303 85 m 367 896 l 172 1090 l 310 1090 l 424 982 l 535 1090 l 675 1090 l 482 896 l 367 896 z "},"â":{"ha":833,"x_min":90,"x_max":708,"o":"m 350 -14 q 160 48 229 -14 q 90 215 90 110 q 160 383 90 322 q 347 444 229 444 l 583 444 l 583 521 q 541 630 583 592 q 421 668 499 668 q 307 640 353 668 q 254 563 261 611 l 129 563 q 222 719 142 661 q 424 778 303 778 q 632 710 556 778 q 708 525 708 642 l 708 0 l 586 0 l 586 146 l 565 146 l 586 167 q 522 35 586 83 q 350 -14 457 -14 m 381 85 q 526 129 469 85 q 583 243 583 174 l 583 351 l 350 351 q 251 317 288 351 q 215 222 215 282 q 259 122 215 158 q 381 85 303 85 m 172 896 l 365 1090 l 481 1090 l 675 896 l 538 896 l 424 1004 l 313 896 l 172 896 z "},"ấ":{"ha":833,"x_min":90,"x_max":868,"o":"m 350 -14 q 160 48 229 -14 q 90 215 90 110 q 160 383 90 322 q 347 444 229 444 l 583 444 l 583 521 q 541 630 583 592 q 421 668 499 668 q 307 640 353 668 q 254 563 261 611 l 129 563 q 222 719 142 661 q 424 778 303 778 q 632 710 556 778 q 708 525 708 642 l 708 0 l 586 0 l 586 146 l 565 146 l 586 167 q 522 35 586 83 q 350 -14 457 -14 m 381 85 q 526 129 469 85 q 583 243 583 174 l 583 351 l 350 351 q 251 317 288 351 q 215 222 215 282 q 259 122 215 158 q 381 85 303 85 m 569 1056 l 729 1250 l 868 1250 l 701 1056 l 569 1056 m 167 896 l 358 1090 l 475 1090 l 668 896 l 528 896 l 417 1004 l 304 896 l 167 896 z "},"ậ":{"ha":833,"x_min":90,"x_max":708,"o":"m 172 896 l 365 1090 l 481 1090 l 675 896 l 538 896 l 424 1004 l 313 896 l 172 896 m 350 -14 q 160 48 229 -14 q 90 215 90 110 q 160 383 90 322 q 347 444 229 444 l 583 444 l 583 521 q 541 630 583 592 q 421 668 499 668 q 307 640 353 668 q 254 563 261 611 l 129 563 q 222 719 142 661 q 424 778 303 778 q 632 710 556 778 q 708 525 708 642 l 708 0 l 586 0 l 586 146 l 565 146 l 586 167 q 522 35 586 83 q 350 -14 457 -14 m 381 85 q 526 129 469 85 q 583 243 583 174 l 583 351 l 350 351 q 251 317 288 351 q 215 222 215 282 q 259 122 215 158 q 381 85 303 85 m 424 -296 q 351 -272 378 -296 q 325 -208 325 -249 q 351 -142 325 -167 q 424 -118 378 -118 q 496 -142 469 -118 q 522 -208 522 -167 q 496 -272 522 -249 q 424 -296 469 -296 z "},"ầ":{"ha":833,"x_min":90,"x_max":757,"o":"m 350 -14 q 160 48 229 -14 q 90 215 90 110 q 160 383 90 322 q 347 444 229 444 l 583 444 l 583 521 q 541 630 583 592 q 421 668 499 668 q 307 640 353 668 q 254 563 261 611 l 129 563 q 222 719 142 661 q 424 778 303 778 q 632 710 556 778 q 708 525 708 642 l 708 0 l 586 0 l 586 146 l 565 146 l 586 167 q 522 35 586 83 q 350 -14 457 -14 m 381 85 q 526 129 469 85 q 583 243 583 174 l 583 351 l 350 351 q 251 317 288 351 q 215 222 215 282 q 259 122 215 158 q 381 85 303 85 m 625 1056 l 444 1250 l 583 1250 l 757 1056 l 625 1056 m 167 896 l 358 1090 l 475 1090 l 668 896 l 528 896 l 417 1004 l 304 896 l 167 896 z "},"ẩ":{"ha":833,"x_min":90,"x_max":764,"o":"m 350 -14 q 160 48 229 -14 q 90 215 90 110 q 160 383 90 322 q 347 444 229 444 l 583 444 l 583 521 q 541 630 583 592 q 421 668 499 668 q 307 640 353 668 q 254 563 261 611 l 129 563 q 222 719 142 661 q 424 778 303 778 q 632 710 556 778 q 708 525 708 642 l 708 0 l 586 0 l 586 146 l 565 146 l 586 167 q 522 35 586 83 q 350 -14 457 -14 m 381 85 q 526 129 469 85 q 583 243 583 174 l 583 351 l 350 351 q 251 317 288 351 q 215 222 215 282 q 259 122 215 158 q 381 85 303 85 m 588 1056 l 650 1140 q 663 1174 663 1160 q 651 1199 663 1190 q 618 1208 639 1208 l 549 1208 l 549 1292 l 625 1292 q 726 1264 689 1292 q 764 1188 764 1236 q 758 1158 764 1172 q 740 1125 753 1143 l 692 1056 l 588 1056 m 167 896 l 358 1090 l 475 1090 l 668 896 l 528 896 l 417 1004 l 304 896 l 167 896 z "},"ẫ":{"ha":833,"x_min":90,"x_max":708,"o":"m 350 -14 q 160 48 229 -14 q 90 215 90 110 q 160 383 90 322 q 347 444 229 444 l 583 444 l 583 521 q 541 630 583 592 q 421 668 499 668 q 307 640 353 668 q 254 563 261 611 l 129 563 q 222 719 142 661 q 424 778 303 778 q 632 710 556 778 q 708 525 708 642 l 708 0 l 586 0 l 586 146 l 565 146 l 586 167 q 522 35 586 83 q 350 -14 457 -14 m 381 85 q 526 129 469 85 q 583 243 583 174 l 583 351 l 350 351 q 251 317 288 351 q 215 222 215 282 q 259 122 215 158 q 381 85 303 85 m 508 1128 q 440 1141 465 1128 q 397 1172 414 1154 q 365 1202 381 1189 q 326 1215 350 1215 q 296 1205 307 1215 q 285 1174 285 1194 l 285 1139 l 194 1139 l 194 1167 q 231 1256 194 1222 q 325 1289 267 1289 q 395 1276 369 1289 q 437 1245 421 1263 q 468 1215 453 1228 q 507 1201 483 1201 q 549 1243 549 1201 l 549 1278 l 639 1278 l 639 1250 q 603 1161 639 1194 q 508 1128 567 1128 m 167 896 l 358 1090 l 475 1090 l 668 896 l 528 896 l 417 1004 l 304 896 l 167 896 z "},"ä":{"ha":833,"x_min":90,"x_max":708,"o":"m 350 -14 q 160 48 229 -14 q 90 215 90 110 q 160 383 90 322 q 347 444 229 444 l 583 444 l 583 521 q 541 630 583 592 q 421 668 499 668 q 307 640 353 668 q 254 563 261 611 l 129 563 q 222 719 142 661 q 424 778 303 778 q 632 710 556 778 q 708 525 708 642 l 708 0 l 586 0 l 586 146 l 565 146 l 586 167 q 522 35 586 83 q 350 -14 457 -14 m 381 85 q 526 129 469 85 q 583 243 583 174 l 583 351 l 350 351 q 251 317 288 351 q 215 222 215 282 q 259 122 215 158 q 381 85 303 85 m 578 901 q 513 925 538 901 q 489 989 489 949 q 513 1055 489 1031 q 578 1079 538 1079 q 642 1055 618 1079 q 667 989 667 1031 q 642 925 667 949 q 578 901 618 901 m 269 901 q 205 925 229 901 q 181 989 181 949 q 205 1055 181 1031 q 269 1079 229 1079 q 334 1055 310 1079 q 358 989 358 1031 q 334 925 358 949 q 269 901 310 901 z "},"ạ":{"ha":833,"x_min":90,"x_max":708,"o":"m 350 -14 q 160 48 229 -14 q 90 215 90 110 q 160 383 90 322 q 347 444 229 444 l 583 444 l 583 521 q 541 630 583 592 q 421 668 499 668 q 307 640 353 668 q 254 563 261 611 l 129 563 q 222 719 142 661 q 424 778 303 778 q 632 710 556 778 q 708 525 708 642 l 708 0 l 586 0 l 586 146 l 565 146 l 586 167 q 522 35 586 83 q 350 -14 457 -14 m 381 85 q 526 129 469 85 q 583 243 583 174 l 583 351 l 350 351 q 251 317 288 351 q 215 222 215 282 q 259 122 215 158 q 381 85 303 85 m 424 -296 q 351 -272 378 -296 q 325 -208 325 -249 q 351 -142 325 -167 q 424 -118 378 -118 q 496 -142 469 -118 q 522 -208 522 -167 q 496 -272 522 -249 q 424 -296 469 -296 z "},"à":{"ha":833,"x_min":90,"x_max":708,"o":"m 350 -14 q 160 48 229 -14 q 90 215 90 110 q 160 383 90 322 q 347 444 229 444 l 583 444 l 583 521 q 541 630 583 592 q 421 668 499 668 q 307 640 353 668 q 254 563 261 611 l 129 563 q 222 719 142 661 q 424 778 303 778 q 632 710 556 778 q 708 525 708 642 l 708 0 l 586 0 l 586 146 l 565 146 l 586 167 q 522 35 586 83 q 350 -14 457 -14 m 381 85 q 526 129 469 85 q 583 243 583 174 l 583 351 l 350 351 q 251 317 288 351 q 215 222 215 282 q 259 122 215 158 q 381 85 303 85 m 378 896 l 218 1090 l 357 1090 l 510 896 l 378 896 z "},"ả":{"ha":833,"x_min":90,"x_max":708,"o":"m 350 -14 q 160 48 229 -14 q 90 215 90 110 q 160 383 90 322 q 347 444 229 444 l 583 444 l 583 521 q 541 630 583 592 q 421 668 499 668 q 307 640 353 668 q 254 563 261 611 l 129 563 q 222 719 142 661 q 424 778 303 778 q 632 710 556 778 q 708 525 708 642 l 708 0 l 586 0 l 586 146 l 565 146 l 586 167 q 522 35 586 83 q 350 -14 457 -14 m 381 85 q 526 129 469 85 q 583 243 583 174 l 583 351 l 350 351 q 251 317 288 351 q 215 222 215 282 q 259 122 215 158 q 381 85 303 85 m 365 896 l 435 983 q 454 1028 454 1010 q 410 1056 454 1056 l 299 1056 l 299 1146 l 444 1146 q 530 1119 497 1146 q 563 1043 563 1092 q 539 968 563 999 l 483 896 l 365 896 z "},"ā":{"ha":833,"x_min":90,"x_max":708,"o":"m 350 -14 q 160 48 229 -14 q 90 215 90 110 q 160 383 90 322 q 347 444 229 444 l 583 444 l 583 521 q 541 630 583 592 q 421 668 499 668 q 307 640 353 668 q 254 563 261 611 l 129 563 q 222 719 142 661 q 424 778 303 778 q 632 710 556 778 q 708 525 708 642 l 708 0 l 586 0 l 586 146 l 565 146 l 586 167 q 522 35 586 83 q 350 -14 457 -14 m 381 85 q 526 129 469 85 q 583 243 583 174 l 583 351 l 350 351 q 251 317 288 351 q 215 222 215 282 q 259 122 215 158 q 381 85 303 85 m 201 931 l 201 1035 l 646 1035 l 646 931 l 201 931 z "},"ą":{"ha":833,"x_min":90,"x_max":779,"o":"m 671 -282 q 548 -245 594 -282 q 501 -153 501 -208 q 528 -72 501 -112 q 619 14 554 -32 l 708 0 q 640 -69 661 -39 q 619 -129 619 -100 q 640 -179 619 -160 q 696 -199 661 -199 l 779 -199 l 779 -282 l 671 -282 m 350 -14 q 160 48 229 -14 q 90 215 90 110 q 160 383 90 322 q 347 444 229 444 l 583 444 l 583 521 q 541 630 583 592 q 421 668 499 668 q 307 640 353 668 q 254 563 261 611 l 129 563 q 222 719 142 661 q 424 778 303 778 q 632 710 556 778 q 708 525 708 642 l 708 0 l 586 0 l 586 146 l 565 146 l 586 167 q 522 35 586 83 q 350 -14 457 -14 m 381 85 q 526 129 469 85 q 583 243 583 174 l 583 351 l 350 351 q 251 317 288 351 q 215 222 215 282 q 259 122 215 158 q 381 85 303 85 z "},"å":{"ha":833,"x_min":90,"x_max":708,"o":"m 350 -14 q 160 48 229 -14 q 90 215 90 110 q 160 383 90 322 q 347 444 229 444 l 583 444 l 583 521 q 541 630 583 592 q 421 668 499 668 q 307 640 353 668 q 254 563 261 611 l 129 563 q 222 719 142 661 q 424 778 303 778 q 632 710 556 778 q 708 525 708 642 l 708 0 l 586 0 l 586 146 l 565 146 l 586 167 q 522 35 586 83 q 350 -14 457 -14 m 381 85 q 526 129 469 85 q 583 243 583 174 l 583 351 l 350 351 q 251 317 288 351 q 215 222 215 282 q 259 122 215 158 q 381 85 303 85 m 424 844 q 303 888 349 844 q 257 1003 257 932 q 303 1117 257 1074 q 424 1161 349 1161 q 544 1117 499 1161 q 590 1003 590 1074 q 544 888 590 932 q 424 844 499 844 m 424 918 q 484 941 461 918 q 507 1003 507 964 q 484 1065 507 1042 q 424 1089 461 1089 q 363 1065 386 1089 q 340 1003 340 1042 q 363 941 340 964 q 424 918 386 918 z "},"ã":{"ha":833,"x_min":90,"x_max":708,"o":"m 350 -14 q 160 48 229 -14 q 90 215 90 110 q 160 383 90 322 q 347 444 229 444 l 583 444 l 583 521 q 541 630 583 592 q 421 668 499 668 q 307 640 353 668 q 254 563 261 611 l 129 563 q 222 719 142 661 q 424 778 303 778 q 632 710 556 778 q 708 525 708 642 l 708 0 l 586 0 l 586 146 l 565 146 l 586 167 q 522 35 586 83 q 350 -14 457 -14 m 381 85 q 526 129 469 85 q 583 243 583 174 l 583 351 l 350 351 q 251 317 288 351 q 215 222 215 282 q 259 122 215 158 q 381 85 303 85 m 521 903 q 453 917 479 903 q 408 951 426 932 q 374 985 390 971 q 333 1000 357 1000 q 303 988 315 1000 q 292 951 292 976 l 292 910 l 201 910 l 201 951 q 236 1049 201 1014 q 326 1083 271 1083 q 394 1069 368 1083 q 439 1035 421 1054 q 474 1001 457 1015 q 514 986 490 986 q 544 998 533 986 q 556 1035 556 1010 l 556 1076 l 646 1076 l 646 1035 q 612 938 646 972 q 521 903 578 903 z "},"æ":{"ha":833,"x_min":49,"x_max":785,"o":"m 236 -14 q 99 39 150 -14 q 49 181 49 92 l 49 264 q 106 401 49 350 q 261 451 164 451 l 364 451 l 364 554 q 342 643 364 615 q 271 671 319 671 q 208 647 232 671 q 183 583 183 624 l 65 583 q 116 724 65 671 q 250 778 167 778 q 340 760 304 778 q 395 716 376 742 q 418 667 414 690 l 424 667 q 446 716 428 690 q 498 760 464 742 q 583 778 532 778 q 731 718 678 778 q 785 556 785 658 l 785 354 l 476 354 l 476 208 q 502 125 476 157 q 569 93 528 93 q 640 117 614 93 q 667 181 667 140 l 785 181 q 729 40 785 93 q 583 -14 674 -14 q 497 4 532 -14 q 445 48 463 22 q 424 97 428 74 l 418 97 q 393 48 414 74 q 334 4 372 22 q 236 -14 296 -14 m 264 93 q 336 125 308 93 q 364 208 364 157 l 364 354 l 264 354 q 197 330 221 354 q 174 264 174 306 l 174 181 q 198 117 174 140 q 264 93 222 93 m 476 451 l 667 451 l 667 556 q 641 640 667 608 q 569 671 615 671 q 501 640 526 671 q 476 556 476 608 l 476 451 z "},"ǽ":{"ha":833,"x_min":49,"x_max":785,"o":"m 236 -14 q 99 39 150 -14 q 49 181 49 92 l 49 264 q 106 401 49 350 q 261 451 164 451 l 364 451 l 364 554 q 342 643 364 615 q 271 671 319 671 q 208 647 232 671 q 183 583 183 624 l 65 583 q 116 724 65 671 q 250 778 167 778 q 340 760 304 778 q 395 716 376 742 q 418 667 414 690 l 424 667 q 446 716 428 690 q 498 760 464 742 q 583 778 532 778 q 731 718 678 778 q 785 556 785 658 l 785 354 l 476 354 l 476 208 q 502 125 476 157 q 569 93 528 93 q 640 117 614 93 q 667 181 667 140 l 785 181 q 729 40 785 93 q 583 -14 674 -14 q 497 4 532 -14 q 445 48 463 22 q 424 97 428 74 l 418 97 q 393 48 414 74 q 334 4 372 22 q 236 -14 296 -14 m 264 93 q 336 125 308 93 q 364 208 364 157 l 364 354 l 264 354 q 197 330 221 354 q 174 264 174 306 l 174 181 q 198 117 174 140 q 264 93 222 93 m 476 451 l 667 451 l 667 556 q 641 640 667 608 q 569 671 615 671 q 501 640 526 671 q 476 556 476 608 l 476 451 m 336 896 l 483 1090 l 618 1090 l 464 896 l 336 896 z "},"b":{"ha":833,"x_min":128,"x_max":715,"o":"m 461 -14 q 310 37 367 -14 q 253 175 253 88 l 278 146 l 253 146 l 253 0 l 128 0 l 128 1014 l 253 1014 l 253 792 l 250 618 l 278 618 l 253 589 q 310 726 253 675 q 461 778 368 778 q 646 701 576 778 q 715 493 715 625 l 715 269 q 646 63 715 139 q 461 -14 576 -14 m 419 94 q 544 142 499 94 q 590 278 590 189 l 590 486 q 544 622 590 575 q 419 669 499 669 q 298 621 343 669 q 253 486 253 572 l 253 278 q 298 143 253 192 q 419 94 343 94 z "},"c":{"ha":833,"x_min":118,"x_max":719,"o":"m 422 -14 q 262 21 331 -14 q 156 122 193 56 q 118 278 118 188 l 118 486 q 156 643 118 578 q 262 743 193 708 q 422 778 331 778 q 635 707 554 778 q 719 514 715 636 l 594 514 q 545 627 590 588 q 422 667 500 667 q 292 620 340 667 q 243 488 243 574 l 243 278 q 292 144 243 192 q 422 97 340 97 q 545 138 500 97 q 594 250 590 178 l 719 250 q 635 57 715 128 q 422 -14 554 -14 z "},"ć":{"ha":833,"x_min":118,"x_max":719,"o":"m 422 -14 q 262 21 331 -14 q 156 122 193 56 q 118 278 118 188 l 118 486 q 156 643 118 578 q 262 743 193 708 q 422 778 331 778 q 635 707 554 778 q 719 514 715 636 l 594 514 q 545 627 590 588 q 422 667 500 667 q 292 620 340 667 q 243 488 243 574 l 243 278 q 292 144 243 192 q 422 97 340 97 q 545 138 500 97 q 594 250 590 178 l 719 250 q 635 57 715 128 q 422 -14 554 -14 m 342 896 l 489 1090 l 624 1090 l 469 896 l 342 896 z "},"č":{"ha":833,"x_min":118,"x_max":719,"o":"m 422 -14 q 262 21 331 -14 q 156 122 193 56 q 118 278 118 188 l 118 486 q 156 643 118 578 q 262 743 193 708 q 422 778 331 778 q 635 707 554 778 q 719 514 715 636 l 594 514 q 545 627 590 588 q 422 667 500 667 q 292 620 340 667 q 243 488 243 574 l 243 278 q 292 144 243 192 q 422 97 340 97 q 545 138 500 97 q 594 250 590 178 l 719 250 q 635 57 715 128 q 422 -14 554 -14 m 365 896 l 171 1090 l 308 1090 l 422 982 l 533 1090 l 674 1090 l 481 896 l 365 896 z "},"ç":{"ha":833,"x_min":118,"x_max":719,"o":"m 290 -282 l 290 -206 l 388 -206 q 437 -190 418 -206 q 456 -156 456 -174 q 417 -114 456 -132 q 310 -96 379 -96 l 358 36 l 438 36 l 408 -49 q 483 -67 444 -53 q 549 -106 522 -81 q 575 -167 575 -131 q 529 -248 575 -214 q 408 -282 483 -282 l 290 -282 m 422 -14 q 262 21 331 -14 q 156 122 193 56 q 118 278 118 188 l 118 486 q 156 643 118 578 q 262 743 193 708 q 422 778 331 778 q 635 707 554 778 q 719 514 715 636 l 594 514 q 545 627 590 588 q 422 667 500 667 q 292 620 340 667 q 243 488 243 574 l 243 278 q 292 144 243 192 q 422 97 340 97 q 545 138 500 97 q 594 250 590 178 l 719 250 q 635 57 715 128 q 422 -14 554 -14 z "},"ĉ":{"ha":833,"x_min":118,"x_max":719,"o":"m 422 -14 q 262 21 331 -14 q 156 122 193 56 q 118 278 118 188 l 118 486 q 156 643 118 578 q 262 743 193 708 q 422 778 331 778 q 635 707 554 778 q 719 514 715 636 l 594 514 q 545 627 590 588 q 422 667 500 667 q 292 620 340 667 q 243 488 243 574 l 243 278 q 292 144 243 192 q 422 97 340 97 q 545 138 500 97 q 594 250 590 178 l 719 250 q 635 57 715 128 q 422 -14 554 -14 m 165 896 l 358 1090 l 474 1090 l 668 896 l 531 896 l 417 1004 l 306 896 l 165 896 z "},"ċ":{"ha":833,"x_min":118,"x_max":719,"o":"m 422 -14 q 262 21 331 -14 q 156 122 193 56 q 118 278 118 188 l 118 486 q 156 643 118 578 q 262 743 193 708 q 422 778 331 778 q 635 707 554 778 q 719 514 715 636 l 594 514 q 545 627 590 588 q 422 667 500 667 q 292 620 340 667 q 243 488 243 574 l 243 278 q 292 144 243 192 q 422 97 340 97 q 545 138 500 97 q 594 250 590 178 l 719 250 q 635 57 715 128 q 422 -14 554 -14 m 417 901 q 344 925 371 901 q 318 989 318 949 q 344 1055 318 1031 q 417 1079 371 1079 q 489 1055 463 1079 q 515 989 515 1031 q 489 925 515 949 q 417 901 463 901 z "},"d":{"ha":833,"x_min":118,"x_max":706,"o":"m 372 -14 q 188 63 258 -14 q 118 269 118 139 l 118 493 q 188 701 118 625 q 372 778 257 778 q 524 726 467 778 q 581 589 581 675 l 556 618 l 583 618 l 581 792 l 581 1014 l 706 1014 l 706 0 l 581 0 l 581 146 l 556 146 l 581 175 q 524 37 581 88 q 372 -14 467 -14 m 414 94 q 536 143 492 94 q 581 278 581 192 l 581 486 q 536 621 581 572 q 414 669 492 669 q 289 622 335 669 q 243 486 243 575 l 243 278 q 289 142 243 189 q 414 94 335 94 z "},"ð":{"ha":833,"x_min":97,"x_max":736,"o":"m 415 -14 q 249 25 321 -14 q 137 135 176 64 q 97 299 97 206 q 134 460 97 392 q 237 567 171 529 q 390 606 303 606 q 463 593 431 606 q 517 563 494 581 q 549 528 539 544 l 568 528 q 540 578 563 542 q 479 667 518 615 l 389 793 l 163 688 l 163 799 l 329 876 l 229 1014 l 374 1014 l 435 925 l 640 1021 l 640 910 l 493 842 l 601 685 q 699 497 663 596 q 736 310 736 399 q 696 140 736 213 q 584 26 656 67 q 415 -14 513 -14 m 415 97 q 558 153 504 97 q 611 299 611 208 q 587 405 611 360 q 519 475 563 450 q 415 500 475 500 q 276 444 329 500 q 222 299 222 389 q 276 153 222 208 q 415 97 329 97 z "},"ď":{"ha":833,"x_min":88,"x_max":833,"o":"m 708 764 l 708 1014 l 833 1014 l 819 764 l 708 764 m 317 -14 q 149 61 211 -14 q 88 263 88 136 l 88 500 q 149 703 88 628 q 317 778 211 778 q 453 726 403 778 q 504 589 504 675 l 479 618 l 507 618 l 504 792 l 504 1014 l 629 1014 l 629 0 l 504 0 l 504 146 l 479 146 l 504 175 q 453 38 504 89 q 317 -14 403 -14 m 358 94 q 466 141 428 94 q 504 271 504 188 l 504 493 q 466 623 504 576 q 358 669 428 669 q 251 623 290 669 q 213 493 213 576 l 213 271 q 251 141 213 188 q 358 94 290 94 z "},"đ":{"ha":833,"x_min":125,"x_max":833,"o":"m 372 -14 q 192 63 258 -14 q 125 269 125 139 l 125 410 q 191 618 125 542 q 372 694 257 694 q 522 643 467 694 q 578 506 578 592 l 553 535 l 581 535 l 578 708 l 578 1014 l 703 1014 l 703 0 l 578 0 l 578 146 l 553 146 l 578 175 q 522 37 578 88 q 372 -14 467 -14 m 414 94 q 535 143 492 94 q 578 278 578 192 l 578 403 q 535 538 578 489 q 414 586 492 586 q 292 539 335 586 q 250 403 250 492 l 250 278 q 292 142 250 189 q 414 94 335 94 m 347 792 l 347 896 l 833 896 l 833 792 l 347 792 z "},"e":{"ha":833,"x_min":118,"x_max":715,"o":"m 417 -14 q 259 22 326 -14 q 155 124 192 58 q 118 278 118 190 l 118 486 q 155 640 118 575 q 259 742 192 706 q 417 778 326 778 q 574 742 507 778 q 678 640 642 706 q 715 486 715 575 l 715 351 l 240 351 l 240 278 q 286 140 240 188 q 417 92 332 92 q 533 117 489 92 q 588 194 578 143 l 713 194 q 619 42 700 99 q 417 -14 538 -14 m 593 435 l 593 486 q 548 625 593 576 q 417 674 503 674 q 286 625 332 674 q 240 486 240 576 l 240 446 l 603 446 l 593 435 z "},"é":{"ha":833,"x_min":118,"x_max":715,"o":"m 417 -14 q 259 22 326 -14 q 155 124 192 58 q 118 278 118 190 l 118 486 q 155 640 118 575 q 259 742 192 706 q 417 778 326 778 q 574 742 507 778 q 678 640 642 706 q 715 486 715 575 l 715 351 l 240 351 l 240 278 q 286 140 240 188 q 417 92 332 92 q 533 117 489 92 q 588 194 578 143 l 713 194 q 619 42 700 99 q 417 -14 538 -14 m 593 435 l 593 486 q 548 625 593 576 q 417 674 503 674 q 286 625 332 674 q 240 486 240 576 l 240 446 l 603 446 l 593 435 m 336 896 l 483 1090 l 618 1090 l 464 896 l 336 896 z "},"ĕ":{"ha":833,"x_min":118,"x_max":715,"o":"m 417 -14 q 259 22 326 -14 q 155 124 192 58 q 118 278 118 190 l 118 486 q 155 640 118 575 q 259 742 192 706 q 417 778 326 778 q 574 742 507 778 q 678 640 642 706 q 715 486 715 575 l 715 351 l 240 351 l 240 278 q 286 140 240 188 q 417 92 332 92 q 533 117 489 92 q 588 194 578 143 l 713 194 q 619 42 700 99 q 417 -14 538 -14 m 593 435 l 593 486 q 548 625 593 576 q 417 674 503 674 q 286 625 332 674 q 240 486 240 576 l 240 446 l 603 446 l 593 435 m 417 889 q 256 944 317 889 q 194 1090 194 1000 l 293 1090 q 326 1003 293 1036 q 415 969 360 969 q 506 1003 472 969 q 540 1090 540 1036 l 639 1090 q 578 944 639 1000 q 417 889 517 889 z "},"ě":{"ha":833,"x_min":118,"x_max":715,"o":"m 417 -14 q 259 22 326 -14 q 155 124 192 58 q 118 278 118 190 l 118 486 q 155 640 118 575 q 259 742 192 706 q 417 778 326 778 q 574 742 507 778 q 678 640 642 706 q 715 486 715 575 l 715 351 l 240 351 l 240 278 q 286 140 240 188 q 417 92 332 92 q 533 117 489 92 q 588 194 578 143 l 713 194 q 619 42 700 99 q 417 -14 538 -14 m 593 435 l 593 486 q 548 625 593 576 q 417 674 503 674 q 286 625 332 674 q 240 486 240 576 l 240 446 l 603 446 l 593 435 m 360 896 l 165 1090 l 303 1090 l 417 982 l 528 1090 l 668 1090 l 475 896 l 360 896 z "},"ê":{"ha":833,"x_min":118,"x_max":715,"o":"m 417 -14 q 259 22 326 -14 q 155 124 192 58 q 118 278 118 190 l 118 486 q 155 640 118 575 q 259 742 192 706 q 417 778 326 778 q 574 742 507 778 q 678 640 642 706 q 715 486 715 575 l 715 351 l 240 351 l 240 278 q 286 140 240 188 q 417 92 332 92 q 533 117 489 92 q 588 194 578 143 l 713 194 q 619 42 700 99 q 417 -14 538 -14 m 593 435 l 593 486 q 548 625 593 576 q 417 674 503 674 q 286 625 332 674 q 240 486 240 576 l 240 446 l 603 446 l 593 435 m 165 896 l 358 1090 l 474 1090 l 668 896 l 531 896 l 417 1004 l 306 896 l 165 896 z "},"ế":{"ha":833,"x_min":118,"x_max":868,"o":"m 417 -14 q 259 22 326 -14 q 155 124 192 58 q 118 278 118 190 l 118 486 q 155 640 118 575 q 259 742 192 706 q 417 778 326 778 q 574 742 507 778 q 678 640 642 706 q 715 486 715 575 l 715 351 l 240 351 l 240 278 q 286 140 240 188 q 417 92 332 92 q 533 117 489 92 q 588 194 578 143 l 713 194 q 619 42 700 99 q 417 -14 538 -14 m 593 435 l 593 486 q 548 625 593 576 q 417 674 503 674 q 286 625 332 674 q 240 486 240 576 l 240 446 l 603 446 l 593 435 m 569 1056 l 729 1250 l 868 1250 l 701 1056 l 569 1056 m 167 896 l 358 1090 l 475 1090 l 668 896 l 528 896 l 417 1004 l 304 896 l 167 896 z "},"ệ":{"ha":833,"x_min":118,"x_max":715,"o":"m 171 896 l 364 1090 l 479 1090 l 674 896 l 536 896 l 422 1004 l 311 896 l 171 896 m 417 -14 q 259 22 326 -14 q 155 124 192 58 q 118 278 118 190 l 118 486 q 155 640 118 575 q 259 742 192 706 q 417 778 326 778 q 574 742 507 778 q 678 640 642 706 q 715 486 715 575 l 715 351 l 240 351 l 240 278 q 286 140 240 188 q 417 92 332 92 q 533 117 489 92 q 588 194 578 143 l 713 194 q 619 42 700 99 q 417 -14 538 -14 m 593 435 l 593 486 q 548 625 593 576 q 417 674 503 674 q 286 625 332 674 q 240 486 240 576 l 240 446 l 603 446 l 593 435 m 417 -296 q 344 -272 371 -296 q 318 -208 318 -249 q 344 -142 318 -167 q 417 -118 371 -118 q 489 -142 463 -118 q 515 -208 515 -167 q 489 -272 515 -249 q 417 -296 463 -296 z "},"ề":{"ha":833,"x_min":118,"x_max":757,"o":"m 417 -14 q 259 22 326 -14 q 155 124 192 58 q 118 278 118 190 l 118 486 q 155 640 118 575 q 259 742 192 706 q 417 778 326 778 q 574 742 507 778 q 678 640 642 706 q 715 486 715 575 l 715 351 l 240 351 l 240 278 q 286 140 240 188 q 417 92 332 92 q 533 117 489 92 q 588 194 578 143 l 713 194 q 619 42 700 99 q 417 -14 538 -14 m 593 435 l 593 486 q 548 625 593 576 q 417 674 503 674 q 286 625 332 674 q 240 486 240 576 l 240 446 l 603 446 l 593 435 m 625 1056 l 444 1250 l 583 1250 l 757 1056 l 625 1056 m 167 896 l 358 1090 l 475 1090 l 668 896 l 528 896 l 417 1004 l 304 896 l 167 896 z "},"ể":{"ha":833,"x_min":118,"x_max":764,"o":"m 417 -14 q 259 22 326 -14 q 155 124 192 58 q 118 278 118 190 l 118 486 q 155 640 118 575 q 259 742 192 706 q 417 778 326 778 q 574 742 507 778 q 678 640 642 706 q 715 486 715 575 l 715 351 l 240 351 l 240 278 q 286 140 240 188 q 417 92 332 92 q 533 117 489 92 q 588 194 578 143 l 713 194 q 619 42 700 99 q 417 -14 538 -14 m 593 435 l 593 486 q 548 625 593 576 q 417 674 503 674 q 286 625 332 674 q 240 486 240 576 l 240 446 l 603 446 l 593 435 m 588 1056 l 650 1140 q 663 1174 663 1160 q 651 1199 663 1190 q 618 1208 639 1208 l 549 1208 l 549 1292 l 625 1292 q 726 1264 689 1292 q 764 1188 764 1236 q 758 1158 764 1172 q 740 1125 753 1143 l 692 1056 l 588 1056 m 167 896 l 358 1090 l 475 1090 l 668 896 l 528 896 l 417 1004 l 304 896 l 167 896 z "},"ễ":{"ha":833,"x_min":118,"x_max":715,"o":"m 417 -14 q 259 22 326 -14 q 155 124 192 58 q 118 278 118 190 l 118 486 q 155 640 118 575 q 259 742 192 706 q 417 778 326 778 q 574 742 507 778 q 678 640 642 706 q 715 486 715 575 l 715 351 l 240 351 l 240 278 q 286 140 240 188 q 417 92 332 92 q 533 117 489 92 q 588 194 578 143 l 713 194 q 619 42 700 99 q 417 -14 538 -14 m 593 435 l 593 486 q 548 625 593 576 q 417 674 503 674 q 286 625 332 674 q 240 486 240 576 l 240 446 l 603 446 l 593 435 m 508 1128 q 440 1141 465 1128 q 397 1172 414 1154 q 365 1202 381 1189 q 326 1215 350 1215 q 296 1205 307 1215 q 285 1174 285 1194 l 285 1139 l 194 1139 l 194 1167 q 231 1256 194 1222 q 325 1289 267 1289 q 395 1276 369 1289 q 437 1245 421 1263 q 468 1215 453 1228 q 507 1201 483 1201 q 549 1243 549 1201 l 549 1278 l 639 1278 l 639 1250 q 603 1161 639 1194 q 508 1128 567 1128 m 167 896 l 358 1090 l 475 1090 l 668 896 l 528 896 l 417 1004 l 304 896 l 167 896 z "},"ë":{"ha":833,"x_min":118,"x_max":715,"o":"m 417 -14 q 259 22 326 -14 q 155 124 192 58 q 118 278 118 190 l 118 486 q 155 640 118 575 q 259 742 192 706 q 417 778 326 778 q 574 742 507 778 q 678 640 642 706 q 715 486 715 575 l 715 351 l 240 351 l 240 278 q 286 140 240 188 q 417 92 332 92 q 533 117 489 92 q 588 194 578 143 l 713 194 q 619 42 700 99 q 417 -14 538 -14 m 593 435 l 593 486 q 548 625 593 576 q 417 674 503 674 q 286 625 332 674 q 240 486 240 576 l 240 446 l 603 446 l 593 435 m 571 901 q 506 925 531 901 q 482 989 482 949 q 506 1055 482 1031 q 571 1079 531 1079 q 635 1055 611 1079 q 660 989 660 1031 q 635 925 660 949 q 571 901 611 901 m 263 901 q 198 925 222 901 q 174 989 174 949 q 198 1055 174 1031 q 263 1079 222 1079 q 327 1055 303 1079 q 351 989 351 1031 q 327 925 351 949 q 263 901 303 901 z "},"ė":{"ha":833,"x_min":118,"x_max":715,"o":"m 417 -14 q 259 22 326 -14 q 155 124 192 58 q 118 278 118 190 l 118 486 q 155 640 118 575 q 259 742 192 706 q 417 778 326 778 q 574 742 507 778 q 678 640 642 706 q 715 486 715 575 l 715 351 l 240 351 l 240 278 q 286 140 240 188 q 417 92 332 92 q 533 117 489 92 q 588 194 578 143 l 713 194 q 619 42 700 99 q 417 -14 538 -14 m 593 435 l 593 486 q 548 625 593 576 q 417 674 503 674 q 286 625 332 674 q 240 486 240 576 l 240 446 l 603 446 l 593 435 m 417 901 q 344 925 371 901 q 318 989 318 949 q 344 1055 318 1031 q 417 1079 371 1079 q 489 1055 463 1079 q 515 989 515 1031 q 489 925 515 949 q 417 901 463 901 z "},"ẹ":{"ha":833,"x_min":118,"x_max":715,"o":"m 417 -14 q 259 22 326 -14 q 155 124 192 58 q 118 278 118 190 l 118 486 q 155 640 118 575 q 259 742 192 706 q 417 778 326 778 q 574 742 507 778 q 678 640 642 706 q 715 486 715 575 l 715 351 l 240 351 l 240 278 q 286 140 240 188 q 417 92 332 92 q 533 117 489 92 q 588 194 578 143 l 713 194 q 619 42 700 99 q 417 -14 538 -14 m 593 435 l 593 486 q 548 625 593 576 q 417 674 503 674 q 286 625 332 674 q 240 486 240 576 l 240 446 l 603 446 l 593 435 m 417 -296 q 344 -272 371 -296 q 318 -208 318 -249 q 344 -142 318 -167 q 417 -118 371 -118 q 489 -142 463 -118 q 515 -208 515 -167 q 489 -272 515 -249 q 417 -296 463 -296 z "},"è":{"ha":833,"x_min":118,"x_max":715,"o":"m 417 -14 q 259 22 326 -14 q 155 124 192 58 q 118 278 118 190 l 118 486 q 155 640 118 575 q 259 742 192 706 q 417 778 326 778 q 574 742 507 778 q 678 640 642 706 q 715 486 715 575 l 715 351 l 240 351 l 240 278 q 286 140 240 188 q 417 92 332 92 q 533 117 489 92 q 588 194 578 143 l 713 194 q 619 42 700 99 q 417 -14 538 -14 m 593 435 l 593 486 q 548 625 593 576 q 417 674 503 674 q 286 625 332 674 q 240 486 240 576 l 240 446 l 603 446 l 593 435 m 371 896 l 211 1090 l 350 1090 l 503 896 l 371 896 z "},"ẻ":{"ha":833,"x_min":118,"x_max":715,"o":"m 417 -14 q 259 22 326 -14 q 155 124 192 58 q 118 278 118 190 l 118 486 q 155 640 118 575 q 259 742 192 706 q 417 778 326 778 q 574 742 507 778 q 678 640 642 706 q 715 486 715 575 l 715 351 l 240 351 l 240 278 q 286 140 240 188 q 417 92 332 92 q 533 117 489 92 q 588 194 578 143 l 713 194 q 619 42 700 99 q 417 -14 538 -14 m 593 435 l 593 486 q 548 625 593 576 q 417 674 503 674 q 286 625 332 674 q 240 486 240 576 l 240 446 l 603 446 l 593 435 m 358 896 l 428 983 q 447 1028 447 1010 q 403 1056 447 1056 l 292 1056 l 292 1146 l 438 1146 q 523 1119 490 1146 q 556 1043 556 1092 q 532 968 556 999 l 476 896 l 358 896 z "},"ē":{"ha":833,"x_min":118,"x_max":715,"o":"m 417 -14 q 259 22 326 -14 q 155 124 192 58 q 118 278 118 190 l 118 486 q 155 640 118 575 q 259 742 192 706 q 417 778 326 778 q 574 742 507 778 q 678 640 642 706 q 715 486 715 575 l 715 351 l 240 351 l 240 278 q 286 140 240 188 q 417 92 332 92 q 533 117 489 92 q 588 194 578 143 l 713 194 q 619 42 700 99 q 417 -14 538 -14 m 593 435 l 593 486 q 548 625 593 576 q 417 674 503 674 q 286 625 332 674 q 240 486 240 576 l 240 446 l 603 446 l 593 435 m 194 931 l 194 1035 l 639 1035 l 639 931 l 194 931 z "},"ę":{"ha":833,"x_min":122,"x_max":711,"o":"m 518 -282 q 395 -245 442 -282 q 349 -153 349 -208 q 369 -85 349 -121 q 431 -14 390 -50 q 424 -14 428 -14 q 417 -14 419 -14 q 260 22 326 -14 q 158 124 194 58 q 122 278 122 190 l 122 486 q 158 640 122 575 q 260 742 194 706 q 417 778 326 778 q 573 742 507 778 q 675 640 639 706 q 711 486 711 575 l 711 351 l 244 351 l 244 278 q 288 140 244 188 q 417 92 332 92 q 531 117 489 92 q 583 194 574 143 l 708 194 q 667 90 701 135 q 578 19 632 46 l 556 1 q 488 -69 508 -37 q 467 -129 467 -100 q 488 -179 467 -160 q 543 -199 508 -199 l 626 -199 l 626 -282 l 518 -282 m 589 390 l 589 486 q 546 625 589 576 q 417 674 503 674 q 288 625 332 674 q 244 486 244 576 l 244 446 l 644 446 l 589 390 z "},"ẽ":{"ha":833,"x_min":118,"x_max":715,"o":"m 417 -14 q 259 22 326 -14 q 155 124 192 58 q 118 278 118 190 l 118 486 q 155 640 118 575 q 259 742 192 706 q 417 778 326 778 q 574 742 507 778 q 678 640 642 706 q 715 486 715 575 l 715 351 l 240 351 l 240 278 q 286 140 240 188 q 417 92 332 92 q 533 117 489 92 q 588 194 578 143 l 713 194 q 619 42 700 99 q 417 -14 538 -14 m 593 435 l 593 486 q 548 625 593 576 q 417 674 503 674 q 286 625 332 674 q 240 486 240 576 l 240 446 l 603 446 l 593 435 m 514 903 q 446 917 472 903 q 401 951 419 932 q 367 985 383 971 q 326 1000 350 1000 q 297 988 308 1000 q 285 951 285 976 l 285 910 l 194 910 l 194 951 q 229 1049 194 1014 q 319 1083 264 1083 q 388 1069 361 1083 q 432 1035 414 1054 q 467 1001 450 1015 q 507 986 483 986 q 538 998 526 986 q 549 1035 549 1010 l 549 1076 l 639 1076 l 639 1035 q 605 938 639 972 q 514 903 571 903 z "},"ə":{"ha":833,"x_min":125,"x_max":708,"o":"m 417 -14 q 261 22 326 -14 q 160 124 196 58 q 125 278 125 190 l 125 413 l 586 413 l 586 486 q 544 624 586 576 q 417 672 503 672 q 304 647 344 672 q 253 569 264 621 l 128 569 q 218 722 140 665 q 417 778 296 778 q 572 742 507 778 q 673 640 638 706 q 708 486 708 575 l 708 278 q 673 124 708 190 q 572 22 638 58 q 417 -14 507 -14 m 417 90 q 544 139 503 90 q 586 278 586 188 l 586 318 l 238 318 l 247 329 l 247 278 q 290 139 247 188 q 417 90 332 90 z "},"f":{"ha":833,"x_min":83,"x_max":743,"o":"m 306 0 l 306 574 l 83 574 l 83 688 l 306 688 l 306 819 q 363 962 306 910 q 519 1014 419 1014 l 743 1014 l 743 900 l 519 900 q 453 880 476 900 q 431 819 431 860 l 431 688 l 743 688 l 743 574 l 431 574 l 431 0 l 306 0 z "},"g":{"ha":833,"x_min":122,"x_max":704,"o":"m 224 -250 l 224 -136 l 467 -136 q 552 -110 525 -136 q 579 -28 579 -83 l 579 69 l 582 208 l 557 208 l 581 229 q 525 97 581 146 q 376 49 469 49 q 190 126 258 49 q 122 333 122 203 l 122 494 q 190 701 122 625 q 376 778 258 778 q 525 729 469 778 q 581 597 581 681 l 557 618 l 581 618 l 581 764 l 704 764 l 704 -28 q 641 -190 704 -131 q 465 -250 578 -250 l 224 -250 m 414 157 q 536 206 492 157 q 581 340 581 254 l 581 486 q 536 621 581 572 q 414 669 492 669 q 291 622 335 669 q 247 486 247 575 l 247 340 q 291 204 247 251 q 414 157 335 157 z "},"ǵ":{"ha":833,"x_min":122,"x_max":704,"o":"m 224 -250 l 224 -136 l 467 -136 q 552 -110 525 -136 q 579 -28 579 -83 l 579 69 l 582 208 l 557 208 l 581 229 q 525 97 581 146 q 376 49 469 49 q 190 126 258 49 q 122 333 122 203 l 122 494 q 190 701 122 625 q 376 778 258 778 q 525 729 469 778 q 581 597 581 681 l 557 618 l 581 618 l 581 764 l 704 764 l 704 -28 q 641 -190 704 -131 q 465 -250 578 -250 l 224 -250 m 414 157 q 536 206 492 157 q 581 340 581 254 l 581 486 q 536 621 581 572 q 414 669 492 669 q 291 622 335 669 q 247 486 247 575 l 247 340 q 291 204 247 251 q 414 157 335 157 m 332 896 l 479 1090 l 614 1090 l 460 896 l 332 896 z "},"ğ":{"ha":833,"x_min":122,"x_max":704,"o":"m 224 -250 l 224 -136 l 467 -136 q 552 -110 525 -136 q 579 -28 579 -83 l 579 69 l 582 208 l 557 208 l 581 229 q 525 97 581 146 q 376 49 469 49 q 190 126 258 49 q 122 333 122 203 l 122 494 q 190 701 122 625 q 376 778 258 778 q 525 729 469 778 q 581 597 581 681 l 557 618 l 581 618 l 581 764 l 704 764 l 704 -28 q 641 -190 704 -131 q 465 -250 578 -250 l 224 -250 m 414 157 q 536 206 492 157 q 581 340 581 254 l 581 486 q 536 621 581 572 q 414 669 492 669 q 291 622 335 669 q 247 486 247 575 l 247 340 q 291 204 247 251 q 414 157 335 157 m 413 889 q 251 944 313 889 q 190 1090 190 1000 l 289 1090 q 322 1003 289 1036 q 411 969 356 969 q 502 1003 468 969 q 536 1090 536 1036 l 635 1090 q 574 944 635 1000 q 413 889 513 889 z "},"ǧ":{"ha":833,"x_min":122,"x_max":704,"o":"m 224 -250 l 224 -136 l 467 -136 q 552 -110 525 -136 q 579 -28 579 -83 l 579 69 l 582 208 l 557 208 l 581 229 q 525 97 581 146 q 376 49 469 49 q 190 126 258 49 q 122 333 122 203 l 122 494 q 190 701 122 625 q 376 778 258 778 q 525 729 469 778 q 581 597 581 681 l 557 618 l 581 618 l 581 764 l 704 764 l 704 -28 q 641 -190 704 -131 q 465 -250 578 -250 l 224 -250 m 414 157 q 536 206 492 157 q 581 340 581 254 l 581 486 q 536 621 581 572 q 414 669 492 669 q 291 622 335 669 q 247 486 247 575 l 247 340 q 291 204 247 251 q 414 157 335 157 m 356 896 l 161 1090 l 299 1090 l 413 982 l 524 1090 l 664 1090 l 471 896 l 356 896 z "},"ĝ":{"ha":833,"x_min":122,"x_max":704,"o":"m 224 -250 l 224 -136 l 467 -136 q 552 -110 525 -136 q 579 -28 579 -83 l 579 69 l 582 208 l 557 208 l 581 229 q 525 97 581 146 q 376 49 469 49 q 190 126 258 49 q 122 333 122 203 l 122 494 q 190 701 122 625 q 376 778 258 778 q 525 729 469 778 q 581 597 581 681 l 557 618 l 581 618 l 581 764 l 704 764 l 704 -28 q 641 -190 704 -131 q 465 -250 578 -250 l 224 -250 m 414 157 q 536 206 492 157 q 581 340 581 254 l 581 486 q 536 621 581 572 q 414 669 492 669 q 291 622 335 669 q 247 486 247 575 l 247 340 q 291 204 247 251 q 414 157 335 157 m 161 896 l 354 1090 l 469 1090 l 664 896 l 526 896 l 413 1004 l 301 896 l 161 896 z "},"ģ":{"ha":833,"x_min":122,"x_max":704,"o":"m 224 -250 l 224 -136 l 467 -136 q 552 -110 525 -136 q 579 -28 579 -83 l 579 69 l 582 208 l 557 208 l 581 229 q 525 97 581 146 q 376 49 469 49 q 190 126 258 49 q 122 333 122 203 l 122 494 q 190 701 122 625 q 376 778 258 778 q 525 729 469 778 q 581 597 581 681 l 557 618 l 581 618 l 581 764 l 704 764 l 704 -28 q 641 -190 704 -131 q 465 -250 578 -250 l 224 -250 m 414 157 q 536 206 492 157 q 581 340 581 254 l 581 486 q 536 621 581 572 q 414 669 492 669 q 291 622 335 669 q 247 486 247 575 l 247 340 q 291 204 247 251 q 414 157 335 157 m 572 1222 l 461 896 l 288 896 l 468 1222 l 572 1222 z "},"ġ":{"ha":833,"x_min":122,"x_max":704,"o":"m 224 -250 l 224 -136 l 467 -136 q 552 -110 525 -136 q 579 -28 579 -83 l 579 69 l 582 208 l 557 208 l 581 229 q 525 97 581 146 q 376 49 469 49 q 190 126 258 49 q 122 333 122 203 l 122 494 q 190 701 122 625 q 376 778 258 778 q 525 729 469 778 q 581 597 581 681 l 557 618 l 581 618 l 581 764 l 704 764 l 704 -28 q 641 -190 704 -131 q 465 -250 578 -250 l 224 -250 m 414 157 q 536 206 492 157 q 581 340 581 254 l 581 486 q 536 621 581 572 q 414 669 492 669 q 291 622 335 669 q 247 486 247 575 l 247 340 q 291 204 247 251 q 414 157 335 157 m 413 901 q 340 925 367 901 q 314 989 314 949 q 340 1055 314 1031 q 413 1079 367 1079 q 485 1055 458 1079 q 511 989 511 1031 q 485 925 511 949 q 413 901 458 901 z "},"h":{"ha":833,"x_min":128,"x_max":708,"o":"m 128 0 l 128 1014 l 253 1014 l 253 764 l 253 618 l 279 618 l 253 589 q 307 728 253 679 q 457 778 361 778 q 640 707 572 778 q 708 514 708 636 l 708 0 l 583 0 l 583 500 q 540 627 583 582 q 421 672 496 672 q 298 624 343 672 q 253 486 253 575 l 253 0 l 128 0 z "},"ħ":{"ha":833,"x_min":0,"x_max":708,"o":"m 0 792 l 0 896 l 128 896 l 128 1014 l 253 1014 l 253 896 l 486 896 l 486 792 l 253 792 l 253 681 l 253 535 l 254 535 q 317 653 264 611 q 457 694 369 694 q 640 624 572 694 q 708 431 708 553 l 708 0 l 583 0 l 583 417 q 540 544 583 499 q 421 589 496 589 q 298 540 343 589 q 253 403 253 492 l 253 0 l 128 0 l 128 792 l 0 792 z "},"ĥ":{"ha":833,"x_min":-43,"x_max":708,"o":"m 128 0 l 128 1014 l 253 1014 l 253 764 l 253 618 l 279 618 l 253 589 q 307 728 253 679 q 457 778 361 778 q 640 707 572 778 q 708 514 708 636 l 708 0 l 583 0 l 583 500 q 540 627 583 582 q 421 672 496 672 q 298 624 343 672 q 253 486 253 575 l 253 0 l 128 0 m -43 1118 l 150 1313 l 265 1313 l 460 1118 l 322 1118 l 208 1226 l 97 1118 l -43 1118 z "},"i":{"ha":833,"x_min":118,"x_max":771,"o":"m 118 0 l 118 114 l 389 114 l 389 650 l 153 650 l 153 764 l 514 764 l 514 114 l 771 114 l 771 0 l 118 0 m 438 901 q 365 925 392 901 q 339 989 339 949 q 365 1055 339 1031 q 438 1079 392 1079 q 510 1055 483 1079 q 536 989 536 1031 q 510 925 536 949 q 438 901 483 901 z "},"ı":{"ha":833,"x_min":118,"x_max":771,"o":"m 118 0 l 118 114 l 389 114 l 389 650 l 153 650 l 153 764 l 514 764 l 514 114 l 771 114 l 771 0 l 118 0 z "},"í":{"ha":833,"x_min":118,"x_max":771,"o":"m 118 0 l 118 114 l 389 114 l 389 650 l 153 650 l 153 764 l 514 764 l 514 114 l 771 114 l 771 0 l 118 0 m 357 896 l 504 1090 l 639 1090 l 485 896 l 357 896 z "},"ĭ":{"ha":833,"x_min":118,"x_max":771,"o":"m 118 0 l 118 114 l 389 114 l 389 650 l 153 650 l 153 764 l 514 764 l 514 114 l 771 114 l 771 0 l 118 0 m 438 889 q 276 944 338 889 q 215 1090 215 1000 l 314 1090 q 347 1003 314 1036 q 436 969 381 969 q 527 1003 493 969 q 561 1090 561 1036 l 660 1090 q 599 944 660 1000 q 438 889 538 889 z "},"î":{"ha":833,"x_min":118,"x_max":771,"o":"m 118 0 l 118 114 l 389 114 l 389 650 l 153 650 l 153 764 l 514 764 l 514 114 l 771 114 l 771 0 l 118 0 m 186 896 l 379 1090 l 494 1090 l 689 896 l 551 896 l 438 1004 l 326 896 l 186 896 z "},"ï":{"ha":833,"x_min":118,"x_max":771,"o":"m 118 0 l 118 114 l 389 114 l 389 650 l 153 650 l 153 764 l 514 764 l 514 114 l 771 114 l 771 0 l 118 0 m 592 901 q 527 925 551 901 q 503 989 503 949 q 527 1055 503 1031 q 592 1079 551 1079 q 656 1055 632 1079 q 681 989 681 1031 q 656 925 681 949 q 592 901 632 901 m 283 901 q 219 925 243 901 q 194 989 194 949 q 219 1055 194 1031 q 283 1079 243 1079 q 348 1055 324 1079 q 372 989 372 1031 q 348 925 372 949 q 283 901 324 901 z "},"ị":{"ha":833,"x_min":118,"x_max":771,"o":"m 118 0 l 118 114 l 389 114 l 389 650 l 153 650 l 153 764 l 514 764 l 514 114 l 771 114 l 771 0 l 118 0 m 438 901 q 365 925 392 901 q 339 989 339 949 q 365 1055 339 1031 q 438 1079 392 1079 q 510 1055 483 1079 q 536 989 536 1031 q 510 925 536 949 q 438 901 483 901 m 438 -296 q 365 -272 392 -296 q 339 -208 339 -249 q 365 -142 339 -167 q 438 -118 392 -118 q 510 -142 483 -118 q 536 -208 536 -167 q 510 -272 536 -249 q 438 -296 483 -296 z "},"ì":{"ha":833,"x_min":118,"x_max":771,"o":"m 118 0 l 118 114 l 389 114 l 389 650 l 153 650 l 153 764 l 514 764 l 514 114 l 771 114 l 771 0 l 118 0 m 392 896 l 232 1090 l 371 1090 l 524 896 l 392 896 z "},"ỉ":{"ha":833,"x_min":118,"x_max":771,"o":"m 118 0 l 118 114 l 389 114 l 389 650 l 153 650 l 153 764 l 514 764 l 514 114 l 771 114 l 771 0 l 118 0 m 383 896 l 453 983 q 472 1028 472 1010 q 428 1056 472 1056 l 317 1056 l 317 1146 l 463 1146 q 548 1119 515 1146 q 581 1043 581 1092 q 557 968 581 999 l 501 896 l 383 896 z "},"ī":{"ha":833,"x_min":118,"x_max":771,"o":"m 118 0 l 118 114 l 389 114 l 389 650 l 153 650 l 153 764 l 514 764 l 514 114 l 771 114 l 771 0 l 118 0 m 215 931 l 215 1035 l 660 1035 l 660 931 l 215 931 z "},"į":{"ha":833,"x_min":118,"x_max":771,"o":"m 447 -282 q 324 -245 371 -282 q 278 -153 278 -208 q 304 -72 278 -112 q 396 14 331 -32 l 500 14 l 485 1 q 417 -69 438 -37 q 396 -129 396 -100 q 417 -179 396 -160 q 472 -199 438 -199 l 556 -199 l 556 -282 l 447 -282 m 118 0 l 118 114 l 389 114 l 389 650 l 153 650 l 153 764 l 514 764 l 514 114 l 771 114 l 771 0 l 118 0 m 438 901 q 365 925 392 901 q 339 989 339 949 q 365 1055 339 1031 q 438 1079 392 1079 q 510 1055 483 1079 q 536 989 536 1031 q 510 925 536 949 q 438 901 483 901 z "},"ĩ":{"ha":833,"x_min":118,"x_max":771,"o":"m 118 0 l 118 114 l 389 114 l 389 650 l 153 650 l 153 764 l 514 764 l 514 114 l 771 114 l 771 0 l 118 0 m 535 903 q 467 917 493 903 q 422 951 440 932 q 388 985 404 971 q 347 1000 371 1000 q 317 988 329 1000 q 306 951 306 976 l 306 910 l 215 910 l 215 951 q 250 1049 215 1014 q 340 1083 285 1083 q 408 1069 382 1083 q 453 1035 435 1054 q 488 1001 471 1015 q 528 986 504 986 q 558 998 547 986 q 569 1035 569 1010 l 569 1076 l 660 1076 l 660 1035 q 626 938 660 972 q 535 903 592 903 z "},"j":{"ha":833,"x_min":118,"x_max":633,"o":"m 118 -250 l 118 -135 l 297 -135 q 431 -88 383 -135 q 479 43 479 -42 l 479 650 l 160 650 l 160 764 l 604 764 l 604 43 q 521 -171 604 -92 q 297 -250 438 -250 l 118 -250 m 535 901 q 463 925 489 901 q 436 989 436 949 q 463 1055 436 1031 q 535 1079 489 1079 q 607 1055 581 1079 q 633 989 633 1031 q 607 925 633 949 q 535 901 581 901 z "},"ȷ":{"ha":833,"x_min":118,"x_max":604,"o":"m 118 -250 l 118 -135 l 297 -135 q 431 -88 383 -135 q 479 43 479 -42 l 479 650 l 160 650 l 160 764 l 604 764 l 604 43 q 521 -171 604 -92 q 297 -250 438 -250 l 118 -250 z "},"ĵ":{"ha":833,"x_min":118,"x_max":703,"o":"m 118 -250 l 118 -135 l 297 -135 q 431 -88 383 -135 q 479 43 479 -42 l 479 650 l 160 650 l 160 764 l 604 764 l 604 43 q 521 -171 604 -92 q 297 -250 438 -250 l 118 -250 m 200 896 l 393 1090 l 508 1090 l 703 896 l 565 896 l 451 1004 l 340 896 l 200 896 z "},"k":{"ha":833,"x_min":132,"x_max":774,"o":"m 132 0 l 132 1014 l 257 1014 l 257 449 l 404 449 l 626 764 l 769 764 l 513 400 l 774 0 l 628 0 l 406 340 l 257 340 l 257 0 l 132 0 z "},"ķ":{"ha":833,"x_min":132,"x_max":774,"o":"m 132 0 l 132 1014 l 257 1014 l 257 449 l 404 449 l 626 764 l 769 764 l 513 400 l 774 0 l 628 0 l 406 340 l 257 340 l 257 0 l 132 0 m 264 -333 l 396 -132 l 542 -132 l 396 -333 l 264 -333 z "},"ĸ":{"ha":833,"x_min":135,"x_max":760,"o":"m 135 0 l 135 764 l 260 764 l 260 449 l 390 449 l 613 764 l 756 764 l 499 400 l 760 0 l 614 0 l 392 340 l 260 340 l 260 0 l 135 0 z "},"l":{"ha":833,"x_min":42,"x_max":764,"o":"m 521 0 q 404 26 454 0 q 326 101 354 53 q 299 215 299 150 l 299 900 l 42 900 l 42 1014 l 424 1014 l 424 215 q 450 141 424 168 q 521 114 476 114 l 764 114 l 764 0 l 521 0 z "},"ĺ":{"ha":833,"x_min":42,"x_max":764,"o":"m 521 0 q 404 26 454 0 q 326 101 354 53 q 299 215 299 150 l 299 900 l 42 900 l 42 1014 l 424 1014 l 424 215 q 450 141 424 168 q 521 114 476 114 l 764 114 l 764 0 l 521 0 m 267 1125 l 414 1319 l 549 1319 l 394 1125 l 267 1125 z "},"ľ":{"ha":833,"x_min":42,"x_max":764,"o":"m 521 0 q 404 26 454 0 q 326 101 354 53 q 299 215 299 150 l 299 900 l 42 900 l 42 1014 l 424 1014 l 424 215 q 450 141 424 168 q 521 114 476 114 l 764 114 l 764 0 l 521 0 m 618 764 l 632 1014 l 750 1014 l 722 764 l 618 764 z "},"ļ":{"ha":833,"x_min":42,"x_max":764,"o":"m 521 0 q 404 26 454 0 q 326 101 354 53 q 299 215 299 150 l 299 900 l 42 900 l 42 1014 l 424 1014 l 424 215 q 450 141 424 168 q 521 114 476 114 l 764 114 l 764 0 l 521 0 m 292 -333 l 424 -132 l 569 -132 l 424 -333 l 292 -333 z "},"ŀ":{"ha":833,"x_min":14,"x_max":875,"o":"m 493 0 q 376 26 426 0 q 299 101 326 53 q 271 215 271 150 l 271 900 l 14 900 l 14 1014 l 396 1014 l 396 215 q 422 141 396 168 q 493 114 449 114 l 736 114 l 736 0 l 493 0 z "},"ł":{"ha":833,"x_min":42,"x_max":764,"o":"m 139 319 l 139 431 l 653 778 l 653 667 l 139 319 m 521 0 q 404 26 454 0 q 326 101 354 53 q 299 215 299 150 l 299 900 l 42 900 l 42 1014 l 424 1014 l 424 215 q 450 141 424 168 q 521 114 476 114 l 764 114 l 764 0 l 521 0 z "},"m":{"ha":833,"x_min":92,"x_max":742,"o":"m 92 0 l 92 764 l 201 764 l 201 672 l 226 672 l 207 639 q 241 740 207 703 q 333 778 275 778 q 432 731 397 778 q 467 597 467 683 l 429 672 l 488 672 l 461 639 q 497 740 461 703 q 590 778 532 778 q 702 724 663 778 q 742 581 742 669 l 742 0 l 626 0 l 626 582 q 606 656 626 629 q 547 682 586 682 q 488 656 510 682 q 467 583 467 631 l 467 0 l 367 0 l 367 582 q 345 656 367 631 q 285 682 324 682 q 226 656 246 682 q 207 583 207 631 l 207 0 l 92 0 z "},"n":{"ha":833,"x_min":128,"x_max":708,"o":"m 128 0 l 128 764 l 253 764 l 253 618 l 279 618 l 253 589 q 307 728 253 679 q 457 778 361 778 q 640 707 572 778 q 708 514 708 636 l 708 0 l 583 0 l 583 500 q 540 626 583 582 q 421 669 496 669 q 298 622 343 669 q 253 486 253 575 l 253 0 l 128 0 z "},"ń":{"ha":833,"x_min":128,"x_max":708,"o":"m 128 0 l 128 764 l 253 764 l 253 618 l 279 618 l 253 589 q 307 728 253 679 q 457 778 361 778 q 640 707 572 778 q 708 514 708 636 l 708 0 l 583 0 l 583 500 q 540 626 583 582 q 421 669 496 669 q 298 622 343 669 q 253 486 253 575 l 253 0 l 128 0 m 343 896 l 490 1090 l 625 1090 l 471 896 l 343 896 z "},"ŉ":{"ha":833,"x_min":0,"x_max":708,"o":"m 128 0 l 128 764 l 253 764 l 253 618 l 279 618 l 253 589 q 307 728 253 679 q 457 778 361 778 q 640 707 572 778 q 708 514 708 636 l 708 0 l 583 0 l 583 500 q 540 626 583 582 q 421 669 496 669 q 298 622 343 669 q 253 486 253 575 l 253 0 l 128 0 m 0 896 l 132 1097 l 278 1097 l 132 896 l 0 896 z "},"ň":{"ha":833,"x_min":128,"x_max":708,"o":"m 128 0 l 128 764 l 253 764 l 253 618 l 279 618 l 253 589 q 307 728 253 679 q 457 778 361 778 q 640 707 572 778 q 708 514 708 636 l 708 0 l 583 0 l 583 500 q 540 626 583 582 q 421 669 496 669 q 298 622 343 669 q 253 486 253 575 l 253 0 l 128 0 m 367 896 l 172 1090 l 310 1090 l 424 982 l 535 1090 l 675 1090 l 482 896 l 367 896 z "},"ņ":{"ha":833,"x_min":128,"x_max":708,"o":"m 128 0 l 128 764 l 253 764 l 253 618 l 279 618 l 253 589 q 307 728 253 679 q 457 778 361 778 q 640 707 572 778 q 708 514 708 636 l 708 0 l 583 0 l 583 500 q 540 626 583 582 q 421 669 496 669 q 298 622 343 669 q 253 486 253 575 l 253 0 l 128 0 m 264 -333 l 396 -132 l 542 -132 l 396 -333 l 264 -333 z "},"ŋ":{"ha":833,"x_min":131,"x_max":706,"o":"m 333 -250 l 333 -136 l 421 -136 q 538 -94 494 -136 q 581 21 581 -51 l 581 500 q 538 627 581 582 q 421 672 496 672 q 299 624 343 672 q 256 486 256 575 l 256 0 l 131 0 l 131 764 l 256 764 l 256 618 l 282 618 l 256 589 q 308 728 256 679 q 457 778 361 778 q 639 707 572 778 q 706 514 706 636 l 706 21 q 670 -122 706 -61 q 571 -217 635 -183 q 421 -250 507 -250 l 333 -250 z "},"ñ":{"ha":833,"x_min":128,"x_max":708,"o":"m 128 0 l 128 764 l 253 764 l 253 618 l 279 618 l 253 589 q 307 728 253 679 q 457 778 361 778 q 640 707 572 778 q 708 514 708 636 l 708 0 l 583 0 l 583 500 q 540 626 583 582 q 421 669 496 669 q 298 622 343 669 q 253 486 253 575 l 253 0 l 128 0 m 521 903 q 453 917 479 903 q 408 951 426 932 q 374 985 390 971 q 333 1000 357 1000 q 303 988 315 1000 q 292 951 292 976 l 292 910 l 201 910 l 201 951 q 236 1049 201 1014 q 326 1083 271 1083 q 394 1069 368 1083 q 439 1035 421 1054 q 474 1001 457 1015 q 514 986 490 986 q 544 998 533 986 q 556 1035 556 1010 l 556 1076 l 646 1076 l 646 1035 q 612 938 646 972 q 521 903 578 903 z "},"o":{"ha":833,"x_min":118,"x_max":715,"o":"m 417 -11 q 258 24 325 -11 q 155 124 192 58 q 118 281 118 190 l 118 483 q 155 640 118 575 q 258 740 192 706 q 417 775 325 775 q 575 740 508 775 q 678 640 642 706 q 715 485 715 575 l 715 281 q 678 124 715 190 q 575 24 642 58 q 417 -11 508 -11 m 417 100 q 544 146 499 100 q 590 281 590 192 l 590 483 q 544 618 590 572 q 417 664 499 664 q 290 618 336 664 q 243 483 243 572 l 243 281 q 290 146 243 192 q 417 100 336 100 z "},"ó":{"ha":833,"x_min":118,"x_max":715,"o":"m 417 -11 q 258 24 325 -11 q 155 124 192 58 q 118 281 118 190 l 118 483 q 155 640 118 575 q 258 740 192 706 q 417 775 325 775 q 575 740 508 775 q 678 640 642 706 q 715 485 715 575 l 715 281 q 678 124 715 190 q 575 24 642 58 q 417 -11 508 -11 m 417 100 q 544 146 499 100 q 590 281 590 192 l 590 483 q 544 618 590 572 q 417 664 499 664 q 290 618 336 664 q 243 483 243 572 l 243 281 q 290 146 243 192 q 417 100 336 100 m 336 896 l 483 1090 l 618 1090 l 464 896 l 336 896 z "},"ŏ":{"ha":833,"x_min":118,"x_max":715,"o":"m 417 -11 q 258 24 325 -11 q 155 124 192 58 q 118 281 118 190 l 118 483 q 155 640 118 575 q 258 740 192 706 q 417 775 325 775 q 575 740 508 775 q 678 640 642 706 q 715 485 715 575 l 715 281 q 678 124 715 190 q 575 24 642 58 q 417 -11 508 -11 m 417 100 q 544 146 499 100 q 590 281 590 192 l 590 483 q 544 618 590 572 q 417 664 499 664 q 290 618 336 664 q 243 483 243 572 l 243 281 q 290 146 243 192 q 417 100 336 100 m 417 889 q 256 944 317 889 q 194 1090 194 1000 l 293 1090 q 326 1003 293 1036 q 415 969 360 969 q 506 1003 472 969 q 540 1090 540 1036 l 639 1090 q 578 944 639 1000 q 417 889 517 889 z "},"ô":{"ha":833,"x_min":118,"x_max":715,"o":"m 417 -11 q 258 24 325 -11 q 155 124 192 58 q 118 281 118 190 l 118 483 q 155 640 118 575 q 258 740 192 706 q 417 775 325 775 q 575 740 508 775 q 678 640 642 706 q 715 485 715 575 l 715 281 q 678 124 715 190 q 575 24 642 58 q 417 -11 508 -11 m 417 100 q 544 146 499 100 q 590 281 590 192 l 590 483 q 544 618 590 572 q 417 664 499 664 q 290 618 336 664 q 243 483 243 572 l 243 281 q 290 146 243 192 q 417 100 336 100 m 165 896 l 358 1090 l 474 1090 l 668 896 l 531 896 l 417 1004 l 306 896 l 165 896 z "},"ố":{"ha":833,"x_min":118,"x_max":868,"o":"m 417 -11 q 258 24 325 -11 q 155 124 192 58 q 118 281 118 190 l 118 483 q 155 640 118 575 q 258 740 192 706 q 417 775 325 775 q 575 740 508 775 q 678 640 642 706 q 715 485 715 575 l 715 281 q 678 124 715 190 q 575 24 642 58 q 417 -11 508 -11 m 417 100 q 544 146 499 100 q 590 281 590 192 l 590 483 q 544 618 590 572 q 417 664 499 664 q 290 618 336 664 q 243 483 243 572 l 243 281 q 290 146 243 192 q 417 100 336 100 m 569 1056 l 729 1250 l 868 1250 l 701 1056 l 569 1056 m 167 896 l 358 1090 l 475 1090 l 668 896 l 528 896 l 417 1004 l 304 896 l 167 896 z "},"ộ":{"ha":833,"x_min":118,"x_max":715,"o":"m 165 896 l 358 1090 l 474 1090 l 668 896 l 531 896 l 417 1004 l 306 896 l 165 896 m 417 -11 q 258 24 325 -11 q 155 124 192 58 q 118 281 118 190 l 118 483 q 155 640 118 575 q 258 740 192 706 q 417 775 325 775 q 575 740 508 775 q 678 640 642 706 q 715 485 715 575 l 715 281 q 678 124 715 190 q 575 24 642 58 q 417 -11 508 -11 m 417 100 q 544 146 499 100 q 590 281 590 192 l 590 483 q 544 618 590 572 q 417 664 499 664 q 290 618 336 664 q 243 483 243 572 l 243 281 q 290 146 243 192 q 417 100 336 100 m 431 -296 q 358 -272 385 -296 q 332 -208 332 -249 q 358 -142 332 -167 q 431 -118 385 -118 q 503 -142 476 -118 q 529 -208 529 -167 q 503 -272 529 -249 q 431 -296 476 -296 z "},"ồ":{"ha":833,"x_min":118,"x_max":757,"o":"m 417 -11 q 258 24 325 -11 q 155 124 192 58 q 118 281 118 190 l 118 483 q 155 640 118 575 q 258 740 192 706 q 417 775 325 775 q 575 740 508 775 q 678 640 642 706 q 715 485 715 575 l 715 281 q 678 124 715 190 q 575 24 642 58 q 417 -11 508 -11 m 417 100 q 544 146 499 100 q 590 281 590 192 l 590 483 q 544 618 590 572 q 417 664 499 664 q 290 618 336 664 q 243 483 243 572 l 243 281 q 290 146 243 192 q 417 100 336 100 m 625 1056 l 444 1250 l 583 1250 l 757 1056 l 625 1056 m 167 896 l 358 1090 l 475 1090 l 668 896 l 528 896 l 417 1004 l 304 896 l 167 896 z "},"ổ":{"ha":833,"x_min":118,"x_max":764,"o":"m 417 -11 q 258 24 325 -11 q 155 124 192 58 q 118 281 118 190 l 118 483 q 155 640 118 575 q 258 740 192 706 q 417 775 325 775 q 575 740 508 775 q 678 640 642 706 q 715 485 715 575 l 715 281 q 678 124 715 190 q 575 24 642 58 q 417 -11 508 -11 m 417 100 q 544 146 499 100 q 590 281 590 192 l 590 483 q 544 618 590 572 q 417 664 499 664 q 290 618 336 664 q 243 483 243 572 l 243 281 q 290 146 243 192 q 417 100 336 100 m 588 1056 l 650 1140 q 663 1174 663 1160 q 651 1199 663 1190 q 618 1208 639 1208 l 549 1208 l 549 1292 l 625 1292 q 726 1264 689 1292 q 764 1188 764 1236 q 758 1158 764 1172 q 740 1125 753 1143 l 692 1056 l 588 1056 m 167 896 l 358 1090 l 475 1090 l 668 896 l 528 896 l 417 1004 l 304 896 l 167 896 z "},"ỗ":{"ha":833,"x_min":118,"x_max":715,"o":"m 417 -11 q 258 24 325 -11 q 155 124 192 58 q 118 281 118 190 l 118 483 q 155 640 118 575 q 258 740 192 706 q 417 775 325 775 q 575 740 508 775 q 678 640 642 706 q 715 485 715 575 l 715 281 q 678 124 715 190 q 575 24 642 58 q 417 -11 508 -11 m 417 100 q 544 146 499 100 q 590 281 590 192 l 590 483 q 544 618 590 572 q 417 664 499 664 q 290 618 336 664 q 243 483 243 572 l 243 281 q 290 146 243 192 q 417 100 336 100 m 508 1128 q 440 1141 465 1128 q 397 1172 414 1154 q 365 1202 381 1189 q 326 1215 350 1215 q 296 1205 307 1215 q 285 1174 285 1194 l 285 1139 l 194 1139 l 194 1167 q 231 1256 194 1222 q 325 1289 267 1289 q 395 1276 369 1289 q 437 1245 421 1263 q 468 1215 453 1228 q 507 1201 483 1201 q 549 1243 549 1201 l 549 1278 l 639 1278 l 639 1250 q 603 1161 639 1194 q 508 1128 567 1128 m 167 896 l 358 1090 l 475 1090 l 668 896 l 528 896 l 417 1004 l 304 896 l 167 896 z "},"ö":{"ha":833,"x_min":118,"x_max":715,"o":"m 417 -11 q 258 24 325 -11 q 155 124 192 58 q 118 281 118 190 l 118 483 q 155 640 118 575 q 258 740 192 706 q 417 775 325 775 q 575 740 508 775 q 678 640 642 706 q 715 485 715 575 l 715 281 q 678 124 715 190 q 575 24 642 58 q 417 -11 508 -11 m 417 100 q 544 146 499 100 q 590 281 590 192 l 590 483 q 544 618 590 572 q 417 664 499 664 q 290 618 336 664 q 243 483 243 572 l 243 281 q 290 146 243 192 q 417 100 336 100 m 571 901 q 506 925 531 901 q 482 989 482 949 q 506 1055 482 1031 q 571 1079 531 1079 q 635 1055 611 1079 q 660 989 660 1031 q 635 925 660 949 q 571 901 611 901 m 263 901 q 198 925 222 901 q 174 989 174 949 q 198 1055 174 1031 q 263 1079 222 1079 q 327 1055 303 1079 q 351 989 351 1031 q 327 925 351 949 q 263 901 303 901 z "},"ọ":{"ha":833,"x_min":118,"x_max":715,"o":"m 417 -11 q 258 24 325 -11 q 155 124 192 58 q 118 281 118 190 l 118 483 q 155 640 118 575 q 258 740 192 706 q 417 775 325 775 q 575 740 508 775 q 678 640 642 706 q 715 485 715 575 l 715 281 q 678 124 715 190 q 575 24 642 58 q 417 -11 508 -11 m 417 100 q 544 146 499 100 q 590 281 590 192 l 590 483 q 544 618 590 572 q 417 664 499 664 q 290 618 336 664 q 243 483 243 572 l 243 281 q 290 146 243 192 q 417 100 336 100 m 431 -296 q 358 -272 385 -296 q 332 -208 332 -249 q 358 -142 332 -167 q 431 -118 385 -118 q 503 -142 476 -118 q 529 -208 529 -167 q 503 -272 529 -249 q 431 -296 476 -296 z "},"ò":{"ha":833,"x_min":118,"x_max":715,"o":"m 417 -11 q 258 24 325 -11 q 155 124 192 58 q 118 281 118 190 l 118 483 q 155 640 118 575 q 258 740 192 706 q 417 775 325 775 q 575 740 508 775 q 678 640 642 706 q 715 485 715 575 l 715 281 q 678 124 715 190 q 575 24 642 58 q 417 -11 508 -11 m 417 100 q 544 146 499 100 q 590 281 590 192 l 590 483 q 544 618 590 572 q 417 664 499 664 q 290 618 336 664 q 243 483 243 572 l 243 281 q 290 146 243 192 q 417 100 336 100 m 371 896 l 211 1090 l 350 1090 l 503 896 l 371 896 z "},"ỏ":{"ha":833,"x_min":118,"x_max":715,"o":"m 417 -11 q 258 24 325 -11 q 155 124 192 58 q 118 281 118 190 l 118 483 q 155 640 118 575 q 258 740 192 706 q 417 775 325 775 q 575 740 508 775 q 678 640 642 706 q 715 485 715 575 l 715 281 q 678 124 715 190 q 575 24 642 58 q 417 -11 508 -11 m 417 100 q 544 146 499 100 q 590 281 590 192 l 590 483 q 544 618 590 572 q 417 664 499 664 q 290 618 336 664 q 243 483 243 572 l 243 281 q 290 146 243 192 q 417 100 336 100 m 358 896 l 428 983 q 447 1028 447 1010 q 403 1056 447 1056 l 292 1056 l 292 1146 l 438 1146 q 523 1119 490 1146 q 556 1043 556 1092 q 532 968 556 999 l 476 896 l 358 896 z "},"ơ":{"ha":833,"x_min":118,"x_max":750,"o":"m 550 646 l 550 736 l 597 736 q 633 749 621 736 q 646 785 646 761 l 646 889 l 750 889 l 750 778 q 710 682 750 718 q 604 646 669 646 l 550 646 m 417 -11 q 258 24 325 -11 q 155 124 192 58 q 118 281 118 190 l 118 483 q 155 640 118 575 q 258 740 192 706 q 417 775 325 775 q 575 740 508 775 q 678 640 642 706 q 715 485 715 575 l 715 281 q 678 124 715 190 q 575 24 642 58 q 417 -11 508 -11 m 417 100 q 544 146 499 100 q 590 281 590 192 l 590 483 q 544 618 590 572 q 417 664 499 664 q 290 618 336 664 q 243 483 243 572 l 243 281 q 290 146 243 192 q 417 100 336 100 z "},"ớ":{"ha":833,"x_min":118,"x_max":750,"o":"m 550 646 l 550 736 l 597 736 q 633 749 621 736 q 646 785 646 761 l 646 889 l 750 889 l 750 778 q 710 682 750 718 q 604 646 669 646 l 550 646 m 417 -11 q 258 24 325 -11 q 155 124 192 58 q 118 281 118 190 l 118 483 q 155 640 118 575 q 258 740 192 706 q 417 775 325 775 q 575 740 508 775 q 678 640 642 706 q 715 485 715 575 l 715 281 q 678 124 715 190 q 575 24 642 58 q 417 -11 508 -11 m 417 100 q 544 146 499 100 q 590 281 590 192 l 590 483 q 544 618 590 572 q 417 664 499 664 q 290 618 336 664 q 243 483 243 572 l 243 281 q 290 146 243 192 q 417 100 336 100 m 322 896 l 469 1090 l 604 1090 l 450 896 l 322 896 z "},"ợ":{"ha":833,"x_min":118,"x_max":750,"o":"m 550 646 l 550 736 l 597 736 q 633 749 621 736 q 646 785 646 761 l 646 889 l 750 889 l 750 778 q 710 682 750 718 q 604 646 669 646 l 550 646 m 417 -11 q 258 24 325 -11 q 155 124 192 58 q 118 281 118 190 l 118 483 q 155 640 118 575 q 258 740 192 706 q 417 775 325 775 q 575 740 508 775 q 678 640 642 706 q 715 485 715 575 l 715 281 q 678 124 715 190 q 575 24 642 58 q 417 -11 508 -11 m 417 100 q 544 146 499 100 q 590 281 590 192 l 590 483 q 544 618 590 572 q 417 664 499 664 q 290 618 336 664 q 243 483 243 572 l 243 281 q 290 146 243 192 q 417 100 336 100 m 431 -296 q 358 -272 385 -296 q 332 -208 332 -249 q 358 -142 332 -167 q 431 -118 385 -118 q 503 -142 476 -118 q 529 -208 529 -167 q 503 -272 529 -249 q 431 -296 476 -296 z "},"ờ":{"ha":833,"x_min":118,"x_max":750,"o":"m 550 646 l 550 736 l 597 736 q 633 749 621 736 q 646 785 646 761 l 646 889 l 750 889 l 750 778 q 710 682 750 718 q 604 646 669 646 l 550 646 m 417 -11 q 258 24 325 -11 q 155 124 192 58 q 118 281 118 190 l 118 483 q 155 640 118 575 q 258 740 192 706 q 417 775 325 775 q 575 740 508 775 q 678 640 642 706 q 715 485 715 575 l 715 281 q 678 124 715 190 q 575 24 642 58 q 417 -11 508 -11 m 417 100 q 544 146 499 100 q 590 281 590 192 l 590 483 q 544 618 590 572 q 417 664 499 664 q 290 618 336 664 q 243 483 243 572 l 243 281 q 290 146 243 192 q 417 100 336 100 m 357 896 l 197 1090 l 336 1090 l 489 896 l 357 896 z "},"ở":{"ha":833,"x_min":118,"x_max":750,"o":"m 550 646 l 550 736 l 597 736 q 633 749 621 736 q 646 785 646 761 l 646 889 l 750 889 l 750 778 q 710 682 750 718 q 604 646 669 646 l 550 646 m 417 -11 q 258 24 325 -11 q 155 124 192 58 q 118 281 118 190 l 118 483 q 155 640 118 575 q 258 740 192 706 q 417 775 325 775 q 575 740 508 775 q 678 640 642 706 q 715 485 715 575 l 715 281 q 678 124 715 190 q 575 24 642 58 q 417 -11 508 -11 m 417 100 q 544 146 499 100 q 590 281 590 192 l 590 483 q 544 618 590 572 q 417 664 499 664 q 290 618 336 664 q 243 483 243 572 l 243 281 q 290 146 243 192 q 417 100 336 100 m 358 896 l 428 983 q 447 1028 447 1010 q 403 1056 447 1056 l 292 1056 l 292 1146 l 438 1146 q 523 1119 490 1146 q 556 1043 556 1092 q 532 968 556 999 l 476 896 l 358 896 z "},"ỡ":{"ha":833,"x_min":118,"x_max":750,"o":"m 550 646 l 550 736 l 597 736 q 633 749 621 736 q 646 785 646 761 l 646 889 l 750 889 l 750 778 q 710 682 750 718 q 604 646 669 646 l 550 646 m 417 -11 q 258 24 325 -11 q 155 124 192 58 q 118 281 118 190 l 118 483 q 155 640 118 575 q 258 740 192 706 q 417 775 325 775 q 575 740 508 775 q 678 640 642 706 q 715 485 715 575 l 715 281 q 678 124 715 190 q 575 24 642 58 q 417 -11 508 -11 m 417 100 q 544 146 499 100 q 590 281 590 192 l 590 483 q 544 618 590 572 q 417 664 499 664 q 290 618 336 664 q 243 483 243 572 l 243 281 q 290 146 243 192 q 417 100 336 100 m 500 903 q 432 917 458 903 q 388 951 406 932 q 353 985 369 971 q 313 1000 336 1000 q 283 988 294 1000 q 271 951 271 976 l 271 910 l 181 910 l 181 951 q 215 1049 181 1014 q 306 1083 250 1083 q 374 1069 347 1083 q 418 1035 400 1054 q 453 1001 436 1015 q 493 986 469 986 q 524 998 513 986 q 535 1035 535 1010 l 535 1076 l 625 1076 l 625 1035 q 591 938 625 972 q 500 903 557 903 z "},"ő":{"ha":833,"x_min":118,"x_max":733,"o":"m 417 -11 q 258 24 325 -11 q 155 124 192 58 q 118 281 118 190 l 118 483 q 155 640 118 575 q 258 740 192 706 q 417 775 325 775 q 575 740 508 775 q 678 640 642 706 q 715 485 715 575 l 715 281 q 678 124 715 190 q 575 24 642 58 q 417 -11 508 -11 m 417 100 q 544 146 499 100 q 590 281 590 192 l 590 483 q 544 618 590 572 q 417 664 499 664 q 290 618 336 664 q 243 483 243 572 l 243 281 q 290 146 243 192 q 417 100 336 100 m 453 896 l 606 1090 l 733 1090 l 574 896 l 453 896 m 204 896 l 357 1090 l 485 1090 l 325 896 l 204 896 z "},"ō":{"ha":833,"x_min":118,"x_max":715,"o":"m 417 -11 q 258 24 325 -11 q 155 124 192 58 q 118 281 118 190 l 118 483 q 155 640 118 575 q 258 740 192 706 q 417 775 325 775 q 575 740 508 775 q 678 640 642 706 q 715 485 715 575 l 715 281 q 678 124 715 190 q 575 24 642 58 q 417 -11 508 -11 m 417 100 q 544 146 499 100 q 590 281 590 192 l 590 483 q 544 618 590 572 q 417 664 499 664 q 290 618 336 664 q 243 483 243 572 l 243 281 q 290 146 243 192 q 417 100 336 100 m 194 931 l 194 1035 l 639 1035 l 639 931 l 194 931 z "},"ǫ":{"ha":833,"x_min":122,"x_max":711,"o":"m 517 -282 q 394 -245 440 -282 q 347 -153 347 -208 q 365 -90 347 -122 q 429 -14 382 -57 q 426 -14 428 -14 q 422 -14 424 -14 q 417 -14 419 -14 q 259 21 325 -14 q 158 122 193 56 q 122 278 122 188 l 122 486 q 158 643 122 578 q 259 743 193 708 q 417 778 325 778 q 574 743 508 778 q 676 643 640 708 q 711 488 711 578 l 711 278 q 679 128 711 192 q 588 29 647 65 l 554 1 q 486 -69 507 -37 q 465 -129 465 -100 q 486 -179 465 -160 q 542 -199 507 -199 l 625 -199 l 625 -282 l 517 -282 m 417 97 q 542 143 499 97 q 586 278 586 189 l 586 486 q 542 621 586 575 q 417 667 499 667 q 292 621 336 667 q 247 486 247 575 l 247 278 q 292 143 247 189 q 417 97 336 97 z "},"ø":{"ha":833,"x_min":49,"x_max":785,"o":"m 49 -42 l 658 819 l 785 819 l 174 -42 l 49 -42 m 417 -14 q 259 21 325 -14 q 158 122 193 56 q 122 278 122 188 l 122 486 q 158 643 122 578 q 259 743 193 708 q 417 778 325 778 q 574 743 508 778 q 676 643 640 708 q 711 488 711 578 l 711 278 q 676 122 711 188 q 574 21 640 56 q 417 -14 508 -14 m 417 97 q 547 145 500 97 q 593 278 593 193 l 593 486 q 547 619 593 572 q 417 667 500 667 q 287 619 333 667 q 240 486 240 572 l 240 278 q 287 145 240 193 q 417 97 333 97 z "},"ǿ":{"ha":833,"x_min":49,"x_max":785,"o":"m 49 -42 l 658 819 l 785 819 l 174 -42 l 49 -42 m 417 -14 q 259 21 325 -14 q 158 122 193 56 q 122 278 122 188 l 122 486 q 158 643 122 578 q 259 743 193 708 q 417 778 325 778 q 574 743 508 778 q 676 643 640 708 q 711 488 711 578 l 711 278 q 676 122 711 188 q 574 21 640 56 q 417 -14 508 -14 m 417 97 q 547 145 500 97 q 593 278 593 193 l 593 486 q 547 619 593 572 q 417 667 500 667 q 287 619 333 667 q 240 486 240 572 l 240 278 q 287 145 240 193 q 417 97 333 97 m 336 896 l 483 1090 l 618 1090 l 464 896 l 336 896 z "},"õ":{"ha":833,"x_min":118,"x_max":715,"o":"m 417 -11 q 258 24 325 -11 q 155 124 192 58 q 118 281 118 190 l 118 483 q 155 640 118 575 q 258 740 192 706 q 417 775 325 775 q 575 740 508 775 q 678 640 642 706 q 715 485 715 575 l 715 281 q 678 124 715 190 q 575 24 642 58 q 417 -11 508 -11 m 417 100 q 544 146 499 100 q 590 281 590 192 l 590 483 q 544 618 590 572 q 417 664 499 664 q 290 618 336 664 q 243 483 243 572 l 243 281 q 290 146 243 192 q 417 100 336 100 m 514 903 q 446 917 472 903 q 401 951 419 932 q 367 985 383 971 q 326 1000 350 1000 q 297 988 308 1000 q 285 951 285 976 l 285 910 l 194 910 l 194 951 q 229 1049 194 1014 q 319 1083 264 1083 q 388 1069 361 1083 q 432 1035 414 1054 q 467 1001 450 1015 q 507 986 483 986 q 538 998 526 986 q 549 1035 549 1010 l 549 1076 l 639 1076 l 639 1035 q 605 938 639 972 q 514 903 571 903 z "},"œ":{"ha":833,"x_min":49,"x_max":785,"o":"m 250 -14 q 103 47 157 -14 q 49 208 49 107 l 49 556 q 103 718 49 658 q 250 778 157 778 q 341 760 306 778 q 394 716 376 742 q 414 667 413 690 l 419 667 q 440 716 422 690 q 492 760 457 742 q 583 778 528 778 q 731 718 676 778 q 785 556 785 658 l 785 347 l 476 347 l 476 208 q 501 124 476 156 q 569 93 526 93 q 631 115 606 93 q 663 174 657 138 l 781 174 q 714 37 767 88 q 583 -14 661 -14 q 492 4 528 -14 q 440 48 457 22 q 419 97 422 74 l 414 97 q 394 48 413 74 q 341 4 376 22 q 250 -14 306 -14 m 264 93 q 332 124 307 93 q 357 208 357 156 l 357 556 q 332 640 357 608 q 264 671 307 671 q 193 640 219 671 q 167 556 167 608 l 167 208 q 193 124 167 156 q 264 93 219 93 m 476 449 l 667 449 l 667 556 q 640 640 667 608 q 569 671 614 671 q 501 640 526 671 q 476 556 476 608 l 476 449 z "},"p":{"ha":833,"x_min":128,"x_max":715,"o":"m 128 -250 l 128 764 l 253 764 l 253 618 l 278 618 l 253 589 q 310 727 253 676 q 463 778 368 778 q 647 702 578 778 q 715 494 715 626 l 715 271 q 684 119 715 183 q 597 21 653 56 q 463 -14 540 -14 q 311 38 369 -14 q 253 175 253 89 l 278 146 l 250 146 l 253 -28 l 253 -250 l 128 -250 m 421 94 q 545 142 500 94 q 590 278 590 189 l 590 486 q 545 622 590 575 q 421 669 500 669 q 299 621 344 669 q 253 486 253 572 l 253 278 q 299 143 253 192 q 421 94 344 94 z "},"þ":{"ha":833,"x_min":121,"x_max":708,"o":"m 121 -236 l 121 82 l 246 82 l 246 -236 l 121 -236 m 454 -14 q 303 37 360 -14 q 246 175 246 88 l 271 146 l 246 146 l 246 0 l 121 0 l 121 1014 l 246 1014 l 246 792 l 243 618 l 271 618 l 246 589 q 303 726 246 675 q 454 778 361 778 q 639 701 569 778 q 708 493 708 625 l 708 269 q 639 63 708 139 q 454 -14 569 -14 m 413 94 q 538 142 492 94 q 583 278 583 189 l 583 486 q 538 622 583 575 q 413 669 492 669 q 291 621 336 669 q 246 486 246 572 l 246 278 q 291 143 246 192 q 413 94 336 94 z "},"q":{"ha":833,"x_min":122,"x_max":706,"o":"m 581 -250 l 581 -28 l 583 146 l 556 146 l 581 175 q 524 38 581 89 q 372 -14 467 -14 q 190 63 257 -14 q 122 271 122 139 l 122 494 q 190 702 122 626 q 372 778 258 778 q 524 727 467 778 q 581 589 581 676 l 556 618 l 581 618 l 581 764 l 706 764 l 706 -250 l 581 -250 m 414 94 q 536 143 492 94 q 581 278 581 192 l 581 486 q 536 621 581 572 q 414 669 492 669 q 291 622 335 669 q 247 486 247 575 l 247 278 q 291 142 247 189 q 414 94 335 94 z "},"r":{"ha":833,"x_min":154,"x_max":742,"o":"m 154 0 l 154 764 l 276 764 l 276 618 l 306 618 l 265 528 q 319 715 265 651 q 478 778 372 778 q 670 702 599 778 q 742 497 742 626 l 742 451 l 617 451 l 617 486 q 573 624 617 576 q 449 672 529 672 q 324 624 369 672 q 279 486 279 575 l 279 0 l 154 0 z "},"ŕ":{"ha":833,"x_min":154,"x_max":742,"o":"m 154 0 l 154 764 l 276 764 l 276 618 l 306 618 l 265 528 q 319 715 265 651 q 478 778 372 778 q 670 702 599 778 q 742 497 742 626 l 742 451 l 617 451 l 617 486 q 573 624 617 576 q 449 672 529 672 q 324 624 369 672 q 279 486 279 575 l 279 0 l 154 0 m 364 896 l 511 1090 l 646 1090 l 492 896 l 364 896 z "},"ř":{"ha":833,"x_min":154,"x_max":742,"o":"m 154 0 l 154 764 l 276 764 l 276 618 l 306 618 l 265 528 q 319 715 265 651 q 478 778 372 778 q 670 702 599 778 q 742 497 742 626 l 742 451 l 617 451 l 617 486 q 573 624 617 576 q 449 672 529 672 q 324 624 369 672 q 279 486 279 575 l 279 0 l 154 0 m 388 896 l 193 1090 l 331 1090 l 444 982 l 556 1090 l 696 1090 l 503 896 l 388 896 z "},"ŗ":{"ha":833,"x_min":35,"x_max":742,"o":"m 154 0 l 154 764 l 276 764 l 276 618 l 306 618 l 265 528 q 319 715 265 651 q 478 778 372 778 q 670 702 599 778 q 742 497 742 626 l 742 451 l 617 451 l 617 486 q 573 624 617 576 q 449 672 529 672 q 324 624 369 672 q 279 486 279 575 l 279 0 l 154 0 m 35 -333 l 167 -132 l 313 -132 l 167 -333 l 35 -333 z "},"s":{"ha":833,"x_min":125,"x_max":722,"o":"m 393 -11 q 258 13 315 -11 q 166 82 200 38 q 125 188 132 126 l 250 188 q 295 124 258 147 q 393 100 332 100 l 451 100 q 561 130 525 100 q 597 210 597 160 q 565 287 597 258 q 468 325 532 315 l 365 342 q 198 412 253 361 q 143 560 143 463 q 208 719 143 663 q 404 775 274 775 l 457 775 q 633 724 567 775 q 714 585 700 672 l 589 585 q 547 642 581 621 q 457 664 514 664 l 404 664 q 301 638 333 664 q 268 558 268 611 q 296 489 268 511 q 383 457 324 467 l 486 440 q 666 368 610 421 q 722 215 722 315 q 655 49 722 110 q 451 -11 588 -11 l 393 -11 z "},"ś":{"ha":833,"x_min":125,"x_max":722,"o":"m 393 -11 q 258 13 315 -11 q 166 82 200 38 q 125 188 132 126 l 250 188 q 295 124 258 147 q 393 100 332 100 l 451 100 q 561 130 525 100 q 597 210 597 160 q 565 287 597 258 q 468 325 532 315 l 365 342 q 198 412 253 361 q 143 560 143 463 q 208 719 143 663 q 404 775 274 775 l 457 775 q 633 724 567 775 q 714 585 700 672 l 589 585 q 547 642 581 621 q 457 664 514 664 l 404 664 q 301 638 333 664 q 268 558 268 611 q 296 489 268 511 q 383 457 324 467 l 486 440 q 666 368 610 421 q 722 215 722 315 q 655 49 722 110 q 451 -11 588 -11 l 393 -11 m 350 896 l 497 1090 l 632 1090 l 478 896 l 350 896 z "},"š":{"ha":833,"x_min":125,"x_max":722,"o":"m 393 -11 q 258 13 315 -11 q 166 82 200 38 q 125 188 132 126 l 250 188 q 295 124 258 147 q 393 100 332 100 l 451 100 q 561 130 525 100 q 597 210 597 160 q 565 287 597 258 q 468 325 532 315 l 365 342 q 198 412 253 361 q 143 560 143 463 q 208 719 143 663 q 404 775 274 775 l 457 775 q 633 724 567 775 q 714 585 700 672 l 589 585 q 547 642 581 621 q 457 664 514 664 l 404 664 q 301 638 333 664 q 268 558 268 611 q 296 489 268 511 q 383 457 324 467 l 486 440 q 666 368 610 421 q 722 215 722 315 q 655 49 722 110 q 451 -11 588 -11 l 393 -11 m 374 896 l 179 1090 l 317 1090 l 431 982 l 542 1090 l 682 1090 l 489 896 l 374 896 z "},"ş":{"ha":833,"x_min":125,"x_max":722,"o":"m 299 -282 l 299 -206 l 396 -206 q 445 -190 426 -206 q 464 -156 464 -174 q 426 -114 464 -132 q 318 -96 388 -96 l 367 36 l 446 36 l 417 -49 q 492 -67 453 -53 q 557 -106 531 -81 q 583 -167 583 -131 q 538 -248 583 -214 q 417 -282 492 -282 l 299 -282 m 393 -11 q 258 13 315 -11 q 166 82 200 38 q 125 188 132 126 l 250 188 q 295 124 258 147 q 393 100 332 100 l 451 100 q 561 130 525 100 q 597 210 597 160 q 565 287 597 258 q 468 325 532 315 l 365 342 q 198 412 253 361 q 143 560 143 463 q 208 719 143 663 q 404 775 274 775 l 457 775 q 633 724 567 775 q 714 585 700 672 l 589 585 q 547 642 581 621 q 457 664 514 664 l 404 664 q 301 638 333 664 q 268 558 268 611 q 296 489 268 511 q 383 457 324 467 l 486 440 q 666 368 610 421 q 722 215 722 315 q 655 49 722 110 q 451 -11 588 -11 l 393 -11 z "},"ŝ":{"ha":833,"x_min":125,"x_max":722,"o":"m 393 -11 q 258 13 315 -11 q 166 82 200 38 q 125 188 132 126 l 250 188 q 295 124 258 147 q 393 100 332 100 l 451 100 q 561 130 525 100 q 597 210 597 160 q 565 287 597 258 q 468 325 532 315 l 365 342 q 198 412 253 361 q 143 560 143 463 q 208 719 143 663 q 404 775 274 775 l 457 775 q 633 724 567 775 q 714 585 700 672 l 589 585 q 547 642 581 621 q 457 664 514 664 l 404 664 q 301 638 333 664 q 268 558 268 611 q 296 489 268 511 q 383 457 324 467 l 486 440 q 666 368 610 421 q 722 215 722 315 q 655 49 722 110 q 451 -11 588 -11 l 393 -11 m 179 896 l 372 1090 l 488 1090 l 682 896 l 544 896 l 431 1004 l 319 896 l 179 896 z "},"ș":{"ha":833,"x_min":125,"x_max":722,"o":"m 393 -11 q 258 13 315 -11 q 166 82 200 38 q 125 188 132 126 l 250 188 q 295 124 258 147 q 393 100 332 100 l 451 100 q 561 130 525 100 q 597 210 597 160 q 565 287 597 258 q 468 325 532 315 l 365 342 q 198 412 253 361 q 143 560 143 463 q 208 719 143 663 q 404 775 274 775 l 457 775 q 633 724 567 775 q 714 585 700 672 l 589 585 q 547 642 581 621 q 457 664 514 664 l 404 664 q 301 638 333 664 q 268 558 268 611 q 296 489 268 511 q 383 457 324 467 l 486 440 q 666 368 610 421 q 722 215 722 315 q 655 49 722 110 q 451 -11 588 -11 l 393 -11 m 249 -333 l 381 -132 l 526 -132 l 381 -333 l 249 -333 z "},"ß":{"ha":833,"x_min":128,"x_max":736,"o":"m 128 0 l 128 742 q 164 892 128 828 q 266 992 200 957 q 421 1028 332 1028 q 576 998 510 1028 q 680 910 643 968 q 717 769 717 853 q 687 646 717 700 q 602 561 657 592 q 472 532 547 531 l 472 553 q 612 522 553 554 q 703 431 671 490 q 736 289 736 371 q 699 139 736 204 q 594 37 661 74 q 438 0 528 0 l 346 0 l 346 114 l 424 114 q 556 163 507 114 q 604 293 604 213 q 556 419 604 374 q 424 465 508 465 l 363 465 l 363 574 l 421 574 q 542 622 499 574 q 586 744 586 671 q 542 869 586 825 q 421 914 497 914 q 299 868 344 914 q 253 742 253 822 l 253 0 l 128 0 z "},"ſ":{"ha":833,"x_min":229,"x_max":708,"o":"m 229 0 l 229 793 q 294 953 229 892 q 464 1014 358 1014 l 708 1014 l 708 903 l 464 903 q 385 872 415 903 q 354 792 354 842 l 354 0 l 229 0 z "},"t":{"ha":833,"x_min":76,"x_max":722,"o":"m 500 0 q 347 53 401 0 q 292 201 292 106 l 292 650 l 76 650 l 76 764 l 292 764 l 292 979 l 417 979 l 417 764 l 722 764 l 722 650 l 417 650 l 417 201 q 500 114 417 114 l 708 114 l 708 0 l 500 0 z "},"ŧ":{"ha":833,"x_min":76,"x_max":722,"o":"m 118 332 l 118 436 l 660 436 l 660 332 l 118 332 m 500 0 q 347 53 401 0 q 292 201 292 106 l 292 650 l 76 650 l 76 764 l 292 764 l 292 979 l 417 979 l 417 764 l 722 764 l 722 650 l 417 650 l 417 201 q 500 114 417 114 l 708 114 l 708 0 l 500 0 z "},"ť":{"ha":833,"x_min":76,"x_max":767,"o":"m 517 861 l 642 1078 l 767 1078 l 628 861 l 517 861 m 500 0 q 347 53 401 0 q 292 201 292 106 l 292 650 l 76 650 l 76 764 l 292 764 l 292 979 l 417 979 l 417 764 l 722 764 l 722 650 l 417 650 l 417 201 q 500 114 417 114 l 708 114 l 708 0 l 500 0 z "},"ţ":{"ha":833,"x_min":76,"x_max":722,"o":"m 368 -282 l 368 -206 l 465 -206 q 515 -190 496 -206 q 533 -156 533 -174 q 495 -114 533 -132 q 388 -96 457 -96 l 436 36 l 515 36 l 486 -49 q 561 -67 522 -53 q 626 -106 600 -81 q 653 -167 653 -131 q 607 -248 653 -214 q 486 -282 561 -282 l 368 -282 m 500 0 q 347 53 401 0 q 292 201 292 106 l 292 650 l 76 650 l 76 764 l 292 764 l 292 979 l 417 979 l 417 764 l 722 764 l 722 650 l 417 650 l 417 201 q 500 114 417 114 l 708 114 l 708 0 l 500 0 z "},"ț":{"ha":833,"x_min":76,"x_max":722,"o":"m 500 0 q 347 53 401 0 q 292 201 292 106 l 292 650 l 76 650 l 76 764 l 292 764 l 292 979 l 417 979 l 417 764 l 722 764 l 722 650 l 417 650 l 417 201 q 500 114 417 114 l 708 114 l 708 0 l 500 0 m 264 -333 l 396 -132 l 542 -132 l 396 -333 l 264 -333 z "},"u":{"ha":833,"x_min":125,"x_max":708,"o":"m 415 -14 q 204 65 283 -14 q 125 278 125 143 l 125 764 l 250 764 l 250 278 q 294 144 250 192 q 415 96 339 96 q 538 144 493 96 q 583 278 583 192 l 583 764 l 708 764 l 708 278 q 628 65 708 143 q 415 -14 547 -14 z "},"ú":{"ha":833,"x_min":125,"x_max":708,"o":"m 415 -14 q 204 65 283 -14 q 125 278 125 143 l 125 764 l 250 764 l 250 278 q 294 144 250 192 q 415 96 339 96 q 538 144 493 96 q 583 278 583 192 l 583 764 l 708 764 l 708 278 q 628 65 708 143 q 415 -14 547 -14 m 336 896 l 483 1090 l 618 1090 l 464 896 l 336 896 z "},"ŭ":{"ha":833,"x_min":125,"x_max":708,"o":"m 415 -14 q 204 65 283 -14 q 125 278 125 143 l 125 764 l 250 764 l 250 278 q 294 144 250 192 q 415 96 339 96 q 538 144 493 96 q 583 278 583 192 l 583 764 l 708 764 l 708 278 q 628 65 708 143 q 415 -14 547 -14 m 417 889 q 256 944 317 889 q 194 1090 194 1000 l 293 1090 q 326 1003 293 1036 q 415 969 360 969 q 506 1003 472 969 q 540 1090 540 1036 l 639 1090 q 578 944 639 1000 q 417 889 517 889 z "},"û":{"ha":833,"x_min":125,"x_max":708,"o":"m 415 -14 q 204 65 283 -14 q 125 278 125 143 l 125 764 l 250 764 l 250 278 q 294 144 250 192 q 415 96 339 96 q 538 144 493 96 q 583 278 583 192 l 583 764 l 708 764 l 708 278 q 628 65 708 143 q 415 -14 547 -14 m 165 896 l 358 1090 l 474 1090 l 668 896 l 531 896 l 417 1004 l 306 896 l 165 896 z "},"ü":{"ha":833,"x_min":125,"x_max":708,"o":"m 415 -14 q 204 65 283 -14 q 125 278 125 143 l 125 764 l 250 764 l 250 278 q 294 144 250 192 q 415 96 339 96 q 538 144 493 96 q 583 278 583 192 l 583 764 l 708 764 l 708 278 q 628 65 708 143 q 415 -14 547 -14 m 571 901 q 506 925 531 901 q 482 989 482 949 q 506 1055 482 1031 q 571 1079 531 1079 q 635 1055 611 1079 q 660 989 660 1031 q 635 925 660 949 q 571 901 611 901 m 263 901 q 198 925 222 901 q 174 989 174 949 q 198 1055 174 1031 q 263 1079 222 1079 q 327 1055 303 1079 q 351 989 351 1031 q 327 925 351 949 q 263 901 303 901 z "},"ụ":{"ha":833,"x_min":125,"x_max":708,"o":"m 415 -14 q 204 65 283 -14 q 125 278 125 143 l 125 764 l 250 764 l 250 278 q 294 144 250 192 q 415 96 339 96 q 538 144 493 96 q 583 278 583 192 l 583 764 l 708 764 l 708 278 q 628 65 708 143 q 415 -14 547 -14 m 417 -296 q 344 -272 371 -296 q 318 -208 318 -249 q 344 -142 318 -167 q 417 -118 371 -118 q 489 -142 463 -118 q 515 -208 515 -167 q 489 -272 515 -249 q 417 -296 463 -296 z "},"ù":{"ha":833,"x_min":125,"x_max":708,"o":"m 415 -14 q 204 65 283 -14 q 125 278 125 143 l 125 764 l 250 764 l 250 278 q 294 144 250 192 q 415 96 339 96 q 538 144 493 96 q 583 278 583 192 l 583 764 l 708 764 l 708 278 q 628 65 708 143 q 415 -14 547 -14 m 371 896 l 211 1090 l 350 1090 l 503 896 l 371 896 z "},"ủ":{"ha":833,"x_min":125,"x_max":708,"o":"m 415 -14 q 204 65 283 -14 q 125 278 125 143 l 125 764 l 250 764 l 250 278 q 294 144 250 192 q 415 96 339 96 q 538 144 493 96 q 583 278 583 192 l 583 764 l 708 764 l 708 278 q 628 65 708 143 q 415 -14 547 -14 m 358 896 l 428 983 q 447 1028 447 1010 q 403 1056 447 1056 l 292 1056 l 292 1146 l 438 1146 q 523 1119 490 1146 q 556 1043 556 1092 q 532 968 556 999 l 476 896 l 358 896 z "},"ư":{"ha":833,"x_min":125,"x_max":833,"o":"m 125 278 l 125 764 l 250 764 l 250 278 q 294 144 250 192 q 415 96 339 96 q 538 144 493 96 q 583 278 583 192 l 583 764 l 681 764 q 717 776 704 764 q 729 813 729 789 l 729 917 l 833 917 l 833 806 q 803 710 833 746 q 708 674 774 674 l 708 278 q 628 65 708 143 q 415 -14 547 -14 q 204 65 283 -14 q 125 278 125 143 z "},"ứ":{"ha":833,"x_min":125,"x_max":833,"o":"m 125 278 l 125 764 l 250 764 l 250 278 q 294 144 250 192 q 415 96 339 96 q 538 144 493 96 q 583 278 583 192 l 583 764 l 681 764 q 717 776 704 764 q 729 813 729 789 l 729 917 l 833 917 l 833 806 q 803 710 833 746 q 708 674 774 674 l 708 278 q 628 65 708 143 q 415 -14 547 -14 q 204 65 283 -14 q 125 278 125 143 m 336 896 l 483 1090 l 618 1090 l 464 896 l 336 896 z "},"ự":{"ha":833,"x_min":125,"x_max":833,"o":"m 125 278 l 125 764 l 250 764 l 250 278 q 294 144 250 192 q 415 96 339 96 q 538 144 493 96 q 583 278 583 192 l 583 764 l 681 764 q 717 776 704 764 q 729 813 729 789 l 729 917 l 833 917 l 833 806 q 803 710 833 746 q 708 674 774 674 l 708 278 q 628 65 708 143 q 415 -14 547 -14 q 204 65 283 -14 q 125 278 125 143 m 415 -296 q 343 -272 369 -296 q 317 -208 317 -249 q 343 -142 317 -167 q 415 -118 369 -118 q 488 -142 461 -118 q 514 -208 514 -167 q 488 -272 514 -249 q 415 -296 461 -296 z "},"ừ":{"ha":833,"x_min":125,"x_max":833,"o":"m 125 278 l 125 764 l 250 764 l 250 278 q 294 144 250 192 q 415 96 339 96 q 538 144 493 96 q 583 278 583 192 l 583 764 l 681 764 q 717 776 704 764 q 729 813 729 789 l 729 917 l 833 917 l 833 806 q 803 710 833 746 q 708 674 774 674 l 708 278 q 628 65 708 143 q 415 -14 547 -14 q 204 65 283 -14 q 125 278 125 143 m 371 896 l 211 1090 l 350 1090 l 503 896 l 371 896 z "},"ử":{"ha":833,"x_min":125,"x_max":833,"o":"m 125 278 l 125 764 l 250 764 l 250 278 q 294 144 250 192 q 415 96 339 96 q 538 144 493 96 q 583 278 583 192 l 583 764 l 681 764 q 717 776 704 764 q 729 813 729 789 l 729 917 l 833 917 l 833 806 q 803 710 833 746 q 708 674 774 674 l 708 278 q 628 65 708 143 q 415 -14 547 -14 q 204 65 283 -14 q 125 278 125 143 m 358 896 l 428 983 q 447 1028 447 1010 q 403 1056 447 1056 l 292 1056 l 292 1146 l 438 1146 q 523 1119 490 1146 q 556 1043 556 1092 q 532 968 556 999 l 476 896 l 358 896 z "},"ữ":{"ha":833,"x_min":125,"x_max":833,"o":"m 125 278 l 125 764 l 250 764 l 250 278 q 294 144 250 192 q 415 96 339 96 q 538 144 493 96 q 583 278 583 192 l 583 764 l 681 764 q 717 776 704 764 q 729 813 729 789 l 729 917 l 833 917 l 833 806 q 803 710 833 746 q 708 674 774 674 l 708 278 q 628 65 708 143 q 415 -14 547 -14 q 204 65 283 -14 q 125 278 125 143 m 514 903 q 446 917 472 903 q 401 951 419 932 q 367 985 383 971 q 326 1000 350 1000 q 297 988 308 1000 q 285 951 285 976 l 285 910 l 194 910 l 194 951 q 229 1049 194 1014 q 319 1083 264 1083 q 388 1069 361 1083 q 432 1035 414 1054 q 467 1001 450 1015 q 507 986 483 986 q 538 998 526 986 q 549 1035 549 1010 l 549 1076 l 639 1076 l 639 1035 q 605 938 639 972 q 514 903 571 903 z "},"ű":{"ha":833,"x_min":125,"x_max":733,"o":"m 415 -14 q 204 65 283 -14 q 125 278 125 143 l 125 764 l 250 764 l 250 278 q 294 144 250 192 q 415 96 339 96 q 538 144 493 96 q 583 278 583 192 l 583 764 l 708 764 l 708 278 q 628 65 708 143 q 415 -14 547 -14 m 453 896 l 606 1090 l 733 1090 l 574 896 l 453 896 m 204 896 l 357 1090 l 485 1090 l 325 896 l 204 896 z "},"ū":{"ha":833,"x_min":125,"x_max":708,"o":"m 415 -14 q 204 65 283 -14 q 125 278 125 143 l 125 764 l 250 764 l 250 278 q 294 144 250 192 q 415 96 339 96 q 538 144 493 96 q 583 278 583 192 l 583 764 l 708 764 l 708 278 q 628 65 708 143 q 415 -14 547 -14 m 194 931 l 194 1035 l 639 1035 l 639 931 l 194 931 z "},"ų":{"ha":833,"x_min":125,"x_max":708,"o":"m 517 -282 q 394 -245 440 -282 q 347 -153 347 -208 q 365 -90 347 -122 q 429 -14 382 -57 q 426 -14 428 -14 q 422 -14 424 -14 q 417 -14 419 -14 q 203 64 281 -14 q 125 278 125 142 l 125 764 l 250 764 l 250 278 q 293 143 250 189 q 417 97 336 97 q 541 143 499 97 q 583 278 583 189 l 583 764 l 708 764 l 708 278 q 678 128 708 192 q 588 29 647 65 l 554 1 q 486 -69 507 -37 q 465 -129 465 -100 q 486 -179 465 -160 q 542 -199 507 -199 l 625 -199 l 625 -282 l 517 -282 z "},"ů":{"ha":833,"x_min":125,"x_max":708,"o":"m 415 -14 q 204 65 283 -14 q 125 278 125 143 l 125 764 l 250 764 l 250 278 q 294 144 250 192 q 415 96 339 96 q 538 144 493 96 q 583 278 583 192 l 583 764 l 708 764 l 708 278 q 628 65 708 143 q 415 -14 547 -14 m 417 844 q 296 888 342 844 q 250 1003 250 932 q 296 1117 250 1074 q 417 1161 342 1161 q 538 1117 492 1161 q 583 1003 583 1074 q 538 888 583 932 q 417 844 492 844 m 417 918 q 477 941 454 918 q 500 1003 500 964 q 477 1065 500 1042 q 417 1089 454 1089 q 356 1065 379 1089 q 333 1003 333 1042 q 356 941 333 964 q 417 918 379 918 z "},"ũ":{"ha":833,"x_min":125,"x_max":708,"o":"m 415 -14 q 204 65 283 -14 q 125 278 125 143 l 125 764 l 250 764 l 250 278 q 294 144 250 192 q 415 96 339 96 q 538 144 493 96 q 583 278 583 192 l 583 764 l 708 764 l 708 278 q 628 65 708 143 q 415 -14 547 -14 m 514 903 q 446 917 472 903 q 401 951 419 932 q 367 985 383 971 q 326 1000 350 1000 q 297 988 308 1000 q 285 951 285 976 l 285 910 l 194 910 l 194 951 q 229 1049 194 1014 q 319 1083 264 1083 q 388 1069 361 1083 q 432 1035 414 1054 q 467 1001 450 1015 q 507 986 483 986 q 538 998 526 986 q 549 1035 549 1010 l 549 1076 l 639 1076 l 639 1035 q 605 938 639 972 q 514 903 571 903 z "},"v":{"ha":833,"x_min":76,"x_max":757,"o":"m 332 0 l 76 764 l 204 764 l 374 250 q 401 162 389 204 q 419 96 414 119 q 439 162 426 119 q 465 250 451 204 l 631 764 l 757 764 l 501 0 l 332 0 z "},"w":{"ha":833,"x_min":49,"x_max":785,"o":"m 171 0 l 49 764 l 160 764 l 236 222 q 245 156 240 192 q 253 97 250 121 q 262 156 256 121 q 272 222 268 192 l 357 764 l 476 764 l 561 222 q 572 156 565 192 q 581 97 578 121 q 590 156 583 121 q 600 222 596 192 l 679 764 l 785 764 l 657 0 l 519 0 l 438 528 q 425 606 432 567 q 415 667 418 644 q 407 606 413 644 q 394 528 401 567 l 308 0 l 171 0 z "},"ẃ":{"ha":833,"x_min":49,"x_max":785,"o":"m 171 0 l 49 764 l 160 764 l 236 222 q 245 156 240 192 q 253 97 250 121 q 262 156 256 121 q 272 222 268 192 l 357 764 l 476 764 l 561 222 q 572 156 565 192 q 581 97 578 121 q 590 156 583 121 q 600 222 596 192 l 679 764 l 785 764 l 657 0 l 519 0 l 438 528 q 425 606 432 567 q 415 667 418 644 q 407 606 413 644 q 394 528 401 567 l 308 0 l 171 0 m 336 896 l 483 1090 l 618 1090 l 464 896 l 336 896 z "},"ŵ":{"ha":833,"x_min":49,"x_max":785,"o":"m 171 0 l 49 764 l 160 764 l 236 222 q 245 156 240 192 q 253 97 250 121 q 262 156 256 121 q 272 222 268 192 l 357 764 l 476 764 l 561 222 q 572 156 565 192 q 581 97 578 121 q 590 156 583 121 q 600 222 596 192 l 679 764 l 785 764 l 657 0 l 519 0 l 438 528 q 425 606 432 567 q 415 667 418 644 q 407 606 413 644 q 394 528 401 567 l 308 0 l 171 0 m 165 896 l 358 1090 l 474 1090 l 668 896 l 531 896 l 417 1004 l 306 896 l 165 896 z "},"ẅ":{"ha":833,"x_min":49,"x_max":785,"o":"m 171 0 l 49 764 l 160 764 l 236 222 q 245 156 240 192 q 253 97 250 121 q 262 156 256 121 q 272 222 268 192 l 357 764 l 476 764 l 561 222 q 572 156 565 192 q 581 97 578 121 q 590 156 583 121 q 600 222 596 192 l 679 764 l 785 764 l 657 0 l 519 0 l 438 528 q 425 606 432 567 q 415 667 418 644 q 407 606 413 644 q 394 528 401 567 l 308 0 l 171 0 m 571 901 q 506 925 531 901 q 482 989 482 949 q 506 1055 482 1031 q 571 1079 531 1079 q 635 1055 611 1079 q 660 989 660 1031 q 635 925 660 949 q 571 901 611 901 m 263 901 q 198 925 222 901 q 174 989 174 949 q 198 1055 174 1031 q 263 1079 222 1079 q 327 1055 303 1079 q 351 989 351 1031 q 327 925 351 949 q 263 901 303 901 z "},"ẁ":{"ha":833,"x_min":49,"x_max":785,"o":"m 171 0 l 49 764 l 160 764 l 236 222 q 245 156 240 192 q 253 97 250 121 q 262 156 256 121 q 272 222 268 192 l 357 764 l 476 764 l 561 222 q 572 156 565 192 q 581 97 578 121 q 590 156 583 121 q 600 222 596 192 l 679 764 l 785 764 l 657 0 l 519 0 l 438 528 q 425 606 432 567 q 415 667 418 644 q 407 606 413 644 q 394 528 401 567 l 308 0 l 171 0 m 371 896 l 211 1090 l 350 1090 l 503 896 l 371 896 z "},"x":{"ha":833,"x_min":69,"x_max":764,"o":"m 69 0 l 340 393 l 86 764 l 233 764 l 385 528 q 403 494 394 513 q 418 465 413 476 q 431 494 422 476 q 450 528 440 513 l 603 764 l 749 764 l 494 392 l 764 0 l 617 0 l 453 250 q 434 285 443 265 q 418 318 425 306 q 402 285 413 306 q 381 250 392 265 l 215 0 l 69 0 z "},"y":{"ha":833,"x_min":76,"x_max":757,"o":"m 247 -250 l 360 47 l 76 764 l 215 764 l 393 292 q 411 235 403 268 q 425 181 419 203 q 439 235 431 203 q 456 292 447 268 l 622 764 l 757 764 l 381 -250 l 247 -250 z "},"ý":{"ha":833,"x_min":76,"x_max":757,"o":"m 247 -250 l 360 47 l 76 764 l 215 764 l 393 292 q 411 235 403 268 q 425 181 419 203 q 439 235 431 203 q 456 292 447 268 l 622 764 l 757 764 l 381 -250 l 247 -250 m 336 896 l 483 1090 l 618 1090 l 464 896 l 336 896 z "},"ŷ":{"ha":833,"x_min":76,"x_max":757,"o":"m 247 -250 l 360 47 l 76 764 l 215 764 l 393 292 q 411 235 403 268 q 425 181 419 203 q 439 235 431 203 q 456 292 447 268 l 622 764 l 757 764 l 381 -250 l 247 -250 m 165 896 l 358 1090 l 474 1090 l 668 896 l 531 896 l 417 1004 l 306 896 l 165 896 z "},"ÿ":{"ha":833,"x_min":76,"x_max":757,"o":"m 247 -250 l 360 47 l 76 764 l 215 764 l 393 292 q 411 235 403 268 q 425 181 419 203 q 439 235 431 203 q 456 292 447 268 l 622 764 l 757 764 l 381 -250 l 247 -250 m 571 901 q 506 925 531 901 q 482 989 482 949 q 506 1055 482 1031 q 571 1079 531 1079 q 635 1055 611 1079 q 660 989 660 1031 q 635 925 660 949 q 571 901 611 901 m 263 901 q 198 925 222 901 q 174 989 174 949 q 198 1055 174 1031 q 263 1079 222 1079 q 327 1055 303 1079 q 351 989 351 1031 q 327 925 351 949 q 263 901 303 901 z "},"ỵ":{"ha":833,"x_min":76,"x_max":757,"o":"m 247 -250 l 360 47 l 76 764 l 215 764 l 393 292 q 411 235 403 268 q 425 181 419 203 q 439 235 431 203 q 456 292 447 268 l 622 764 l 757 764 l 381 -250 l 247 -250 m 639 -296 q 567 -272 593 -296 q 540 -208 540 -249 q 567 -142 540 -167 q 639 -118 593 -118 q 711 -142 685 -118 q 738 -208 738 -167 q 711 -272 738 -249 q 639 -296 685 -296 z "},"ỳ":{"ha":833,"x_min":76,"x_max":757,"o":"m 247 -250 l 360 47 l 76 764 l 215 764 l 393 292 q 411 235 403 268 q 425 181 419 203 q 439 235 431 203 q 456 292 447 268 l 622 764 l 757 764 l 381 -250 l 247 -250 m 371 896 l 211 1090 l 350 1090 l 503 896 l 371 896 z "},"ỷ":{"ha":833,"x_min":76,"x_max":757,"o":"m 247 -250 l 360 47 l 76 764 l 215 764 l 393 292 q 411 235 403 268 q 425 181 419 203 q 439 235 431 203 q 456 292 447 268 l 622 764 l 757 764 l 381 -250 l 247 -250 m 358 896 l 428 983 q 447 1028 447 1010 q 403 1056 447 1056 l 292 1056 l 292 1146 l 438 1146 q 523 1119 490 1146 q 556 1043 556 1092 q 532 968 556 999 l 476 896 l 358 896 z "},"ȳ":{"ha":833,"x_min":76,"x_max":757,"o":"m 247 -250 l 360 47 l 76 764 l 215 764 l 393 292 q 411 235 403 268 q 425 181 419 203 q 439 235 431 203 q 456 292 447 268 l 622 764 l 757 764 l 381 -250 l 247 -250 m 194 931 l 194 1035 l 639 1035 l 639 931 l 194 931 z "},"ỹ":{"ha":833,"x_min":76,"x_max":757,"o":"m 247 -250 l 360 47 l 76 764 l 215 764 l 393 292 q 411 235 403 268 q 425 181 419 203 q 439 235 431 203 q 456 292 447 268 l 622 764 l 757 764 l 381 -250 l 247 -250 m 514 903 q 446 917 472 903 q 401 951 419 932 q 367 985 383 971 q 326 1000 350 1000 q 297 988 308 1000 q 285 951 285 976 l 285 910 l 194 910 l 194 951 q 229 1049 194 1014 q 319 1083 264 1083 q 388 1069 361 1083 q 432 1035 414 1054 q 467 1001 450 1015 q 507 986 483 986 q 538 998 526 986 q 549 1035 549 1010 l 549 1076 l 639 1076 l 639 1035 q 605 938 639 972 q 514 903 571 903 z "},"z":{"ha":833,"x_min":125,"x_max":708,"o":"m 125 0 l 125 125 l 553 650 l 136 650 l 136 764 l 693 764 l 693 639 l 257 114 l 708 114 l 708 0 l 125 0 z "},"ź":{"ha":833,"x_min":125,"x_max":708,"o":"m 125 0 l 125 125 l 553 650 l 136 650 l 136 764 l 693 764 l 693 639 l 257 114 l 708 114 l 708 0 l 125 0 m 336 896 l 483 1090 l 618 1090 l 464 896 l 336 896 z "},"ž":{"ha":833,"x_min":125,"x_max":708,"o":"m 125 0 l 125 125 l 553 650 l 136 650 l 136 764 l 693 764 l 693 639 l 257 114 l 708 114 l 708 0 l 125 0 m 360 896 l 165 1090 l 303 1090 l 417 982 l 528 1090 l 668 1090 l 475 896 l 360 896 z "},"ż":{"ha":833,"x_min":125,"x_max":708,"o":"m 125 0 l 125 125 l 553 650 l 136 650 l 136 764 l 693 764 l 693 639 l 257 114 l 708 114 l 708 0 l 125 0 m 417 901 q 344 925 371 901 q 318 989 318 949 q 344 1055 318 1031 q 417 1079 371 1079 q 489 1055 463 1079 q 515 989 515 1031 q 489 925 515 949 q 417 901 463 901 z "},"ª":{"ha":833,"x_min":243,"x_max":583,"o":"m 518 632 l 518 708 l 514 708 l 514 903 q 490 953 514 935 q 424 972 465 972 q 363 957 388 972 q 333 917 338 942 l 264 917 q 313 999 271 969 q 424 1028 356 1028 q 540 994 497 1028 q 583 903 583 961 l 583 632 l 518 632 m 381 625 q 281 658 318 625 q 243 744 243 690 q 282 831 243 799 q 389 863 321 863 l 529 863 l 529 807 l 389 807 q 333 790 353 807 q 313 744 313 774 q 336 696 313 714 q 399 678 360 678 q 483 703 453 678 q 514 771 514 728 l 529 771 l 529 708 l 514 708 q 465 647 500 669 q 381 625 429 625 z "},"º":{"ha":833,"x_min":257,"x_max":576,"o":"m 417 618 q 301 658 344 618 q 257 764 257 699 l 257 875 q 301 981 257 940 q 417 1021 344 1021 q 533 981 489 1021 q 576 875 576 940 l 576 764 q 533 658 576 699 q 417 618 489 618 m 417 674 q 482 699 457 674 q 507 764 507 724 l 507 875 q 482 940 507 915 q 417 965 457 965 q 351 940 376 965 q 326 875 326 915 l 326 764 q 351 699 326 724 q 417 674 376 674 z "},"А":{"ha":833,"x_min":69,"x_max":764,"o":"m 69 0 l 333 1014 l 501 1014 l 764 0 l 638 0 l 571 269 l 264 269 l 197 0 l 69 0 m 289 375 l 544 375 l 467 688 q 432 836 444 776 q 417 914 419 896 q 401 836 414 896 q 367 689 389 776 l 289 375 z "},"Б":{"ha":833,"x_min":131,"x_max":736,"o":"m 131 0 l 131 1014 l 694 1014 l 694 900 l 256 900 l 256 594 l 424 594 q 590 558 521 594 q 698 454 660 521 q 736 297 736 388 q 698 140 736 207 q 590 37 660 74 q 424 0 521 0 l 131 0 m 256 114 l 424 114 q 558 163 510 114 q 607 297 607 213 q 558 432 607 383 q 424 481 510 481 l 256 481 l 256 114 z "},"В":{"ha":833,"x_min":129,"x_max":736,"o":"m 129 0 l 129 1014 l 417 1014 q 634 944 556 1014 q 713 751 713 875 q 683 631 713 682 q 601 551 654 579 q 472 525 547 524 l 472 546 q 612 515 553 547 q 703 424 671 483 q 736 282 736 364 q 700 132 736 196 q 597 34 664 68 q 438 0 531 0 l 129 0 m 251 113 l 424 113 q 562 159 511 113 q 613 286 613 206 q 562 422 613 369 q 424 474 511 474 l 251 474 l 251 113 m 251 582 l 415 582 q 542 625 496 582 q 589 742 589 668 q 543 858 589 815 q 417 901 497 901 l 251 901 l 251 582 z "},"Г":{"ha":833,"x_min":153,"x_max":743,"o":"m 153 0 l 153 1014 l 743 1014 l 743 900 l 278 900 l 278 0 l 153 0 z "},"Ѓ":{"ha":833,"x_min":153,"x_max":743,"o":"m 153 0 l 153 1014 l 743 1014 l 743 900 l 278 900 l 278 0 l 153 0 m 343 1125 l 490 1319 l 625 1319 l 471 1125 l 343 1125 z "},"Ґ":{"ha":833,"x_min":153,"x_max":743,"o":"m 153 0 l 153 1014 l 625 1014 l 625 1146 l 743 1146 l 743 900 l 278 900 l 278 0 l 153 0 z "},"Д":{"ha":833,"x_min":35,"x_max":799,"o":"m 35 -194 l 35 107 l 97 107 q 129 182 113 135 q 158 289 146 229 q 172 414 171 349 l 182 1014 l 701 1014 l 701 107 l 799 107 l 799 -194 l 688 -194 l 688 0 l 146 0 l 146 -194 l 35 -194 m 228 107 l 576 107 l 576 903 l 301 903 l 294 414 q 271 225 293 307 q 228 107 249 143 z "},"Е":{"ha":833,"x_min":139,"x_max":722,"o":"m 139 0 l 139 1014 l 722 1014 l 722 900 l 263 900 l 263 586 l 674 586 l 674 474 l 263 474 l 263 114 l 722 114 l 722 0 l 139 0 z "},"Ё":{"ha":833,"x_min":139,"x_max":722,"o":"m 139 0 l 139 1014 l 722 1014 l 722 900 l 263 900 l 263 586 l 674 586 l 674 474 l 263 474 l 263 114 l 722 114 l 722 0 l 139 0 m 599 1135 q 534 1158 558 1135 q 510 1222 510 1182 q 534 1288 510 1264 q 599 1313 558 1313 q 663 1288 639 1313 q 688 1222 688 1264 q 663 1158 688 1182 q 599 1135 639 1135 m 290 1135 q 226 1158 250 1135 q 201 1222 201 1182 q 226 1288 201 1264 q 290 1313 250 1313 q 355 1288 331 1313 q 379 1222 379 1264 q 355 1158 379 1182 q 290 1135 331 1135 z "},"Ж":{"ha":833,"x_min":17,"x_max":817,"o":"m 17 0 l 200 522 l 31 1014 l 161 1014 l 306 564 l 364 564 l 364 1014 l 469 1014 l 469 564 l 529 564 l 672 1014 l 803 1014 l 636 521 l 817 0 l 688 0 l 532 475 l 469 475 l 469 0 l 364 0 l 364 475 l 301 475 l 144 0 l 17 0 z "},"З":{"ha":833,"x_min":74,"x_max":739,"o":"m 403 -14 q 236 19 308 -14 q 122 114 164 53 q 74 257 79 175 l 199 257 q 263 140 207 183 q 403 97 318 97 q 552 147 497 97 q 607 278 607 197 q 551 409 607 360 q 403 458 496 458 l 278 458 l 278 572 l 401 572 q 538 625 486 572 q 589 754 589 678 q 538 874 589 832 q 401 917 488 917 q 265 869 317 917 q 214 743 214 821 l 89 743 q 128 893 89 829 q 237 992 167 957 q 401 1028 307 1028 q 633 961 547 1028 q 719 771 719 894 q 690 647 719 701 q 605 561 660 592 q 475 532 550 531 l 475 553 q 615 522 556 554 q 706 428 674 489 q 739 286 739 368 q 698 131 739 199 q 581 25 657 64 q 403 -14 506 -14 z "},"И":{"ha":833,"x_min":125,"x_max":708,"o":"m 125 0 l 125 1014 l 246 1014 l 246 444 q 244 338 246 394 q 239 231 242 282 q 233 146 236 181 l 542 1014 l 708 1014 l 708 0 l 588 0 l 588 569 q 590 677 588 621 q 595 784 592 733 q 601 868 599 835 l 292 0 l 125 0 z "},"Й":{"ha":833,"x_min":125,"x_max":708,"o":"m 125 0 l 125 1014 l 246 1014 l 246 444 q 244 338 246 394 q 239 231 242 282 q 233 146 236 181 l 542 1014 l 708 1014 l 708 0 l 588 0 l 588 569 q 590 677 588 621 q 595 784 592 733 q 601 868 599 835 l 292 0 l 125 0 m 417 1118 q 256 1174 317 1118 q 194 1319 194 1229 l 293 1319 q 326 1232 293 1265 q 415 1199 360 1199 q 506 1232 472 1199 q 540 1319 540 1265 l 639 1319 q 578 1174 639 1229 q 417 1118 517 1118 z "},"К":{"ha":833,"x_min":128,"x_max":778,"o":"m 128 0 l 128 1014 l 253 1014 l 253 579 l 403 579 l 628 1014 l 764 1014 l 513 526 l 778 0 l 635 0 l 399 469 l 253 469 l 253 0 l 128 0 z "},"Ќ":{"ha":833,"x_min":128,"x_max":778,"o":"m 336 1125 l 483 1319 l 618 1319 l 464 1125 l 336 1125 m 128 0 l 128 1014 l 253 1014 l 253 579 l 403 579 l 628 1014 l 764 1014 l 513 526 l 778 0 l 635 0 l 399 469 l 253 469 l 253 0 l 128 0 z "},"Л":{"ha":833,"x_min":28,"x_max":703,"o":"m 28 -7 l 28 110 l 53 110 q 141 165 114 110 q 169 353 168 219 l 181 1014 l 703 1014 l 703 0 l 578 0 l 578 900 l 304 900 l 294 353 q 235 80 292 167 q 60 -7 179 -7 l 28 -7 z "},"М":{"ha":833,"x_min":106,"x_max":728,"o":"m 106 0 l 106 1014 l 269 1014 l 375 686 q 403 598 390 642 q 421 531 415 554 q 439 598 428 554 q 464 688 450 642 l 564 1014 l 728 1014 l 728 0 l 606 0 l 606 368 q 610 507 606 429 q 621 666 614 585 q 635 822 628 747 q 649 951 643 896 l 485 444 l 353 444 l 188 951 q 201 826 194 897 q 214 674 208 754 q 224 515 219 594 q 228 368 228 436 l 228 0 l 106 0 z "},"Н":{"ha":833,"x_min":129,"x_max":704,"o":"m 129 0 l 129 1014 l 254 1014 l 254 581 l 579 581 l 579 1014 l 704 1014 l 704 0 l 579 0 l 579 467 l 254 467 l 254 0 l 129 0 z "},"О":{"ha":833,"x_min":122,"x_max":711,"o":"m 417 -14 q 259 21 325 -14 q 158 122 193 56 q 122 278 122 188 l 122 736 q 158 893 122 828 q 259 993 193 958 q 417 1028 325 1028 q 574 993 508 1028 q 676 893 640 958 q 711 738 711 828 l 711 278 q 676 122 711 188 q 574 21 640 56 q 417 -14 508 -14 m 417 99 q 542 145 499 99 q 586 278 586 192 l 586 736 q 542 869 586 822 q 417 915 499 915 q 292 869 336 915 q 247 736 247 822 l 247 278 q 292 145 247 192 q 417 99 336 99 z "},"П":{"ha":833,"x_min":131,"x_max":703,"o":"m 131 0 l 131 1014 l 703 1014 l 703 0 l 578 0 l 578 900 l 256 900 l 256 0 l 131 0 z "},"Р":{"ha":833,"x_min":128,"x_max":764,"o":"m 128 0 l 128 1014 l 454 1014 q 618 977 549 1014 q 726 874 688 940 q 764 715 764 807 q 726 558 764 625 q 618 453 688 490 q 454 417 549 417 l 253 417 l 253 0 l 128 0 m 253 529 l 454 529 q 585 580 536 529 q 635 715 635 631 q 585 851 635 801 q 454 901 536 901 l 253 901 l 253 529 z "},"С":{"ha":833,"x_min":122,"x_max":719,"o":"m 422 -14 q 263 21 331 -14 q 159 122 196 56 q 122 278 122 188 l 122 736 q 159 893 122 828 q 263 993 196 958 q 422 1028 331 1028 q 581 992 514 1028 q 683 892 647 957 q 719 736 719 826 l 594 736 q 549 869 594 822 q 422 915 504 915 q 294 869 340 915 q 247 738 247 824 l 247 278 q 294 145 247 192 q 422 99 340 99 q 549 145 504 99 q 594 278 594 192 l 719 278 q 683 123 719 189 q 581 22 647 57 q 422 -14 514 -14 z "},"Т":{"ha":833,"x_min":76,"x_max":757,"o":"m 354 0 l 354 901 l 76 901 l 76 1015 l 757 1015 l 757 901 l 479 901 l 479 0 l 354 0 z "},"У":{"ha":833,"x_min":69,"x_max":764,"o":"m 265 0 l 368 263 l 69 1014 l 206 1014 l 388 518 q 417 428 406 471 q 431 365 428 386 q 443 428 433 386 q 468 518 453 471 l 628 1014 l 764 1014 l 399 0 l 265 0 z "},"Ў":{"ha":833,"x_min":69,"x_max":764,"o":"m 265 0 l 368 263 l 69 1014 l 206 1014 l 388 518 q 417 428 406 471 q 431 365 428 386 q 443 428 433 386 q 468 518 453 471 l 628 1014 l 764 1014 l 399 0 l 265 0 m 417 1118 q 256 1174 317 1118 q 194 1319 194 1229 l 293 1319 q 326 1232 293 1265 q 415 1199 360 1199 q 506 1232 472 1199 q 540 1319 540 1265 l 639 1319 q 578 1174 639 1229 q 417 1118 517 1118 z "},"Ф":{"ha":833,"x_min":75,"x_max":758,"o":"m 358 -35 l 358 63 q 210 99 274 63 q 110 199 146 135 q 75 351 75 264 l 75 676 q 110 833 75 767 q 208 935 144 899 q 358 972 272 972 l 358 1069 l 475 1069 l 475 972 q 625 935 561 972 q 724 833 689 899 q 758 676 758 767 l 758 351 q 723 199 758 264 q 624 99 688 135 q 475 63 561 63 l 475 -35 l 358 -35 m 358 168 l 358 867 q 269 844 307 867 q 212 778 232 821 q 192 676 192 736 l 192 351 q 212 253 192 294 q 269 190 232 213 q 358 168 307 168 m 475 168 q 565 190 528 168 q 622 253 601 213 q 642 351 642 294 l 642 676 q 622 778 642 736 q 565 844 601 821 q 475 867 528 867 l 475 168 z "},"Х":{"ha":833,"x_min":56,"x_max":778,"o":"m 56 0 l 347 514 l 71 1014 l 215 1014 l 372 714 q 398 663 385 690 q 419 621 411 636 q 440 663 426 636 q 465 714 453 690 l 625 1014 l 763 1014 l 486 522 l 778 0 l 635 0 l 461 322 q 435 373 449 346 q 415 417 422 400 q 395 374 408 400 q 369 324 382 347 l 194 0 l 56 0 z "},"Ч":{"ha":833,"x_min":104,"x_max":701,"o":"m 576 0 l 576 390 q 509 381 558 386 q 389 376 460 376 q 181 456 258 376 q 104 668 104 535 l 104 1014 l 229 1014 l 229 668 q 278 537 229 586 q 410 488 328 488 q 519 492 476 488 q 576 501 563 497 l 576 1014 l 701 1014 l 701 0 l 576 0 z "},"Ц":{"ha":833,"x_min":131,"x_max":785,"o":"m 674 -194 l 674 0 l 131 0 l 131 1014 l 256 1014 l 256 111 l 556 111 l 556 1014 l 681 1014 l 681 111 l 785 111 l 785 -194 l 674 -194 z "},"Ш":{"ha":833,"x_min":89,"x_max":744,"o":"m 92 0 l 89 1014 l 206 1014 l 206 94 l 368 94 l 368 1014 l 468 1014 l 468 94 l 629 94 l 629 1014 l 744 1014 l 744 0 l 92 0 z "},"Щ":{"ha":833,"x_min":89,"x_max":799,"o":"m 688 -194 l 688 0 l 89 0 l 89 1014 l 201 1014 l 201 106 l 363 106 l 363 1014 l 460 1014 l 460 106 l 621 106 l 621 1014 l 733 1014 l 733 106 l 799 106 l 799 -194 l 688 -194 z "},"Џ":{"ha":833,"x_min":131,"x_max":703,"o":"m 354 -174 l 354 0 l 131 0 l 131 1014 l 256 1014 l 256 114 l 578 114 l 578 1014 l 703 1014 l 703 0 l 479 0 l 479 -174 l 354 -174 z "},"Ь":{"ha":833,"x_min":131,"x_max":764,"o":"m 131 0 l 131 1014 l 256 1014 l 256 597 l 458 597 q 619 560 550 597 q 726 456 688 522 q 764 299 764 389 q 726 142 764 210 q 619 38 688 75 q 458 0 550 0 l 131 0 m 256 114 l 451 114 q 584 165 533 114 q 635 299 635 215 q 584 433 635 382 q 451 483 533 483 l 256 483 l 256 114 z "},"Ъ":{"ha":833,"x_min":-7,"x_max":764,"o":"m 188 0 l 188 900 l -7 900 l -7 1014 l 313 1014 l 313 597 l 458 597 q 619 560 550 597 q 726 456 688 522 q 764 299 764 389 q 726 142 764 210 q 619 38 688 75 q 458 0 550 0 l 188 0 m 313 114 l 451 114 q 584 165 533 114 q 635 299 635 215 q 584 433 635 382 q 451 483 533 483 l 313 483 l 313 114 z "},"Ы":{"ha":833,"x_min":90,"x_max":743,"o":"m 90 0 l 90 1014 l 207 1014 l 207 597 l 264 597 q 463 526 390 597 q 536 333 536 456 l 536 263 q 464 70 536 140 q 264 0 392 0 l 90 0 m 207 110 l 264 110 q 377 151 338 110 q 417 264 417 192 l 417 333 q 377 447 417 407 q 264 488 338 488 l 207 488 l 207 110 m 626 0 l 626 1014 l 743 1014 l 743 0 l 626 0 z "},"Љ":{"ha":833,"x_min":-7,"x_max":806,"o":"m -7 -7 l -7 104 l 18 104 q 74 149 54 104 q 96 269 94 193 l 103 1014 l 500 1014 l 500 597 l 583 597 q 744 538 683 597 q 806 382 806 479 l 806 215 q 744 59 806 118 q 583 0 683 0 l 389 0 l 389 910 l 213 910 l 206 269 q 153 67 204 142 q 14 -7 101 -7 l -7 -7 m 500 104 l 583 104 q 664 135 633 104 q 694 215 694 165 l 694 382 q 664 463 694 432 q 583 493 633 493 l 500 493 l 500 104 z "},"Њ":{"ha":833,"x_min":74,"x_max":806,"o":"m 74 0 l 74 1014 l 185 1014 l 185 597 l 389 597 l 389 1014 l 500 1014 l 500 597 l 583 597 q 746 539 686 597 q 806 382 806 481 l 806 215 q 746 58 806 117 q 583 0 686 0 l 389 0 l 389 493 l 185 493 l 185 0 l 74 0 m 500 104 l 583 104 q 665 134 636 104 q 694 215 694 164 l 694 382 q 665 464 694 435 q 583 493 636 493 l 500 493 l 500 104 z "},"Ѕ":{"ha":833,"x_min":100,"x_max":733,"o":"m 422 -14 q 251 19 322 -14 q 140 115 179 53 q 100 264 101 178 l 225 264 q 277 143 225 188 q 422 99 329 99 q 559 142 510 99 q 608 261 608 185 q 576 368 608 322 q 482 432 543 414 l 344 475 q 184 582 240 507 q 128 758 128 657 q 165 901 128 840 q 268 995 201 961 q 425 1029 335 1029 q 639 955 558 1029 q 721 757 719 881 l 596 757 q 551 874 596 832 q 424 917 506 917 q 298 878 343 917 q 253 769 253 839 q 286 661 253 707 q 382 596 319 615 l 521 551 q 678 443 622 519 q 733 264 733 367 q 694 118 733 181 q 585 21 656 56 q 422 -14 515 -14 z "},"Є":{"ha":833,"x_min":125,"x_max":717,"o":"m 422 -14 q 264 21 331 -14 q 161 122 197 56 q 125 278 125 188 l 125 736 q 161 893 125 828 q 264 993 197 958 q 422 1028 331 1028 q 580 992 514 1028 q 681 892 646 957 q 717 736 717 826 l 592 736 q 548 869 592 822 q 422 917 504 917 q 295 870 340 917 q 250 738 250 824 l 250 568 l 563 568 l 563 454 l 250 454 l 250 278 q 295 144 250 192 q 422 97 340 97 q 548 144 504 97 q 592 278 592 192 l 717 278 q 681 123 717 189 q 580 22 646 57 q 422 -14 514 -14 z "},"Э":{"ha":833,"x_min":117,"x_max":708,"o":"m 411 -14 q 254 22 321 -14 q 152 123 188 57 q 117 278 117 189 l 242 278 q 286 144 242 192 q 411 97 331 97 q 538 144 493 97 q 583 278 583 192 l 583 454 l 271 454 l 271 568 l 583 568 l 583 738 q 538 870 583 824 q 411 917 493 917 q 286 869 331 917 q 242 736 242 822 l 117 736 q 152 892 117 826 q 254 992 188 957 q 411 1028 321 1028 q 570 993 504 1028 q 672 893 636 958 q 708 736 708 828 l 708 278 q 672 122 708 188 q 570 21 636 56 q 411 -14 504 -14 z "},"І":{"ha":833,"x_min":146,"x_max":688,"o":"m 146 0 l 146 114 l 353 114 l 353 900 l 146 900 l 146 1014 l 688 1014 l 688 900 l 481 900 l 481 114 l 688 114 l 688 0 l 146 0 z "},"Ї":{"ha":833,"x_min":146,"x_max":688,"o":"m 146 0 l 146 114 l 353 114 l 353 900 l 146 900 l 146 1014 l 688 1014 l 688 900 l 481 900 l 481 114 l 688 114 l 688 0 l 146 0 m 571 1135 q 506 1158 531 1135 q 482 1222 482 1182 q 506 1288 482 1264 q 571 1313 531 1313 q 635 1288 611 1313 q 660 1222 660 1264 q 635 1158 660 1182 q 571 1135 611 1135 m 263 1135 q 198 1158 222 1135 q 174 1222 174 1182 q 198 1288 174 1264 q 263 1313 222 1313 q 327 1288 303 1313 q 351 1222 351 1264 q 327 1158 351 1182 q 263 1135 303 1135 z "},"Ј":{"ha":833,"x_min":63,"x_max":688,"o":"m 375 -14 q 146 68 229 -14 q 63 292 63 150 l 188 292 q 237 148 188 199 q 375 97 286 97 q 513 148 464 97 q 563 292 563 199 l 563 900 l 319 900 l 319 1014 l 688 1014 l 688 292 q 603 68 688 150 q 375 -14 519 -14 z "},"Ћ":{"ha":833,"x_min":0,"x_max":743,"o":"m 153 0 l 153 904 l 0 904 l 0 1014 l 444 1014 l 444 904 l 278 904 l 278 550 l 300 574 q 526 688 406 688 q 684 620 625 688 q 743 439 743 553 l 743 0 l 618 0 l 618 411 q 587 539 618 496 q 497 582 556 582 q 339 496 419 582 l 278 431 l 278 0 l 153 0 z "},"Ю":{"ha":833,"x_min":83,"x_max":778,"o":"m 540 -14 q 371 57 433 -14 q 308 250 308 128 l 308 465 l 199 465 l 199 0 l 83 0 l 83 1014 l 199 1014 l 199 576 l 308 576 l 308 764 q 370 958 308 888 q 540 1028 432 1028 q 715 957 651 1028 q 778 764 778 886 l 778 250 q 715 57 778 128 q 540 -14 651 -14 m 540 94 q 631 135 600 94 q 663 250 663 175 l 663 764 q 631 879 663 839 q 540 919 600 919 q 449 879 481 919 q 418 764 418 839 l 418 250 q 449 135 418 175 q 540 94 481 94 z "},"Я":{"ha":833,"x_min":78,"x_max":701,"o":"m 78 0 l 286 444 q 142 546 194 472 q 89 722 89 619 q 126 875 89 810 q 232 977 164 940 q 390 1014 300 1014 l 701 1014 l 701 0 l 576 0 l 576 431 l 415 431 l 222 0 l 78 0 m 390 542 l 576 542 l 576 903 l 390 903 q 266 853 314 903 q 218 722 218 804 q 265 592 218 642 q 390 542 313 542 z "},"Ђ":{"ha":833,"x_min":0,"x_max":743,"o":"m 361 -250 l 361 -136 l 458 -136 q 575 -94 532 -136 q 618 21 618 -51 l 618 411 q 587 539 618 496 q 497 582 556 582 q 339 496 419 582 l 278 431 l 278 0 l 153 0 l 153 904 l 0 904 l 0 1014 l 444 1014 l 444 904 l 278 904 l 278 550 l 300 574 q 526 688 406 688 q 684 620 625 688 q 743 439 743 553 l 743 21 q 708 -122 743 -61 q 608 -217 672 -183 q 458 -250 544 -250 l 361 -250 z "},"Ү":{"ha":833,"x_min":49,"x_max":785,"o":"m 354 0 l 354 379 l 49 1014 l 178 1014 l 379 597 q 406 538 396 563 q 418 503 415 514 q 431 538 421 514 q 458 597 442 563 l 656 1014 l 785 1014 l 479 379 l 479 0 l 354 0 z "},"Ө":{"ha":833,"x_min":125,"x_max":708,"o":"m 417 -14 q 203 65 281 -14 q 125 279 125 143 l 125 736 q 203 950 125 872 q 417 1028 281 1028 q 631 950 553 1028 q 708 736 708 872 l 708 279 q 673 123 708 189 q 572 22 638 57 q 417 -14 507 -14 m 417 96 q 542 143 499 96 q 585 279 585 190 l 585 464 l 249 464 l 249 279 q 292 143 249 190 q 417 96 336 96 m 249 575 l 585 575 l 585 736 q 542 872 585 825 q 417 918 499 918 q 292 872 335 918 q 249 736 249 825 l 249 575 z "},"а":{"ha":833,"x_min":90,"x_max":708,"o":"m 350 -14 q 160 48 229 -14 q 90 215 90 110 q 160 383 90 322 q 347 444 229 444 l 583 444 l 583 521 q 541 630 583 592 q 421 668 499 668 q 307 640 353 668 q 254 563 261 611 l 129 563 q 222 719 142 661 q 424 778 303 778 q 632 710 556 778 q 708 525 708 642 l 708 0 l 586 0 l 586 146 l 565 146 l 586 167 q 522 35 586 83 q 350 -14 457 -14 m 381 85 q 526 129 469 85 q 583 243 583 174 l 583 351 l 350 351 q 251 317 288 351 q 215 222 215 282 q 259 122 215 158 q 381 85 303 85 z "},"б":{"ha":833,"x_min":125,"x_max":708,"o":"m 417 -14 q 203 66 282 -14 q 125 285 125 146 l 125 632 q 217 915 125 815 q 479 1014 308 1014 l 674 1014 l 674 889 l 479 889 q 308 823 367 889 q 250 632 250 757 l 250 542 l 269 542 l 250 514 q 306 642 251 596 q 453 688 360 688 q 641 610 574 688 q 708 396 708 532 l 708 285 q 674 125 708 192 q 574 22 639 58 q 417 -14 508 -14 m 417 97 q 540 146 497 97 q 583 285 583 194 l 583 396 q 540 535 583 486 q 417 583 497 583 q 293 535 336 583 q 250 396 250 488 l 250 285 q 293 146 250 194 q 417 97 336 97 z "},"в":{"ha":833,"x_min":131,"x_max":729,"o":"m 131 0 l 131 764 l 461 764 q 646 710 581 764 q 711 561 711 657 q 657 434 711 482 q 514 386 603 386 l 514 397 q 670 349 611 397 q 729 218 729 300 q 660 58 729 115 q 465 0 590 0 l 131 0 m 253 110 l 465 110 q 569 139 532 110 q 606 221 606 168 q 569 304 606 275 q 465 333 532 333 l 253 333 l 253 110 m 253 442 l 461 442 q 553 469 519 442 q 588 547 588 497 q 554 626 588 597 q 461 654 521 654 l 253 654 l 253 442 z "},"г":{"ha":833,"x_min":181,"x_max":729,"o":"m 181 0 l 181 764 l 729 764 l 729 650 l 306 650 l 306 0 l 181 0 z "},"ѓ":{"ha":833,"x_min":181,"x_max":729,"o":"m 181 0 l 181 764 l 729 764 l 729 650 l 306 650 l 306 0 l 181 0 m 378 896 l 525 1090 l 660 1090 l 506 896 l 378 896 z "},"ґ":{"ha":833,"x_min":181,"x_max":729,"o":"m 181 0 l 181 764 l 611 764 l 611 910 l 729 910 l 729 650 l 306 650 l 306 0 l 181 0 z "},"д":{"ha":833,"x_min":42,"x_max":785,"o":"m 42 -194 l 42 107 l 104 107 q 153 200 128 131 q 181 376 179 269 l 189 764 l 688 764 l 688 107 l 785 107 l 785 -194 l 674 -194 l 674 0 l 153 0 l 153 -194 l 42 -194 m 236 107 l 563 107 l 563 653 l 307 653 l 301 374 q 278 196 300 264 q 236 107 256 128 z "},"е":{"ha":833,"x_min":118,"x_max":715,"o":"m 417 -14 q 259 22 326 -14 q 155 124 192 58 q 118 278 118 190 l 118 486 q 155 640 118 575 q 259 742 192 706 q 417 778 326 778 q 574 742 507 778 q 678 640 642 706 q 715 486 715 575 l 715 351 l 240 351 l 240 278 q 286 140 240 188 q 417 92 332 92 q 533 117 489 92 q 588 194 578 143 l 713 194 q 619 42 700 99 q 417 -14 538 -14 m 593 435 l 593 486 q 548 625 593 576 q 417 674 503 674 q 286 625 332 674 q 240 486 240 576 l 240 446 l 603 446 l 593 435 z "},"ё":{"ha":833,"x_min":118,"x_max":715,"o":"m 571 901 q 506 925 531 901 q 482 989 482 949 q 506 1055 482 1031 q 571 1079 531 1079 q 635 1055 611 1079 q 660 989 660 1031 q 635 925 660 949 q 571 901 611 901 m 263 901 q 198 925 222 901 q 174 989 174 949 q 198 1055 174 1031 q 263 1079 222 1079 q 327 1055 303 1079 q 351 989 351 1031 q 327 925 351 949 q 263 901 303 901 m 417 -14 q 259 22 326 -14 q 155 124 192 58 q 118 278 118 190 l 118 486 q 155 640 118 575 q 259 742 192 706 q 417 778 326 778 q 574 742 507 778 q 678 640 642 706 q 715 486 715 575 l 715 351 l 240 351 l 240 278 q 286 140 240 188 q 417 92 332 92 q 533 117 489 92 q 588 194 578 143 l 713 194 q 619 42 700 99 q 417 -14 538 -14 m 593 435 l 593 486 q 548 625 593 576 q 417 674 503 674 q 286 625 332 674 q 240 486 240 576 l 240 446 l 603 446 l 593 435 z "},"ж":{"ha":833,"x_min":25,"x_max":808,"o":"m 25 0 l 192 392 l 36 764 l 157 764 l 290 431 l 364 431 l 364 764 l 469 764 l 469 431 l 540 431 l 678 764 l 797 764 l 642 396 l 808 0 l 683 0 l 544 347 l 469 347 l 469 0 l 364 0 l 364 347 l 289 347 l 149 0 l 25 0 z "}}}
